SplineFontDB: 3.2
FontName: NewCMSans08-Regular
FullName: NewComputerModernSans08-Regular
FamilyName: NewComputerModernSans08
Weight: Regular
Copyright: (C) 2019-2021 Antonis Tsolomitis. This work is released under the GUST Font License --  see http://tug.org/fonts/licenses/GUST-FONT-LICENSE.txt for details.
Version: 3.9
ItalicAngle: 0
UnderlinePosition: -146
UnderlineWidth: 40
Ascent: 806
Descent: 194
InvalidEm: 0
sfntRevision: 0x00021999
LayerCount: 2
Layer: 0 0 "Back" 1
Layer: 1 0 "Fore" 0
XUID: [1021 12 -395342500 13699419]
StyleMap: 0x0040
FSType: 8
OS2Version: 3
OS2_WeightWidthSlopeOnly: 0
OS2_UseTypoMetrics: 0
CreationTime: 1254996025
ModificationTime: 1633796126
PfmFamily: 81
TTFWeight: 400
TTFWidth: 5
LineGap: 0
VLineGap: 0
Panose: 0 0 5 0 0 0 0 0 0 0
OS2TypoAscent: 806
OS2TypoAOffset: 0
OS2TypoDescent: -194
OS2TypoDOffset: 0
OS2TypoLinegap: 200
OS2WinAscent: 1154
OS2WinAOffset: 0
OS2WinDescent: 309
OS2WinDOffset: 0
HheadAscent: 1154
HheadAOffset: 0
HheadDescent: -309
HheadDOffset: 0
OS2SubXSize: 650
OS2SubYSize: 600
OS2SubXOff: 0
OS2SubYOff: 75
OS2SupXSize: 650
OS2SupYSize: 600
OS2SupXOff: 0
OS2SupYOff: 350
OS2StrikeYSize: 40
OS2StrikeYPos: 266
OS2CapHeight: 694
OS2XHeight: 444
OS2Vendor: 'UKWN'
OS2CodePages: 20000193.00000000
OS2UnicodeRanges: 20000007.00000000.00000000.00000000
Lookup: 1 0 0 "'aalt' Access All Alternates lookup 0" { "'aalt' Access All Alternates lookup 0 subtable"  } ['aalt' ('DFLT' <'dflt' > 'cyrl' <'dflt' > 'latn' <'AZE ' 'CRT ' 'MOL ' 'NLD ' 'PLK ' 'ROM ' 'TRK ' 'dflt' > ) ]
Lookup: 3 0 0 "'aalt' Access All Alternates lookup 1" { "'aalt' Access All Alternates lookup 1 subtable"  } ['aalt' ('DFLT' <'dflt' > 'cyrl' <'dflt' > 'latn' <'AZE ' 'CRT ' 'MOL ' 'NLD ' 'PLK ' 'ROM ' 'TRK ' 'dflt' > ) ]
Lookup: 1 0 0 "'locl' Localized Forms in Latin lookup 2" { "'locl' Localized Forms in Latin lookup 2 subtable"  } ['locl' ('latn' <'MOL ' 'ROM ' > ) ]

StartChar: exclam
Encoding: 33 33 2
Width: 337
GlyphClass: 2
Flags: HMW
LayerCount: 2
Fore
SplineSet
207 174 m 1
 132 174 l 1
 132 219 l 1
 123 694 l 1
 216 694 l 1
 207 174 l 1
123 0 m 1
 123 87 l 1
 216 87 l 1
 216 0 l 1
 123 0 l 1
EndSplineSet
EndChar

StartChar: quotedbl
Encoding: 34 34 3
Width: 467
GlyphClass: 2
Flags: HMW
LayerCount: 2
Fore
SplineSet
269 430 m 1
 269 716 l 1
 356 716 l 1
 356 430 l 1
 269 430 l 1
105 430 m 1
 105 716 l 1
 193 716 l 1
 193 430 l 1
 105 430 l 1
EndSplineSet
EndChar

StartChar: numbersign
Encoding: 35 35 4
Width: 885
GlyphClass: 2
Flags: HMW
LayerCount: 2
Fore
SplineSet
783 128 m 2
 549 128 l 1
 465 -168 l 2
 464.333007812 -172.666992188 460.666992188 -179.666992188 454 -189 c 0
 450 -192.333007812 445.333007812 -194 440 -194 c 0
 424 -194 416 -186.666992188 416 -172 c 0
 416 -164.666992188 417.666992188 -158.333007812 421 -153 c 1
 500 128 l 1
 308 128 l 1
 225 -168 l 2
 220.047851562 -185.333007812 211.380859375 -194 199 -194 c 0
 183.666992188 -194 176 -186.666992188 176 -172 c 0
 176 -164.666992188 177.333007812 -158.333007812 180 -153 c 1
 260 128 l 1
 96 128 l 2
 71.3330078125 128 59 135.5 59 150.5 c 128
 59 165.5 71.6669921875 173 97 173 c 2
 274 173 l 1
 317 327 l 1
 97 327 l 2
 71.6669921875 327 59 334.5 59 349.5 c 128
 59 364.5 71.3330078125 372 96 372 c 2
 331 372 l 1
 414 668 l 2
 418.952148438 685.333007812 427.619140625 694 440 694 c 0
 455.333007812 694 463 686.666992188 463 672 c 0
 463 664.666992188 461.666992188 658.333007812 459 653 c 1
 379 372 l 1
 571 372 l 1
 655 668 l 2
 655.666992188 672.666992188 659.333007812 679.666992188 666 689 c 0
 670 692.333007812 674.666992188 694 680 694 c 0
 696 694 704 686.666992188 704 672 c 0
 704 664.666992188 702.666992188 658.333007812 700 653 c 1
 620 372 l 1
 783 372 l 2
 807.666992188 372 820 364.5 820 349.5 c 128
 820 334.5 807.333007812 327 782 327 c 2
 606 327 l 1
 563 173 l 1
 782 173 l 2
 807.333007812 173 820 165.5 820 150.5 c 128
 820 135.5 807.666992188 128 783 128 c 2
365 327 m 1
 322 173 l 1
 514 173 l 1
 557 327 l 1
 365 327 l 1
EndSplineSet
EndChar

StartChar: dollar
Encoding: 36 36 5
Width: 531
GlyphClass: 2
Flags: HMW
LayerCount: 2
Fore
SplineSet
472 196.5 m 256
 472 90.029296875 394.129882812 7.060546875 300 -8 c 1
 300 -56 l 1
 233 -56 l 1
 233 -10 l 1
 167 -4 105 19 47 59 c 1
 61 132 l 1
 111 90 168.333007812 65.6669921875 233 59 c 1
 233 320 l 1
 161.666992188 336.666992188 113.666992188 367.666992188 89 413 c 0
 69.6669921875 449 60 482 60 512 c 0
 60 616.212890625 141.681640625 686.958007812 233 703 c 1
 233 750 l 1
 300 750 l 1
 300 704 l 1
 352.666992188 700 404.333007812 681.333007812 455 648 c 1
 442 577 l 1
 396.666992188 611 349.333007812 630.333007812 300 635 c 1
 300 401 l 1
 393.662109375 382.513671875 472 304.875 472 196.5 c 256
233 633 m 1
 185.75 620.884765625 142 581.154296875 142 524 c 256
 142 466.325195312 184.8671875 429.033203125 233 417 c 1
 233 633 l 1
300 62 m 1
 348.4296875 76.5283203125 390 122.616210938 390 183 c 256
 390 243.368164062 348.403320312 290.479492188 300 305 c 1
 300 62 l 1
EndSplineSet
Substitution2: "'onum' Oldstyle Figures lookup 4 subtable" dollar.oldstyle
Substitution2: "'aalt' Access All Alternates lookup 0 subtable" dollar.oldstyle
EndChar

StartChar: percent
Encoding: 37 37 6
Width: 885
GlyphClass: 2
Flags: HMW
CounterMasks: 1 e0
LayerCount: 2
Fore
SplineSet
785 14 m 0
 757 -32.6669921875 719.833007812 -56 673.5 -56 c 128
 627.166992188 -56 589.666992188 -32.6669921875 561 14 c 0
 536.333007812 54 524 98.5 524 147.5 c 128
 524 196.5 537.333007812 242.333007812 564 285 c 128
 590.666992188 327.666992188 627.166992188 349 673.5 349 c 128
 719.833007812 349 757 325.666992188 785 279 c 0
 808.333007812 239.666992188 820 195.5 820 146.5 c 128
 820 97.5 808.333007812 53.3330078125 785 14 c 0
689 708 m 2
 233 -39 l 2
 226.333007812 -50.3330078125 218.333007812 -56 209 -56 c 0
 193 -56 185 -48.3330078125 185 -33 c 1
 193 -15 l 1
 650 733 l 2
 656.666992188 744.333007812 664.666992188 750 674 750 c 0
 690 750 698 742.666992188 698 728 c 0
 698 724.666992188 695 718 689 708 c 2
320 680 m 0
 343.333007812 640.666992188 355 596.5 355 547.5 c 128
 355 498.5 342 452.5 316 409.5 c 128
 290 366.5 254 345 208 345 c 128
 162 345 125.666992188 366.5 99 409.5 c 128
 72.3330078125 452.5 59 498.666992188 59 548 c 256
 59 597.333007812 71.3330078125 641.666992188 96 681 c 0
 124.666992188 727 162.166992188 750 208.5 750 c 128
 254.833007812 750 292 726.666992188 320 680 c 0
674 284 m 0
 664 284 653 279.333007812 641 270 c 0
 619 252.888671875 608 211.555664062 608 146 c 256
 608 80.2421875 621 37.9091796875 647 19 c 0
 655.666992188 13 664.666992188 10 674 10 c 0
 698 10 716.333007812 28 729 64 c 0
 738.333007812 90.6669921875 743 118.333007812 743 147 c 256
 743 175.666992188 738 203.333007812 728 230 c 0
 715.333007812 266 697.333007812 284 674 284 c 0
209 684 m 0
 178.733398438 684 158.733398438 659.666992188 149 611 c 0
 145 593 143 571.333007812 143 546 c 0
 143 479.727539062 156 437.727539062 182 420 c 0
 190.666992188 413.333007812 199.666992188 410 209 410 c 0
 232.333007812 410 250.333007812 428 263 464 c 0
 273 490.666992188 278 518.333007812 278 547 c 128
 278 575.666992188 273 603.333007812 263 630 c 0
 250.333007812 666 232.333007812 684 209 684 c 0
EndSplineSet
EndChar

StartChar: ampersand
Encoding: 38 38 7
Width: 806
GlyphClass: 2
Flags: HMW
LayerCount: 2
Fore
SplineSet
459 127 m 1
 537.829101562 188.311523438 601.19921875 293.805664062 634 408 c 1
 704 388 l 1
 664.666992188 257.333007812 601 155 513 81 c 1
 549 58.3330078125 585.666992188 47 623 47 c 128
 660.333007812 47 700 53 742 65 c 1
 742 -7 l 1
 698 -17 656.333007812 -22 617 -22 c 0
 557.666992188 -22 501.333007812 -3 448 35 c 1
 376.666992188 -3 307 -22 239 -22 c 0
 187.666992188 -22 142.333007812 -6.3330078125 103 25 c 128
 63.6669921875 56.3330078125 44 95 44 141 c 128
 44 219.081054688 90.611328125 263.077148438 144 303.5 c 128
 167.333007812 321.166992188 183.666992188 334.666992188 193 344 c 2
 202 354 l 2
 202 354.666992188 201.666992188 355.333007812 201 356 c 2
 199 362 l 1
 179.666992188 413.333007812 170 464.666992188 170 516 c 128
 170 567.333007812 182.666992188 613.5 208 654.5 c 128
 233.333007812 695.5 268.166992188 716 312.5 716 c 128
 356.833007812 716 391.833007812 700 417.5 668 c 128
 443.166992188 636 456 600.5 456 561.5 c 128
 456 522.5 437 481 399 437 c 0
 377.666992188 412.333007812 344 380.666992188 298 342 c 1
 334 270.666992188 387.666992188 199 459 127 c 1
378 559 m 0
 378 601.794921875 360.854492188 650 317 650 c 0
 268.154296875 650 244 599.8203125 244 551 c 0
 244 500.333007812 253 452.666992188 271 408 c 1
 342.333007812 470 378 520.333007812 378 559 c 0
132 156 m 128
 132 92.0029296875 176.645507812 47 240 47 c 0
 290.666992188 47 340.666992188 58.6669921875 390 82 c 1
 344.791015625 127.208984375 263.4296875 231.973632812 232 288 c 1
 189.333007812 253.333007812 167.666992188 235.333007812 167 234 c 0
 143.666992188 214.666992188 132 188.666992188 132 156 c 128
EndSplineSet
Substitution2: "'lnum' Lining Figures lookup 5 subtable" ampersand
Substitution2: "'onum' Oldstyle Figures lookup 4 subtable" ampersand
Substitution2: "'aalt' Access All Alternates lookup 0 subtable" ampersand
EndChar

StartChar: quotesingle
Encoding: 39 39 8
Width: 295
GlyphClass: 2
Flags: HMW
LayerCount: 2
Fore
SplineSet
105 430 m 1
 105 716 l 1
 193 716 l 1
 193 430 l 1
 105 430 l 1
EndSplineSet
EndChar

StartChar: parenleft
Encoding: 40 40 9
Width: 413
GlyphClass: 2
Flags: HMW
LayerCount: 2
Fore
SplineSet
359 750 m 1
 236.047851562 633.385742188 171 481.623046875 171 250 c 0
 171 93.779296875 210.091796875 -53.5869140625 269 -143 c 0
 307.493164062 -200.740234375 313.732421875 -207.965820312 359 -250 c 1
 288 -250 l 1
 152 -132 84 34.6669921875 84 250 c 0
 84 451.512695312 140.666992188 607.845703125 254 719 c 0
 262.666992188 727 274 737.333007812 288 750 c 1
 359 750 l 1
EndSplineSet
EndChar

StartChar: parenright
Encoding: 41 41 10
Width: 413
GlyphClass: 2
Flags: HMW
LayerCount: 2
Fore
SplineSet
59 -250 m 1
 183.048828125 -133.546875 247 17.806640625 247 250 c 0
 247 408.200195312 208.219726562 553.11328125 149 643 c 0
 110.506835938 700.740234375 104.267578125 707.965820312 59 750 c 1
 131 750 l 1
 266.333007812 632 334 465.333007812 334 250 c 0
 334 83.8037109375 285.923828125 -83.748046875 208.5 -170.5 c 256
 180.833007812 -201.5 155 -228 131 -250 c 1
 59 -250 l 1
EndSplineSet
EndChar

StartChar: asterisk
Encoding: 42 42 11
Width: 531
GlyphClass: 2
Flags: HMW
LayerCount: 2
Fore
SplineSet
462 439.5 m 128
 462 417.966796875 446.981445312 399 427 399 c 128
 418.333007812 399 405.666992188 404.333007812 389 415 c 2
 296 476 l 1
 301.333007812 400 304 355.666992188 304 343 c 0
 304 318.333007812 291 306 265 306 c 128
 239 306 226 318.333007812 226 343 c 0
 226 355.666992188 228.666992188 400 234 476 c 1
 138 412 l 2
 124.666992188 403.333007812 113.333007812 399 104 399 c 128
 83.4228515625 399 68 417.3046875 68 439 c 128
 68 451 77.3330078125 462 96 472 c 2
 206 528 l 1
 182 539.333007812 146.333007812 557.333007812 99 582 c 0
 78.3330078125 592.666992188 68 604.166992188 68 616.5 c 128
 68 638.89453125 83.2421875 657 104.5 657 c 128
 114.166992188 657 124.666992188 653.333007812 136 646 c 2
 234 580 l 1
 228.666992188 656 226 700.333007812 226 713 c 0
 226 737.666992188 239 750 265 750 c 256
 291 750 304 737.666992188 304 713 c 0
 304 700.333007812 301.333007812 656 296 580 c 1
 392 644 l 2
 405.333007812 652.666992188 416.666992188 657 426 657 c 128
 446.577148438 657 462 638.6953125 462 617 c 128
 462 605 452.666992188 594 434 584 c 2
 323 528 l 1
 347.666992188 516.666992188 383.666992188 498.666992188 431 474 c 0
 451.666992188 463.333007812 462 451.833007812 462 439.5 c 128
EndSplineSet
EndChar

StartChar: plus
Encoding: 43 43 12
Width: 826
GlyphClass: 2
Flags: HMW
LayerCount: 2
Fore
SplineSet
725 228 m 2
 435 228 l 1
 435 -48 l 2
 435 -71.3330078125 427.166992188 -83 411.5 -83 c 256
 395.833007812 -83 388 -71.3330078125 388 -48 c 2
 388 228 l 1
 96 228 l 2
 71.3330078125 228 59 235.333007812 59 250 c 256
 59 264.666992188 71.3330078125 272 96 272 c 2
 388 272 l 1
 388 548 l 2
 388 571.333007812 395.833007812 583 411.5 583 c 256
 427.166992188 583 435 571.333007812 435 548 c 2
 435 272 l 1
 725 272 l 2
 750.333007812 272 763 264.666992188 763 250 c 256
 763 235.333007812 750.333007812 228 725 228 c 2
EndSplineSet
EndChar

StartChar: comma
Encoding: 44 44 13
Width: 295
GlyphClass: 2
Flags: HMW
LayerCount: 2
Fore
SplineSet
149 -125 m 1
 101 -125 l 1
 127 -3 l 1
 101 -3 l 1
 101 83 l 1
 194 83 l 1
 194 0 l 1
 149 -125 l 1
EndSplineSet
EndChar

StartChar: hyphen
Encoding: 45 45 14
Width: 354
GlyphClass: 2
Flags: HMW
LayerCount: 2
Fore
SplineSet
12 193 m 1
 12 251 l 1
 295 251 l 1
 295 193 l 1
 12 193 l 1
EndSplineSet
EndChar

StartChar: period
Encoding: 46 46 15
Width: 295
GlyphClass: 2
Flags: HMW
LayerCount: 2
Fore
SplineSet
102 0 m 1
 102 83 l 1
 195 83 l 1
 195 0 l 1
 102 0 l 1
EndSplineSet
EndChar

StartChar: slash
Encoding: 47 47 16
Width: 531
GlyphClass: 2
Flags: HMW
LayerCount: 2
Fore
SplineSet
465 709 m 2
 107 -228 l 2
 101.666992188 -242.666992188 93.6669921875 -250 83 -250 c 0
 67 -250 59 -242.666992188 59 -228 c 0
 59 -224.666992188 61 -218.333007812 65 -209 c 2
 423 728 l 2
 428.333007812 742.666992188 436.333007812 750 447 750 c 0
 463 750 471 742.666992188 471 728 c 0
 471 724.666992188 469 718.333007812 465 709 c 2
EndSplineSet
EndChar

StartChar: zero
Encoding: 48 48 17
Width: 531
GlyphClass: 2
Flags: HMW
LayerCount: 2
Fore
SplineSet
483 326 m 0
 483 94 409.333007812 -22 262 -22 c 0
 213.333007812 -22 170 -5.6669921875 132 27 c 0
 72 79 42 178.666992188 42 326 c 0
 42 498.666992188 81.6669921875 607 161 651 c 0
 193.666992188 669 227.833007812 678 263.5 678 c 128
 343.56640625 678 404.629882812 632.899414062 435 578 c 0
 467 520 483 436 483 326 c 0
377 521 m 0
 353.666992188 581.666992188 315 612 261 612 c 128
 207 612 169 579.333007812 147 514 c 0
 135.666992188 478.666992188 130 419.333007812 130 336 c 128
 130 252.666992188 135.666992188 191 147 151 c 0
 168.333007812 79.6669921875 206.833007812 44 262.5 44 c 128
 318.166992188 44 356.666992188 78.6669921875 378 148 c 0
 390 189.333007812 396 253 396 339 c 128
 396 425 389.666992188 485.666992188 377 521 c 0
EndSplineSet
Substitution2: "'zero' Slashed Zero lookup 14 subtable" zero.slash
Substitution2: "'pnum' Proportional Numbers lookup 6 subtable" zero.prop
Substitution2: "'onum' Oldstyle Figures lookup 4 subtable" zero.oldstyle
AlternateSubs2: "'aalt' Access All Alternates lookup 1 subtable" zero.oldstyle zero.prop zero.slash
EndChar

StartChar: one
Encoding: 49 49 18
Width: 531
GlyphClass: 2
Flags: HMW
LayerCount: 2
Fore
SplineSet
98 0 m 1
 98 63 l 1
 229 63 l 1
 229 573 l 1
 193.666992188 559 148 551.333007812 92 550 c 1
 92 612 l 1
 184.666992188 615.333007812 251.666992188 637.333007812 293 678 c 1
 318 678 l 1
 318 63 l 1
 449 63 l 1
 449 0 l 1
 98 0 l 1
EndSplineSet
Substitution2: "'pnum' Proportional Numbers lookup 6 subtable" one.prop
Substitution2: "'onum' Oldstyle Figures lookup 4 subtable" one.oldstyle
AlternateSubs2: "'aalt' Access All Alternates lookup 1 subtable" one.oldstyle one.prop
EndChar

StartChar: two
Encoding: 50 50 19
Width: 531
GlyphClass: 2
Flags: HMW
LayerCount: 2
Fore
SplineSet
386 463 m 128
 386 547.161132812 320.364257812 610 235 610 c 128
 191 610 158.333007812 594 137 562 c 0
 119.666992188 536 104.333007812 499.333007812 91 452 c 1
 44 512 l 1
 76.6669921875 622.666992188 145.666992188 678 251 678 c 0
 378.959960938 678 477 589.887695312 477 462 c 0
 477 412.666992188 459 368.333007812 423 329 c 0
 411.666992188 317 394.666992188 300.333007812 372 279 c 1
 279 201 l 2
 265.5625 190.25 151.318359375 85.501953125 138 74 c 1
 246 74 l 2
 252.626953125 74 276.379882812 75 283 75 c 2
 477 75 l 1
 477 0 l 1
 53 0 l 1
 53 67 l 1
 184 191 l 1
 265 261 l 1
 311 307 l 2
 321 317.666992188 333 332 347 350 c 0
 373 384 386 421.666992188 386 463 c 128
EndSplineSet
Substitution2: "'pnum' Proportional Numbers lookup 6 subtable" two.prop
Substitution2: "'onum' Oldstyle Figures lookup 4 subtable" two.oldstyle
AlternateSubs2: "'aalt' Access All Alternates lookup 1 subtable" two.oldstyle two.prop
EndChar

StartChar: three
Encoding: 51 51 20
Width: 531
GlyphClass: 2
Flags: HMW
LayerCount: 2
Fore
SplineSet
345 354 m 1
 415.872070312 331.557617188 485 269.946289062 485 181 c 0
 485 122.333007812 462.666992188 73.8330078125 418 35.5 c 128
 373.333007812 -2.8330078125 321.333007812 -22 262 -22 c 0
 174.666992188 -22 102 13 44 83 c 1
 57 150 l 1
 98.265625 90.888671875 169.889648438 44 261 44 c 256
 299 44 329.5 57.1669921875 352.5 83.5 c 128
 375.5 109.833007812 387 140.333007812 387 175 c 256
 387 209.666992188 378.666992188 241.333007812 362 270 c 0
 342 304.666992188 305.666992188 322 253 322 c 2
 176 322 l 1
 176 387 l 1
 229.333007812 391 257.666992188 393.333007812 261 394 c 0
 316.607421875 406.088867188 366 458.15625 366 523 c 256
 366 583.904296875 321.225585938 615 260 615 c 256
 183.30078125 615 126.28125 566.1328125 100 507 c 1
 59 566 l 1
 105.666992188 640.666992188 173.666992188 678 263 678 c 0
 312.333007812 678 357 664.166992188 397 636.5 c 256
 437 608.833007812 457 571.666992188 457 525 c 0
 457 450.333007812 419.666992188 393.333007812 345 354 c 1
EndSplineSet
Substitution2: "'pnum' Proportional Numbers lookup 6 subtable" three.prop
Substitution2: "'onum' Oldstyle Figures lookup 4 subtable" three.oldstyle
AlternateSubs2: "'aalt' Access All Alternates lookup 1 subtable" three.oldstyle three.prop
EndChar

StartChar: four
Encoding: 52 52 21
Width: 531
GlyphClass: 2
Flags: HMW
LayerCount: 2
Fore
SplineSet
396 170 m 1
 396 0 l 1
 308 0 l 1
 308 170 l 1
 30 170 l 1
 30 233 l 1
 297 656 l 1
 396 656 l 1
 396 235 l 1
 500 235 l 1
 500 170 l 1
 396 170 l 1
314 584 m 1
 296 526.666992188 231 410.333007812 119 235 c 1
 314 235 l 1
 314 584 l 1
EndSplineSet
Substitution2: "'pnum' Proportional Numbers lookup 6 subtable" four.prop
Substitution2: "'onum' Oldstyle Figures lookup 4 subtable" four.oldstyle
AlternateSubs2: "'aalt' Access All Alternates lookup 1 subtable" four.oldstyle four.prop
EndChar

StartChar: five
Encoding: 53 53 22
Width: 531
GlyphClass: 2
Flags: HMW
LayerCount: 2
Fore
SplineSet
78 138 m 1
 107.068359375 86.8388671875 166.768554688 44 242 44 c 0
 334.483398438 44 377 114.728515625 377 213.5 c 256
 377 249.166992188 370 281 356 309 c 0
 338 345 310.666992188 363 274 363 c 0
 219.333007812 363 180.666992188 337 158 285 c 1
 84 285 l 1
 84 656 l 1
 441 656 l 1
 441 588 l 1
 165 588 l 1
 165 391 l 1
 197 416.333007812 233.666992188 429 275 429 c 0
 333.666992188 429 381.833007812 406.333007812 419.5 361 c 256
 457.166992188 315.666992188 476 262.166992188 476 200.5 c 256
 476 138.833007812 453.166992188 86.3330078125 407.5 43 c 128
 361.833007812 -0.3330078125 307 -22 243 -22 c 0
 158.333007812 -22 90.6669921875 11.3330078125 40 78 c 1
 78 138 l 1
EndSplineSet
Substitution2: "'pnum' Proportional Numbers lookup 6 subtable" five.prop
Substitution2: "'onum' Oldstyle Figures lookup 4 subtable" five.oldstyle
AlternateSubs2: "'aalt' Access All Alternates lookup 1 subtable" five.oldstyle five.prop
EndChar

StartChar: six
Encoding: 54 54 23
Width: 531
GlyphClass: 2
Flags: HMW
LayerCount: 2
Fore
SplineSet
485 223 m 0
 485 135.864257812 463.908203125 95.5322265625 418 46 c 0
 375.333007812 0.6669921875 325 -22 267 -22 c 0
 223 -22 183.666992188 -8.6669921875 149 18 c 0
 80.056640625 71.6220703125 44 187.54296875 44 322 c 0
 44 414 67.6669921875 494 115 562 c 0
 169 639.333007812 239.666992188 678 327 678 c 0
 366.333007812 678 404.333007812 671 441 657 c 1
 441 593 l 1
 402.333007812 607.666992188 364.666992188 615 328 615 c 0
 210.342773438 615 150.334960938 503.1328125 139 386 c 1
 185.666992188 438 243.666992188 464 313 464 c 0
 368.333007812 464 412 436.333007812 444 381 c 0
 471.333007812 334.333007812 485 281.666992188 485 223 c 0
370 338 m 0
 346.666992188 378 314.5 398 273.5 398 c 256
 232.5 398 200.166992188 383.166992188 176.5 353.5 c 128
 152.833007812 323.833007812 140.666992188 288.666992188 140 248 c 2
 139 220 l 1
 140.333007812 194.666992188 148.333007812 161.666992188 163 121 c 0
 181.666992188 69.6669921875 216.333007812 44 267 44 c 0
 309.666992188 44 343.666992188 64 369 104 c 0
 385.666992188 130 394 168.666992188 394 220 c 256
 394 271.333007812 386 310.666992188 370 338 c 0
EndSplineSet
Substitution2: "'pnum' Proportional Numbers lookup 6 subtable" six.prop
Substitution2: "'onum' Oldstyle Figures lookup 4 subtable" six.oldstyle
AlternateSubs2: "'aalt' Access All Alternates lookup 1 subtable" six.oldstyle six.prop
EndChar

StartChar: seven
Encoding: 55 55 24
Width: 531
GlyphClass: 2
Flags: HMW
LayerCount: 2
Fore
SplineSet
284 582 m 2
 277.373046875 582 253.620117188 581 247 581 c 2
 44 581 l 1
 44 656 l 1
 485 656 l 1
 485 588 l 1
 435 535.333007812 386.333007812 462.666992188 339 370 c 0
 281.666992188 258 253 131 253 -11 c 1
 160 -11 l 1
 160 211.666992188 242 409.333007812 406 582 c 1
 284 582 l 2
EndSplineSet
Substitution2: "'pnum' Proportional Numbers lookup 6 subtable" seven.prop
Substitution2: "'onum' Oldstyle Figures lookup 4 subtable" seven.oldstyle
AlternateSubs2: "'aalt' Access All Alternates lookup 1 subtable" seven.oldstyle seven.prop
EndChar

StartChar: eight
Encoding: 56 56 25
Width: 531
GlyphClass: 2
Flags: HMW
LayerCount: 2
Fore
SplineSet
347 355 m 1
 416.80859375 329.403320312 485 271.033203125 485 181 c 0
 485 123 463 74.6669921875 419 36 c 128
 375 -2.6669921875 323.666992188 -22 265 -22 c 128
 206.333007812 -22 154.833007812 -2.6669921875 110.5 36 c 128
 66.1669921875 74.6669921875 44 123 44 181 c 0
 44 270.014648438 113.819335938 329.633789062 183 355 c 1
 120.49609375 375.048828125 59 426.62109375 59 502 c 0
 59 554 80 596.333007812 122 629 c 128
 164 661.666992188 211.666992188 678 265 678 c 256
 318.333007812 678 365 662 405 630 c 0
 449 596 471 553.333007812 471 502 c 0
 471 426.658203125 409.435546875 375.026367188 347 355 c 1
392 501.5 m 128
 392 573.15234375 336.122070312 615 264.5 615 c 128
 192.56640625 615 138 573.08984375 138 501 c 128
 138 428.666015625 192.668945312 387 265 387 c 256
 337.059570312 387 392 429.62109375 392 501.5 c 128
395 182 m 256
 395 262.318359375 345.2421875 322 265 322 c 128
 184.760742188 322 135 261.286132812 135 181 c 128
 135 100.057617188 183.875976562 44 265 44 c 256
 346.125 44 395 101.084960938 395 182 c 256
EndSplineSet
Substitution2: "'pnum' Proportional Numbers lookup 6 subtable" eight.prop
Substitution2: "'onum' Oldstyle Figures lookup 4 subtable" eight.oldstyle
AlternateSubs2: "'aalt' Access All Alternates lookup 1 subtable" eight.oldstyle eight.prop
EndChar

StartChar: nine
Encoding: 57 57 26
Width: 531
GlyphClass: 2
Flags: HMW
LayerCount: 2
Fore
SplineSet
218 -22 m 0
 168.666992188 -22 121 -6.3330078125 75 25 c 1
 110 83 l 1
 143.333007812 57 179.666992188 44 219 44 c 0
 327.8359375 44 382.129882812 158.4921875 391 270 c 1
 344.333007812 218 286.333007812 192 217 192 c 0
 161.666992188 192 118 219.666992188 86 275 c 0
 58 321.666992188 44 376.166992188 44 438.5 c 128
 44 500.833007812 65.1669921875 556.333007812 107.5 605 c 128
 149.833007812 653.666992188 203.666992188 678 269 678 c 0
 321 678 368 656 410 612 c 0
 460 559.333007812 485 467 485 335 c 0
 485 245.666992188 463.666992188 166.666992188 421 98 c 0
 370.333007812 18 302.666992188 -22 218 -22 c 0
269 615 m 256
 175.655273438 615 136 532.861328125 136 433 c 0
 136 316.333007812 176.666992188 258 258 258 c 0
 338.750976562 258 390 330.28515625 390 411.200195312 c 128
 390 452.666992188 381.666992188 497 365 544.200195312 c 128
 348.333007812 591.400390625 316.333007812 615 269 615 c 256
EndSplineSet
Substitution2: "'pnum' Proportional Numbers lookup 6 subtable" nine.prop
Substitution2: "'onum' Oldstyle Figures lookup 4 subtable" nine.oldstyle
AlternateSubs2: "'aalt' Access All Alternates lookup 1 subtable" nine.oldstyle nine.prop
EndChar

StartChar: colon
Encoding: 58 58 27
Width: 295
GlyphClass: 2
Flags: HMW
LayerCount: 2
Fore
SplineSet
102 357 m 1
 102 444 l 1
 195 444 l 1
 195 357 l 1
 102 357 l 1
102 0 m 1
 102 87 l 1
 195 87 l 1
 195 0 l 1
 102 0 l 1
EndSplineSet
EndChar

StartChar: semicolon
Encoding: 59 59 28
Width: 295
GlyphClass: 2
Flags: HMW
LayerCount: 2
Fore
SplineSet
101 357 m 1
 101 444 l 1
 194 444 l 1
 194 357 l 1
 101 357 l 1
149 -125 m 1
 101 -125 l 1
 127 -1 l 1
 101 -1 l 1
 101 86 l 1
 194 86 l 1
 194 2 l 1
 149 -125 l 1
EndSplineSet
EndChar

StartChar: less
Encoding: 60 60 29
Width: 826
GlyphClass: 2
Flags: HMW
LayerCount: 2
Fore
SplineSet
711 -40 m 0
 708.333007812 -40 701.666992188 -37.6669921875 691 -33 c 2
 109 226 l 2
 95 232 88 240 88 250 c 256
 88 260 95 268 109 274 c 2
 691 533 l 2
 701.666992188 537.666992188 708.333007812 540 711 540 c 0
 726.333007812 540 734 532.666992188 734 518 c 0
 734 508 727 500 713 494 c 2
 167 250 l 1
 713 6 l 2
 727 0 734 -8 734 -18 c 0
 734 -32.6669921875 726.333007812 -40 711 -40 c 0
EndSplineSet
EndChar

StartChar: equal
Encoding: 61 61 30
Width: 826
GlyphClass: 2
Flags: HMW
LayerCount: 2
Fore
SplineSet
724 326 m 2
 97 326 l 2
 71.6669921875 326 59 333.333007812 59 348 c 256
 59 362.666992188 71.3330078125 370 96 370 c 2
 725 370 l 2
 750.333007812 370 763 362.666992188 763 348 c 256
 763 333.333007812 750 326 724 326 c 2
725 130 m 2
 96 130 l 2
 71.3330078125 130 59 137.333007812 59 152 c 256
 59 166.666992188 71.6669921875 174 97 174 c 2
 724 174 l 2
 750 174 763 166.666992188 763 152 c 256
 763 137.333007812 750.333007812 130 725 130 c 2
EndSplineSet
EndChar

StartChar: greater
Encoding: 62 62 31
Width: 826
GlyphClass: 2
Flags: HMW
LayerCount: 2
Fore
SplineSet
713 226 m 2
 131 -33 l 2
 120.333007812 -37.6669921875 113.666992188 -40 111 -40 c 0
 95.6669921875 -40 88 -32.6669921875 88 -18 c 0
 88 -8 95 0 109 6 c 2
 655 250 l 1
 109 494 l 2
 95 500 88 508 88 518 c 0
 88 532.666992188 95.6669921875 540 111 540 c 0
 113.666992188 540 120.333007812 537.666992188 131 533 c 2
 713 274 l 2
 727 268 734 260 734 250 c 256
 734 240 727 232 713 226 c 2
EndSplineSet
EndChar

StartChar: question
Encoding: 63 63 32
Width: 502
GlyphClass: 2
Flags: HMW
LayerCount: 2
Fore
SplineSet
233.5 705 m 256
 348.03125 705 441 657.208007812 441 552.5 c 256
 441 501.5 421 460 381 428 c 0
 309 370.666992188 273 304.666992188 273 230 c 2
 273 174 l 1
 198 174 l 1
 198 208 l 2
 198 320.666992188 238 410 318 476 c 0
 342 495.333007812 354 520 354 550 c 0
 354 609.333007812 315.333007812 639 238 639 c 0
 179.333007812 639 128.333007812 620.333007812 85 583 c 1
 59 651 l 1
 115 687 173.166992188 705 233.5 705 c 256
189 0 m 1
 189 87 l 1
 282 87 l 1
 282 0 l 1
 189 0 l 1
EndSplineSet
EndChar

StartChar: at
Encoding: 64 64 33
Width: 708
GlyphClass: 2
Flags: HMW
LayerCount: 2
Fore
SplineSet
649 89 m 1
 597.698242188 35.0673828125 515.403320312 -11 410 -11 c 0
 312 -11 229 24 161 94 c 128
 93 164 59 248.166992188 59 346.5 c 256
 59 444.833007812 93 529.166992188 161 599.5 c 128
 229 669.833007812 311.666992188 705 409 705 c 0
 567 705 646 590.666992188 646 362 c 0
 646 274 622 210 574 170 c 0
 533.333007812 136 491.666992188 119 449 119 c 0
 391 119 343.666992188 142.166992188 307 188.5 c 256
 270.333007812 234.833007812 252 287.666992188 252 347 c 256
 252 406.333007812 270.333007812 459.166992188 307 505.5 c 256
 343.666992188 551.833007812 391 575 449 575 c 0
 478.333007812 575 506 567.666992188 532 553 c 1
 508.666992188 610.333007812 467.333007812 639 408 639 c 0
 332 639 268.833007812 609.666992188 218.5 551 c 256
 168.166992188 492.333007812 143 423.833007812 143 345.5 c 256
 143 267.166992188 168.5 199.166992188 219.5 141.5 c 256
 270.5 83.8330078125 335.333007812 55 414 55 c 0
 466 55 516.666992188 65 566 85 c 0
 572.666992188 87.6669921875 581.666992188 89 593 89 c 2
 649 89 l 1
336 347 m 256
 336 272.916015625 378.181640625 185 445 185 c 256
 478.333007812 185 506 200.333007812 528 231 c 0
 560.114257812 275.15625 562 284.405273438 562 356 c 256
 562 388.666992188 553 420.666992188 535 452 c 0
 513.666992188 490 485 509 449 509 c 256
 413 509 384.333007812 490 363 452 c 0
 345 420.666992188 336 385.666992188 336 347 c 256
EndSplineSet
EndChar

StartChar: A
Encoding: 65 65 34
Width: 708
GlyphClass: 2
Flags: HMW
LayerCount: 2
Fore
SplineSet
575 0 m 1
 496 203 l 1
 194 203 l 1
 113 0 l 1
 30 0 l 1
 306 694 l 1
 402 694 l 1
 678 0 l 1
 575 0 l 1
345 610 m 1
 338.333007812 585.333007812 318.333007812 528.333007812 285 439 c 2
 218 263 l 1
 471 263 l 1
 376 515 l 2
 359.333007812 559.666992188 349 591.333007812 345 610 c 1
EndSplineSet
Position2: "'cpsp' Capital Spacing lookup 0 subtable" dx=7 dy=0 dh=14 dv=0
EndChar

StartChar: B
Encoding: 66 66 35
Width: 708
GlyphClass: 2
Flags: HMW
LayerCount: 2
Fore
SplineSet
451 363 m 1
 540.4921875 347.278320312 644 283.28125 644 189 c 0
 644 129.666992188 613.666992188 82 553 46 c 0
 501 15.3330078125 443.333007812 0 380 0 c 2
 100 0 l 1
 100 694 l 1
 352 694 l 2
 412.666992188 694 469 680.333007812 521 653 c 0
 584.333007812 619.666992188 616 575 616 519 c 0
 616 435.225585938 526.970703125 384.038085938 451 363 c 1
322 633 m 2
 193 633 l 1
 193 393 l 1
 312 393 l 2
 379.333007812 393 432.333007812 405.666992188 471 431 c 0
 497.666992188 449 514 463.166992188 520 473.5 c 256
 526 483.833007812 529 498.666992188 529 518 c 0
 529 556.666992188 502.666992188 587 450 609 c 0
 410 625 367.333007812 633 322 633 c 2
342 328 m 2
 193 328 l 1
 193 61 l 1
 351 61 l 2
 397.666992188 61 440.666992188 70.6669921875 480 90 c 0
 529.333007812 114.666992188 554 148.5 554 191.5 c 256
 554 234.5 528.333007812 269 477 295 c 0
 435 317 390 328 342 328 c 2
EndSplineSet
Position2: "'cpsp' Capital Spacing lookup 0 subtable" dx=7 dy=0 dh=14 dv=0
EndChar

StartChar: C
Encoding: 67 67 36
Width: 679
GlyphClass: 2
Flags: HMW
LayerCount: 2
Fore
SplineSet
407 -11 m 0
 310.333333333 -11 229.5 24.3333333333 164.5 95 c 128
 99.5 165.666666667 67 249.833333333 67 347.5 c 256
 67 445.166666667 99.5 529.333333333 164.5 600 c 256
 229.5 670.666666667 310.333333333 706 407 706 c 0
 476.333333333 706 543.333333333 693.666666667 608 669 c 1
 592 582 l 1
 536 618.666666667 473 637 403 637 c 256
 333 637 275 606 229 544 c 0
 186.333333333 488 165 422.5 165 347.5 c 256
 165 272.5 187.333333333 205.5 232 146.5 c 256
 276.666666667 87.5 335 58 407 58 c 0
 451.666666667 58 487.166666667 62 513.5 70 c 128
 539.833333333 78 572.666666667 94.6666666667 612 120 c 1
 619 46 l 1
 578.333333333 22.6666666667 544.166666667 7.33333333333 516.5 0 c 128
 488.833333333 -7.33333333333 452.333333333 -11 407 -11 c 0
EndSplineSet
Position2: "'cpsp' Capital Spacing lookup 0 subtable" dx=7 dy=0 dh=14 dv=0
EndChar

StartChar: D
Encoding: 68 68 37
Width: 767
GlyphClass: 2
Flags: HMW
LayerCount: 2
Fore
SplineSet
377 0 m 2
 98 0 l 1
 98 694 l 1
 376 694 l 2
 469.333333333 694 546.833333333 658.833333333 608.5 588.5 c 256
 670.166666667 518.166666667 701 436 701 342 c 256
 701 248 670 167.5 608 100.5 c 256
 546 33.5 469 0 377 0 c 2
352 633 m 2
 194 633 l 1
 194 61 l 1
 352 61 l 2
 429.333333333 61 490.833333333 88 536.5 142 c 256
 582.166666667 196 605 262.833333333 605 342.5 c 256
 605 422.166666667 582.5 490.5 537.5 547.5 c 256
 492.5 604.5 430.666666667 633 352 633 c 2
EndSplineSet
Position2: "'cpsp' Capital Spacing lookup 0 subtable" dx=7 dy=0 dh=14 dv=0
EndChar

StartChar: E
Encoding: 69 69 38
Width: 637
GlyphClass: 2
Flags: HMW
LayerCount: 2
Fore
SplineSet
413 74 m 2
 419.626953125 74 443.379882812 75 450 75 c 2
 585 75 l 1
 585 0 l 1
 97 0 l 1
 97 691 l 1
 571 691 l 1
 571 622 l 1
 383.5 622 383.5 622 196 622 c 1
 196 392 l 1
 542 392 l 1
 542 327 l 1
 196 327 l 1
 196 74 l 1
 413 74 l 2
EndSplineSet
Position2: "'cpsp' Capital Spacing lookup 0 subtable" dx=7 dy=0 dh=14 dv=0
EndChar

StartChar: F
Encoding: 70 70 39
Width: 608
GlyphClass: 2
Flags: HMW
LayerCount: 2
Fore
SplineSet
556 622 m 1
 376 622 376 622 196 622 c 1
 196 378 l 1
 513 378 l 1
 513 313 l 1
 196 313 l 1
 196 0 l 1
 97 0 l 1
 97 691 l 1
 556 691 l 1
 556 622 l 1
EndSplineSet
Position2: "'cpsp' Capital Spacing lookup 0 subtable" dx=7 dy=0 dh=14 dv=0
EndChar

StartChar: G
Encoding: 71 71 40
Width: 708
GlyphClass: 2
Flags: HMW
LayerCount: 2
Fore
SplineSet
407 -11 m 0
 310.333333333 -11 229.5 24.3333333333 164.5 95 c 128
 99.5 165.666666667 67 249.833333333 67 347.5 c 256
 67 445.166666667 99.5 529.333333333 164.5 600 c 256
 229.5 670.666666667 310.333333333 706 407 706 c 0
 485 706 556.666666667 689 622 655 c 1
 606 568 l 1
 547.333333333 614 481.333333333 637 408 637 c 256
 334.666666667 637 275 606 229 544 c 0
 186.333333333 488 165 422.5 165 347.5 c 256
 165 272.5 187.333333333 205.5 232 146.5 c 256
 276.666666667 87.5 335 58 407 58 c 0
 454.333333333 58 499.666666667 64.6666666667 543 78 c 1
 543 237 l 1
 405 237 l 1
 405 303 l 1
 631 303 l 1
 631 39 l 1
 559.666666667 5.66666666667 485 -11 407 -11 c 0
EndSplineSet
Position2: "'cpsp' Capital Spacing lookup 0 subtable" dx=7 dy=0 dh=14 dv=0
EndChar

StartChar: H
Encoding: 72 72 41
Width: 750
GlyphClass: 2
Flags: HMW
LayerCount: 2
Fore
SplineSet
549 0 m 1
 549 328 l 1
 196 328 l 1
 196 0 l 1
 97 0 l 1
 97 694 l 1
 196 694 l 1
 196 393 l 1
 549 393 l 1
 549 694 l 1
 647 694 l 1
 647 0 l 1
 549 0 l 1
EndSplineSet
Position2: "'cpsp' Capital Spacing lookup 0 subtable" dx=7 dy=0 dh=14 dv=0
EndChar

StartChar: I
Encoding: 73 73 42
Width: 295
GlyphClass: 2
Flags: HMW
LayerCount: 2
Fore
SplineSet
97 0 m 1
 97 694 l 1
 196 694 l 1
 196 0 l 1
 97 0 l 1
EndSplineSet
Position2: "'cpsp' Capital Spacing lookup 0 subtable" dx=7 dy=0 dh=14 dv=0
EndChar

StartChar: J
Encoding: 74 74 43
Width: 502
GlyphClass: 2
Flags: HMW
LayerCount: 2
Fore
SplineSet
413 150 m 2
 413 35.8994140625 338.717773438 -22 223.5 -22 c 128
 164.5 -22 104.666992188 -7.6669921875 44 21 c 1
 60 102 l 1
 96.6669921875 63.3330078125 142 44 196 44 c 0
 272.939453125 44 317 78.287109375 317 153 c 2
 317 694 l 1
 413 694 l 1
 413 150 l 2
EndSplineSet
Position2: "'cpsp' Capital Spacing lookup 0 subtable" dx=7 dy=0 dh=14 dv=0
EndChar

StartChar: K
Encoding: 75 75 44
Width: 738
GlyphClass: 2
Flags: HMW
LayerCount: 2
Fore
SplineSet
588 0 m 1
 331 360 l 1
 195 227 l 1
 195 0 l 1
 100 0 l 1
 100 694 l 1
 195 694 l 1
 195 329 l 1
 572 694 l 1
 677 694 l 1
 393 419 l 1
 690 0 l 1
 588 0 l 1
EndSplineSet
Position2: "'cpsp' Capital Spacing lookup 0 subtable" dx=7 dy=0 dh=14 dv=0
EndChar

StartChar: L
Encoding: 76 76 45
Width: 578
GlyphClass: 2
Flags: HMW
LayerCount: 2
Fore
SplineSet
97 0 m 1
 97 694 l 1
 196 694 l 1
 196 69 l 1
 245 69 l 1
 528 71 l 1
 528 0 l 1
 97 0 l 1
EndSplineSet
Position2: "'cpsp' Capital Spacing lookup 0 subtable" dx=7 dy=0 dh=14 dv=0
EndChar

StartChar: M
Encoding: 77 77 46
Width: 927
GlyphClass: 2
Flags: HMW
LayerCount: 2
Fore
SplineSet
461 103 m 1
 471.666992188 139.666992188 503.666992188 224 557 356 c 2
 694 694 l 1
 818 694 l 1
 818 0 l 1
 731 0 l 1
 731 604 l 1
 721.666992188 575.333007812 708.333007812 539 691 495 c 2
 500 22 l 1
 420 22 l 1
 264 410 l 2
 226 504 202.333007812 567.666992188 193 601 c 1
 193 0 l 1
 105 0 l 1
 105 694 l 1
 228 694 l 1
 297.362304688 529.696289062 362.515625 361.181640625 430 195 c 0
 444 159 454.333007812 128.333007812 461 103 c 1
EndSplineSet
Position2: "'cpsp' Capital Spacing lookup 0 subtable" dx=7 dy=0 dh=14 dv=0
EndChar

StartChar: N
Encoding: 78 78 47
Width: 750
GlyphClass: 2
Flags: HMW
LayerCount: 2
Fore
SplineSet
559 82 m 1
 559 694 l 1
 646 694 l 1
 646 0 l 1
 512 0 l 1
 187 612 l 1
 187 0 l 1
 100 0 l 1
 100 694 l 1
 235 694 l 1
 559 82 l 1
EndSplineSet
Position2: "'cpsp' Capital Spacing lookup 0 subtable" dx=7 dy=0 dh=14 dv=0
EndChar

StartChar: O
Encoding: 79 79 48
Width: 785
GlyphClass: 2
Flags: HMW
LayerCount: 2
Fore
SplineSet
719 345 m 0
 719 247.666992188 687.833007812 162.166992188 625.5 88.5 c 128
 563.166992188 14.8330078125 484.166992188 -22 388.5 -22 c 128
 292.833007812 -22 213.333007812 16 150 92 c 0
 89.3330078125 163.333007812 59 247.833007812 59 345.5 c 128
 59 443.166992188 90 529.333007812 152 604 c 128
 214 678.666992188 291.333007812 716 384 716 c 128
 476.666992188 716 555.666992188 680 621 608 c 0
 665.666992188 558.666992188 694 514.333007812 706 475 c 0
 714.666992188 448.333007812 719 405 719 345 c 0
562 555 m 0
 518 616.333007812 460.166992188 647 388.5 647 c 128
 316.833007812 647 259.333007812 616 216 554 c 0
 177.333007812 498.666992188 158 432.833007812 158 356.5 c 128
 158 280.166992188 176.333007812 212.333007812 213 153 c 0
 256.333007812 83 315 48 389 48 c 256
 463 48 521.666992188 83 565 153 c 0
 601.666992188 213 620 281.166992188 620 357.5 c 128
 620 433.833007812 600.666992188 499.666992188 562 555 c 0
EndSplineSet
Position2: "'cpsp' Capital Spacing lookup 0 subtable" dx=7 dy=0 dh=14 dv=0
EndChar

StartChar: P
Encoding: 80 80 49
Width: 679
GlyphClass: 2
Flags: HMW
LayerCount: 2
Fore
SplineSet
370 287 m 2
 197 287 l 1
 197 0 l 1
 98 0 l 1
 98 694 l 1
 362 694 l 2
 426.666666667 694 483.333333333 676.333333333 532 641 c 0
 586.666666667 602.333333333 614 552.5 614 491.5 c 256
 614 430.5 588.833333333 381.166666667 538.5 343.5 c 256
 488.166666667 305.833333333 432 287 370 287 c 2
523 491.5 m 256
 523 584.563546308 437.861925595 633 339 633 c 2
 194 633 l 1
 194 349 l 1
 339 349 l 2
 388.333333333 349 431.333333333 361 468 385 c 256
 504.666666667 409 523 444.5 523 491.5 c 256
EndSplineSet
Position2: "'cpsp' Capital Spacing lookup 0 subtable" dx=7 dy=0 dh=14 dv=0
EndChar

StartChar: Q
Encoding: 81 81 50
Width: 785
GlyphClass: 2
Flags: HMW
LayerCount: 2
Fore
SplineSet
566 34 m 1
 693 -125 l 1
 578 -125 l 1
 488 -5 l 1
 456 -17 422.666992188 -23 388 -23 c 0
 292.666992188 -23 214 14 152 88 c 128
 90 162 59 247.833007812 59 345.5 c 128
 59 443.166992188 90 529.333007812 152 604 c 128
 214 678.666992188 293 716 389 716 c 256
 485 716 564.666992188 677.333007812 628 600 c 0
 688.666992188 527.333007812 719 442.333007812 719 345 c 0
 719 214.333007812 668 110.666992188 566 34 c 1
565 548 m 0
 521 614 462.333007812 647 389 647 c 128
 315.666992188 647 257 613.666992188 213 547 c 0
 174.333007812 488.333007812 155 420.666992188 155 344 c 128
 155 267.333007812 174.333007812 200.666992188 213 144 c 0
 257 78.6669921875 315.666992188 46 389 46 c 0
 411.666992188 46 430 48.6669921875 444 54 c 1
 337 197 l 1
 437 197 l 1
 519 94 l 1
 588.333007812 154.666992188 623 238.333007812 623 345 c 0
 623 422.333007812 603.666992188 490 565 548 c 0
EndSplineSet
Position2: "'cpsp' Capital Spacing lookup 0 subtable" dx=7 dy=0 dh=14 dv=0
EndChar

StartChar: R
Encoding: 82 82 51
Width: 688
GlyphClass: 2
Flags: HMW
LayerCount: 2
Fore
SplineSet
621 507 m 0
 621 410.065455113 529.180470308 349.84430384 444 325 c 1
 653 0 l 1
 553 0 l 1
 356 315 l 1
 194 315 l 1
 194 0 l 1
 98 0 l 1
 98 694 l 1
 354 694 l 2
 417.333333333 694 475 679 527 649 c 0
 589.666666667 613 621 565.666666667 621 507 c 0
342 380 m 2
 436.963637102 380 531 419.88209396 531 506.5 c 256
 531 550.166666667 509 583.333333333 465 606 c 0
 430.333333333 624 389.333333333 633 342 633 c 2
 194 633 l 1
 194 380 l 1
 342 380 l 2
EndSplineSet
Position2: "'cpsp' Capital Spacing lookup 0 subtable" dx=7 dy=0 dh=14 dv=0
EndChar

StartChar: S
Encoding: 83 83 52
Width: 590
GlyphClass: 2
Flags: HMW
LayerCount: 2
Fore
SplineSet
293 -22 m 0
 207.666992188 -22 125.666992188 1.3330078125 47 48 c 1
 64 134 l 1
 133.333007812 79.3330078125 209.333007812 52 292 52 c 0
 331.333007812 52 366.166992188 63.6669921875 396.5 87 c 256
 426.833007812 110.333007812 442 141 442 179 c 256
 442 217 427.666992188 247.666992188 399 271 c 0
 377.666992188 287.666992188 341.5 302 290.5 314 c 256
 239.5 326 203 336.5 181 345.5 c 256
 159 354.5 138 369.333007812 118 390 c 0
 79.3330078125 428.666992188 60 471.333007812 60 518 c 0
 60 578 84.5 626 133.5 662 c 256
 182.5 698 240.166992188 716 306.5 716 c 256
 372.833007812 716 435.666992188 699 495 665 c 1
 478 580 l 1
 423.333007812 623.333007812 363.666992188 645 299 645 c 0
 261 645 226.333007812 634.833007812 195 614.5 c 256
 163.666992188 594.166992188 148 567 148 533 c 256
 148 499 159.333007812 473 182 455 c 256
 204.666992188 437 240.666992188 422.333007812 290 411 c 256
 339.333007812 399.666992188 372.666992188 390.333007812 390 383 c 0
 468.142578125 352.700195312 531 282.287109375 531 183.5 c 256
 531 125.833007812 507 77.1669921875 459 37.5 c 256
 411 -2.1669921875 355.666992188 -22 293 -22 c 0
EndSplineSet
Position2: "'cpsp' Capital Spacing lookup 0 subtable" dx=7 dy=0 dh=14 dv=0
EndChar

StartChar: T
Encoding: 84 84 53
Width: 726
GlyphClass: 2
Flags: HMW
LayerCount: 2
Fore
SplineSet
682 619 m 1
 546 619 546 619 410 619 c 1
 410 0 l 1
 311 0 l 1
 311 619 l 1
 174.5 619 174.5 619 38 619 c 1
 38 688 l 1
 682 688 l 1
 682 619 l 1
EndSplineSet
Position2: "'cpsp' Capital Spacing lookup 0 subtable" dx=7 dy=0 dh=14 dv=0
EndChar

StartChar: U
Encoding: 85 85 54
Width: 729
GlyphClass: 2
Flags: HMW
LayerCount: 2
Fore
SplineSet
549.5 51.5 m 128
 498.5 2.5 436.5 -22 363.5 -22 c 128
 290.5 -22 227.833007812 2.5 175.5 51.5 c 128
 123.166992188 100.5 97 161.333007812 97 234 c 2
 97 694 l 1
 196 694 l 1
 196 233 l 2
 196 178.333007812 210.833007812 132.333007812 240.5 95 c 128
 270.166992188 57.6669921875 311.833007812 39 365.5 39 c 128
 419.166992188 39 461.5 57.6669921875 492.5 95 c 128
 523.5 132.333007812 539 178.333007812 539 233 c 2
 539 694 l 1
 626 694 l 1
 626 234 l 2
 626 161.333007812 600.5 100.5 549.5 51.5 c 128
EndSplineSet
Position2: "'cpsp' Capital Spacing lookup 0 subtable" dx=7 dy=0 dh=14 dv=0
EndChar

StartChar: V
Encoding: 86 86 55
Width: 708
GlyphClass: 2
Flags: HMW
LayerCount: 2
Fore
SplineSet
361 83 m 1
 370.333007812 118.333007812 405 208.333007812 465 353 c 2
 605 694 l 1
 692 694 l 1
 404 0 l 1
 304 0 l 1
 15 694 l 1
 118 694 l 1
 300 248 l 2
 332.666992188 169.333007812 353 114.333007812 361 83 c 1
EndSplineSet
Position2: "'cpsp' Capital Spacing lookup 0 subtable" dx=7 dy=0 dh=14 dv=0
EndChar

StartChar: W
Encoding: 87 87 56
Width: 1004
GlyphClass: 2
Flags: HMW
LayerCount: 2
Fore
SplineSet
724 86 m 1
 732 130 759.333007812 228 806 380 c 2
 902 694 l 1
 983 694 l 1
 768 0 l 1
 673 0 l 1
 552 400 l 2
 522.666992188 496.666992188 504 565.333007812 496 606 c 1
 488 564 464 477.333007812 424 346 c 2
 319 0 l 1
 230 0 l 1
 15 694 l 1
 111 694 l 1
 246 246 l 2
 264.666992188 184.666992188 277.666992188 132.666992188 285 90 c 1
 293 138.666992188 319.333007812 236 364 382 c 2
 459 694 l 1
 548 694 l 1
 651 354 l 2
 691.086914062 220.376953125 715.419921875 131.043945312 724 86 c 1
EndSplineSet
Position2: "'cpsp' Capital Spacing lookup 0 subtable" dx=7 dy=0 dh=14 dv=0
EndChar

StartChar: X
Encoding: 88 88 57
Width: 708
GlyphClass: 2
Flags: HMW
LayerCount: 2
Fore
SplineSet
579 0 m 1
 347 302 l 1
 122 0 l 1
 15 0 l 1
 299 366 l 1
 29 694 l 1
 145 694 l 1
 347 437 l 1
 543 694 l 1
 651 694 l 1
 396 366 l 1
 695 0 l 1
 579 0 l 1
EndSplineSet
Position2: "'cpsp' Capital Spacing lookup 0 subtable" dx=7 dy=0 dh=14 dv=0
EndChar

StartChar: Y
Encoding: 89 89 58
Width: 708
GlyphClass: 2
Flags: HMW
LayerCount: 2
Fore
SplineSet
402 277 m 1
 402 0 l 1
 307 0 l 1
 307 278 l 1
 3 694 l 1
 120 694 l 1
 328 405 l 2
 336 393.666992188 348 376 364 352 c 1
 426 443 l 2
 434.666992188 455.666992188 495 539.333007812 607 694 c 1
 706 694 l 1
 402 277 l 1
EndSplineSet
Position2: "'cpsp' Capital Spacing lookup 0 subtable" dx=7 dy=0 dh=14 dv=0
EndChar

StartChar: Z
Encoding: 90 90 59
Width: 649
GlyphClass: 2
Flags: HMW
LayerCount: 2
Fore
SplineSet
461 628 m 1
 389.53125 628 335.939453125 627 285 627 c 2
 73 627 l 1
 73 694 l 1
 587 694 l 1
 587 650 l 1
 185 69 l 1
 214 69 l 1
 594 70 l 1
 594 0 l 1
 59 0 l 1
 59 46 l 1
 461 628 l 1
EndSplineSet
Position2: "'cpsp' Capital Spacing lookup 0 subtable" dx=7 dy=0 dh=14 dv=0
EndChar

StartChar: bracketleft
Encoding: 91 91 60
Width: 309
GlyphClass: 2
Flags: HMW
LayerCount: 2
Fore
SplineSet
107 -250 m 1
 107 750 l 1
 285 750 l 1
 285 684 l 1
 188 684 l 1
 188 -184 l 1
 285 -184 l 1
 285 -250 l 1
 107 -250 l 1
EndSplineSet
EndChar

StartChar: backslash
Encoding: 92 92 61
Width: 531
GlyphClass: 2
Flags: HMW
LayerCount: 2
Fore
SplineSet
447 -250 m 0
 436.333007812 -250 428 -242 422 -226 c 2
 59 727 l 1
 59 742.333007812 67 750 83 750 c 0
 93.6669921875 750 102 742 108 726 c 2
 471 -227 l 1
 471 -242.333007812 463 -250 447 -250 c 0
EndSplineSet
EndChar

StartChar: bracketright
Encoding: 93 93 62
Width: 309
GlyphClass: 2
Flags: HMW
LayerCount: 2
Fore
SplineSet
23 -250 m 1
 23 -184 l 1
 120 -184 l 1
 120 684 l 1
 23 684 l 1
 23 750 l 1
 201 750 l 1
 201 -250 l 1
 23 -250 l 1
EndSplineSet
EndChar

StartChar: asciicircum
Encoding: 94 94 63
Width: 556
GlyphClass: 2
Flags: HMW
LayerCount: 2
Fore
SplineSet
582 561 m 1
 295 681 l 1
 9 561 l 1
 -5 587 l 1
 296 744 l 1
 597 587 l 1
 582 561 l 1
EndSplineSet
EndChar

StartChar: underscore
Encoding: 95 95 64
Width: 708
GlyphClass: 2
Flags: HMW
LayerCount: 2
Fore
SplineSet
0 -164 m 1
 0 -86 l 1
 706 -86 l 1
 706 -164 l 1
 0 -164 l 1
EndSplineSet
EndChar

StartChar: grave
Encoding: 96 96 65
Width: 531
GlyphClass: 2
Flags: HMW
LayerCount: 2
Fore
SplineSet
278 527 m 1
 116 694 l 1
 205 694 l 1
 348 527 l 1
 278 527 l 1
EndSplineSet
EndChar

StartChar: a
Encoding: 97 97 66
Width: 510
GlyphClass: 2
Flags: HMW
LayerCount: 2
Fore
SplineSet
251.5 461 m 128
 356.743164062 461 433 391.622070312 433 288 c 2
 433 0 l 1
 349 0 l 1
 349 33 l 1
 306.333007812 3.6669921875 249 -11 177 -11 c 0
 106.229492188 -11 55 42.98046875 55 114 c 0
 55 164 93.6669921875 200.333007812 171 223 c 0
 220.333007812 237.666992188 278.666992188 245.666992188 346 247 c 1
 346 287 l 2
 346 345.26953125 315.176757812 398 257 398 c 0
 201 398 147.333007812 380.666992188 96 346 c 1
 90 417 l 1
 143.333007812 446.333007812 197.166992188 461 251.5 461 c 128
136 116 m 0
 136 73.0458984375 187.62109375 54 231 54 c 0
 307.666992188 54 346 80.3330078125 346 133 c 2
 346 192 l 1
 206 185.333007812 136 160 136 116 c 0
EndSplineSet
Substitution2: "'smcp' Lowercase to Small Capitals lookup 16 subtable" A.sc
EndChar

StartChar: b
Encoding: 98 98 67
Width: 549
GlyphClass: 2
Flags: HMW
LayerCount: 2
Fore
SplineSet
311 -11 m 0
 261.666992188 -11 215.666992188 7 173 43 c 1
 173 0 l 1
 85 0 l 1
 85 694 l 1
 169 694 l 1
 169 401 l 1
 219 438.333007812 272.833007812 457 330.5 457 c 128
 388.166992188 457 433.333007812 430.666992188 466 378 c 0
 494.666992188 332.666992188 509 280.5 509 221.5 c 128
 509 162.5 490.666992188 109 454 61 c 128
 417.333007812 13 369.666992188 -11 311 -11 c 0
275.5 55 m 128
 366.022460938 55 421 131.575195312 421 223 c 128
 421 270.333007812 409.166992188 310.166992188 385.5 342.5 c 128
 361.833007812 374.833007812 327.166992188 391 281.5 391 c 128
 235.833007812 391 199.666992188 372 173 334 c 1
 173 116 l 1
 197 75.3330078125 231.166992188 55 275.5 55 c 128
EndSplineSet
Substitution2: "'smcp' Lowercase to Small Capitals lookup 16 subtable" B.sc
EndChar

StartChar: c
Encoding: 99 99 68
Width: 472
GlyphClass: 2
Flags: HMW
LayerCount: 2
Fore
SplineSet
123 223 m 0
 123 131.6171875 178.103515625 57 267 57 c 0
 327 57 382.333007812 75.6669921875 433 113 c 1
 439 41 l 1
 386.333007812 6.3330078125 328.166992188 -11 264.5 -11 c 128
 200.833007812 -11 146.833007812 11.6669921875 102.5 57 c 128
 58.1669921875 102.333007812 36 158 36 224 c 128
 36 290 58.1669921875 346 102.5 392 c 128
 146.833007812 438 202.666992188 461 270 461 c 0
 325.333007812 461 380 446.333007812 434 417 c 1
 421 348 l 1
 371.666992188 378 321.666992188 393 271 393 c 0
 240.333007812 393 212.833007812 384.833007812 188.5 368.5 c 0
 144.833007812 339.189453125 123 290.689453125 123 223 c 0
EndSplineSet
Substitution2: "'smcp' Lowercase to Small Capitals lookup 16 subtable" C.sc
EndChar

StartChar: d
Encoding: 100 100 69
Width: 549
GlyphClass: 2
Flags: HMW
LayerCount: 2
Fore
SplineSet
372 0 m 1
 372 48 l 1
 327.333007812 8.6669921875 276.666992188 -11 220 -11 c 256
 163.333007812 -11 118.5 13.1669921875 85.5 61.5 c 256
 52.5 109.833007812 36 163.666992188 36 223 c 256
 36 282.333007812 52.3330078125 334.666992188 85 380 c 0
 121 431.333007812 167 457 223 457 c 256
 279 457 329.666992188 439.666992188 375 405 c 1
 375 694 l 1
 459 694 l 1
 459 0 l 1
 372 0 l 1
262 55 m 0
 309.930664062 55 372 92.3251953125 372 140 c 2
 372 338 l 1
 346 373.333007812 311.166992188 391 267.5 391 c 256
 177.618164062 391 123 313.739257812 123 222.5 c 256
 123 130.400390625 170.681640625 55 262 55 c 0
EndSplineSet
Substitution2: "'smcp' Lowercase to Small Capitals lookup 16 subtable" D.sc
EndChar

StartChar: e
Encoding: 101 101 70
Width: 472
GlyphClass: 2
Flags: HMW
LayerCount: 2
Fore
SplineSet
114 217 m 1
 117.866210938 130.654296875 176.45703125 54 266 54 c 0
 324 54 377.666992188 73.3330078125 427 112 c 1
 434 42 l 1
 382.666992188 6.6669921875 325.333007812 -11 262 -11 c 128
 198.666992188 -11 145 12.1669921875 101 58.5 c 128
 57 104.833007812 35 160 35 224 c 128
 35 288 55.3330078125 343.5 96 390.5 c 128
 136.666992188 437.5 189 461 253 461 c 128
 381.438476562 461 438 355.28125 438 217 c 1
 114 217 l 1
373 276 m 1
 362.122070312 340.05859375 322.827148438 396 251 396 c 128
 179.899414062 396 134.469726562 335.084960938 120 276 c 1
 373 276 l 1
EndSplineSet
Substitution2: "'smcp' Lowercase to Small Capitals lookup 16 subtable" E.sc
EndChar

StartChar: f
Encoding: 102 102 71
Width: 325
GlyphClass: 2
Flags: HMW
LayerCount: 2
Fore
SplineSet
106 533 m 2
 106 632.426757812 183.706054688 705 283 705 c 0
 308.333007812 705 337.333007812 701.333007812 370 694 c 1
 370 621 l 1
 340.666992188 633 313.833007812 639 289.5 639 c 128
 265.166992188 639 243.666992188 635 225 627 c 0
 199.666992188 616.333007812 187 594.666992188 187 562 c 2
 187 446 l 1
 306 446 l 1
 306 383 l 1
 190 383 l 1
 190 0 l 1
 106 0 l 1
 106 383 l 1
 29 383 l 1
 29 446 l 1
 106 446 l 1
 106 533 l 2
EndSplineSet
Substitution2: "'smcp' Lowercase to Small Capitals lookup 16 subtable" F.sc
EndChar

StartChar: g
Encoding: 103 103 72
Width: 531
GlyphClass: 2
Flags: HMW
LayerCount: 2
Fore
SplineSet
65 297.5 m 128
 65 380.774414062 145.43359375 455 229 455 c 128
 271.666992188 455 307 444.666992188 335 424 c 1
 387 444.666992188 443 455 503 455 c 1
 515 387 l 1
 484.333007812 389 463.666992188 390 453 390 c 128
 436.306640625 390 389.872070312 387 374 387 c 1
 395.333007812 357.666992188 406 325.666992188 406 291 c 0
 406 198.318359375 327.522460938 126 235 126 c 0
 200.333007812 126 168.666992188 135.333007812 140 154 c 1
 134 146 131 135.333007812 131 122 c 0
 131 88.6669921875 150.333007812 72 189 72 c 2
 281 72 l 2
 297.666992188 72 321.666992188 70.3330078125 353 67 c 128
 384.333007812 63.6669921875 416.666992188 51.8330078125 450 31.5 c 128
 483.333007812 11.1669921875 500 -22.1669921875 500 -68.5 c 128
 500 -114.833007812 470.666992188 -150.666992188 412 -176 c 0
 366.666992188 -196 317.666992188 -206 265 -206 c 128
 212.333007812 -206 163.333007812 -196 118 -176 c 0
 59.3330078125 -150.666992188 30 -115.833007812 30 -71.5 c 128
 30 -27.1669921875 52 7.6669921875 96 33 c 1
 78.6669921875 54.3330078125 70 79.5 70 108.5 c 128
 70 137.5 80 165.333007812 100 192 c 1
 76.6669921875 220.666992188 65 255.833007812 65 297.5 c 128
327 298 m 128
 327 351.725585938 291.487304688 393 235.5 393 c 128
 175.98828125 393 144 350.408203125 144 291 c 256
 144 233.603515625 175.564453125 188 232 188 c 128
 259.333007812 188 280.666992188 195 296 209 c 128
 326.505859375 236.852539062 327 242.90625 327 298 c 128
265 -144 m 256
 327.556640625 -144 421 -122.079101562 421 -71 c 0
 421 -27 374.666992188 -5 282 -5 c 2
 188 -5 l 2
 139.84375 -5 109 -28.9990234375 109 -70 c 0
 109 -122.06640625 201.780273438 -144 265 -144 c 256
EndSplineSet
Substitution2: "'smcp' Lowercase to Small Capitals lookup 16 subtable" G.sc
EndChar

StartChar: h
Encoding: 104 104 73
Width: 549
GlyphClass: 2
Flags: HMW
LayerCount: 2
Fore
SplineSet
274 391 m 0
 202.764648438 391 171 322.859375 171 246 c 2
 171 0 l 1
 83 0 l 1
 83 694 l 1
 167 694 l 1
 167 390 l 1
 206.333007812 434.666992188 255.333007812 457 314 457 c 0
 411.333007812 457 460 404 460 298 c 2
 460 0 l 1
 373 0 l 1
 373 291 l 2
 373 360.443359375 344.35546875 391 274 391 c 0
EndSplineSet
Substitution2: "'smcp' Lowercase to Small Capitals lookup 16 subtable" H.sc
EndChar

StartChar: i
Encoding: 105 105 74
Width: 253
GlyphClass: 2
Flags: HMW
LayerCount: 2
Fore
SplineSet
76 562 m 1
 76 655 l 1
 175 655 l 1
 175 562 l 1
 76 562 l 1
82 0 m 1
 82 446 l 1
 166 446 l 1
 166 0 l 1
 82 0 l 1
EndSplineSet
Substitution2: "'smcp' Lowercase to Small Capitals lookup 16 subtable" I.sc
EndChar

StartChar: j
Encoding: 106 106 75
Width: 283
GlyphClass: 2
Flags: HMW
LayerCount: 2
Fore
SplineSet
99 562 m 1
 99 655 l 1
 198 655 l 1
 198 562 l 1
 99 562 l 1
198 -57 m 2
 198 -138.76171875 143.708007812 -205 61 -205 c 128
 19 -205 -23 -193.333007812 -65 -170 c 1
 -41 -104 l 1
 -17 -125.333007812 9.3330078125 -136 38 -136 c 0
 52.6669921875 -136 67.6669921875 -132.666992188 83 -126 c 0
 103.666992188 -117.333007812 114 -97.6669921875 114 -67 c 2
 114 445 l 1
 198 445 l 1
 198 -57 l 2
EndSplineSet
Substitution2: "'smcp' Lowercase to Small Capitals lookup 16 subtable" J.sc
EndChar

StartChar: k
Encoding: 107 107 76
Width: 519
GlyphClass: 2
Flags: HMW
LayerCount: 2
Fore
SplineSet
409 0 m 1
 246 221 l 1
 165 141 l 1
 165 0 l 1
 88 0 l 1
 88 694 l 1
 168 694 l 1
 168 243 l 1
 378 446 l 1
 480 446 l 1
 300 272 l 1
 502 0 l 1
 409 0 l 1
EndSplineSet
Substitution2: "'smcp' Lowercase to Small Capitals lookup 16 subtable" K.sc
EndChar

StartChar: l
Encoding: 108 108 77
Width: 253
GlyphClass: 2
Flags: HMW
LayerCount: 2
Fore
SplineSet
84 0 m 1
 84 694 l 1
 168 694 l 1
 168 0 l 1
 84 0 l 1
EndSplineSet
Substitution2: "'smcp' Lowercase to Small Capitals lookup 16 subtable" L.sc
EndChar

StartChar: m
Encoding: 109 109 78
Width: 844
GlyphClass: 2
Flags: HMW
CounterMasks: 1 38
LayerCount: 2
Fore
SplineSet
374 290 m 2
 374 356.791992188 348.38671875 390 274 390 c 0
 238.666992188 390 212.666992188 375.333007812 196 346 c 256
 179.333007812 316.666992188 171 283 171 245 c 2
 171 0 l 1
 83 0 l 1
 83 450 l 1
 164 450 l 1
 164 384 l 1
 204.666992188 431.333007812 255 455 315 455 c 0
 384.333007812 455 429.333007812 429 450 377 c 1
 489.333007812 429 541.333007812 455 606 455 c 0
 703.333007812 455 752 402.333007812 752 297 c 2
 752 0 l 1
 665 0 l 1
 665 290 l 2
 665 356.791992188 639.38671875 390 565 390 c 0
 529.666992188 390 503.5 375.333007812 486.5 346 c 256
 469.5 316.666992188 461 283 461 245 c 2
 461 0 l 1
 374 0 l 1
 374 290 l 2
EndSplineSet
Substitution2: "'smcp' Lowercase to Small Capitals lookup 16 subtable" M.sc
EndChar

StartChar: n
Encoding: 110 110 79
Width: 549
GlyphClass: 2
Flags: HMW
LayerCount: 2
Fore
SplineSet
274 390 m 0
 202.764648438 390 171 321.859375 171 245 c 2
 171 0 l 1
 83 0 l 1
 83 450 l 1
 164 450 l 1
 164 385 l 1
 204 431.666992188 254 455 314 455 c 0
 411.333007812 455 460 402.333007812 460 297 c 2
 460 0 l 1
 373 0 l 1
 373 290 l 2
 373 359.05078125 343.802734375 390 274 390 c 0
EndSplineSet
Substitution2: "'smcp' Lowercase to Small Capitals lookup 16 subtable" N.sc
EndChar

StartChar: o
Encoding: 111 111 80
Width: 531
GlyphClass: 2
Flags: HMW
LayerCount: 2
Fore
SplineSet
428 56 m 128
 382.666992188 11.3330078125 327.666992188 -11 263 -11 c 128
 198.333007812 -11 143.333007812 11.3330078125 98 56 c 128
 52.6669921875 100.666992188 30 155.666992188 30 221 c 128
 30 286.333007812 52.5 342.666992188 97.5 390 c 128
 142.5 437.333007812 197.833007812 461 263.5 461 c 128
 329.166992188 461 384.333007812 437.333007812 429 390 c 128
 473.666992188 342.666992188 496 286.333007812 496 221 c 128
 496 155.666992188 473.333007812 100.666992188 428 56 c 128
263 396 m 128
 217 396 181.166992188 380 155.5 348 c 128
 129.833007812 316 117 276.5 117 229.5 c 128
 117 182.5 129.666992188 142 155 108 c 128
 180.333007812 74 216.166992188 57 262.5 57 c 128
 308.833007812 57 344.833007812 73.8330078125 370.5 107.5 c 128
 396.166992188 141.166992188 409 181.833007812 409 229.5 c 128
 409 277.166992188 396.166992188 316.833007812 370.5 348.5 c 128
 344.833007812 380.166992188 309 396 263 396 c 128
EndSplineSet
Substitution2: "'smcp' Lowercase to Small Capitals lookup 16 subtable" O.sc
EndChar

StartChar: p
Encoding: 112 112 81
Width: 549
GlyphClass: 2
Flags: HMW
LayerCount: 2
Fore
SplineSet
468 376 m 0
 495.333007812 331.333007812 509 279.333007812 509 220 c 128
 509 160.666992188 490.833007812 107.166992188 454.5 59.5 c 128
 418.166992188 11.8330078125 372.666992188 -12 318 -12 c 128
 263.333007812 -12 215 5.6669921875 173 41 c 1
 173 -194 l 1
 85 -194 l 1
 85 444 l 1
 169 444 l 1
 169 398 l 1
 218.333007812 436 275 455 339 455 c 0
 393 455 436 428.666992188 468 376 c 0
277.5 53 m 128
 359.142578125 53 421 137.602539062 421 220.5 c 128
 421 264.166992188 408.166992188 302.833007812 382.5 336.5 c 128
 356.833007812 370.166992188 322.333007812 387 279 387 c 128
 235.666992188 387 200.333007812 368.333007812 173 331 c 1
 173 132 l 2
 173 118.666992188 176.333007812 107.666992188 183 99 c 0
 206.333007812 68.3330078125 237.833007812 53 277.5 53 c 128
EndSplineSet
Substitution2: "'smcp' Lowercase to Small Capitals lookup 16 subtable" P.sc
EndChar

StartChar: q
Encoding: 113 113 82
Width: 549
GlyphClass: 2
Flags: HMW
LayerCount: 2
Fore
SplineSet
372 -194 m 1
 372 45 l 1
 326 7 274.666992188 -12 218 -12 c 256
 161.333007812 -12 116.833007812 12.1669921875 84.5 60.5 c 256
 52.1669921875 108.833007812 36 162.833007812 36 222.5 c 256
 36 282.166992188 54.1669921875 335.833007812 90.5 383.5 c 256
 126.833007812 431.166992188 174.666992188 455 234 455 c 0
 272.774414062 455 330.940429688 433.6796875 351 415.5 c 256
 361.666992188 405.833007812 369.666992188 398 375 392 c 1
 375 455 l 1
 459 455 l 1
 459 -194 l 1
 372 -194 l 1
375 279 m 2
 375 335.209960938 329.048828125 387 273 387 c 0
 229.666992188 387 193.833007812 370.333007812 165.5 337 c 256
 137.166992188 303.666992188 123 265.166992188 123 221.5 c 256
 123 177.833007812 136 138.833007812 162 104.5 c 256
 188 70.1669921875 221.833007812 53 263.5 53 c 256
 305.166992188 53 339 71.6669921875 365 109 c 0
 371.666992188 118.333007812 375 128.666992188 375 140 c 2
 375 279 l 2
EndSplineSet
Substitution2: "'smcp' Lowercase to Small Capitals lookup 16 subtable" Q.sc
EndChar

StartChar: r
Encoding: 114 114 83
Width: 363
GlyphClass: 2
Flags: HMW
LayerCount: 2
Fore
SplineSet
348 384 m 1
 247.625 381.392578125 169 316.4453125 169 214 c 2
 169 0 l 1
 85 0 l 1
 85 450 l 1
 164 450 l 1
 164 365 l 1
 209.333007812 424.333007812 270.666992188 454.333007812 348 455 c 1
 348 384 l 1
EndSplineSet
Substitution2: "'smcp' Lowercase to Small Capitals lookup 16 subtable" R.sc
EndChar

StartChar: s
Encoding: 115 115 84
Width: 407
GlyphClass: 2
Flags: HMW
LayerCount: 2
Fore
SplineSet
385 129 m 0
 385 31.095703125 310.185546875 -11 205.5 -11 c 128
 151.833007812 -11 93.3330078125 4 30 34 c 1
 44 106 l 1
 96.6669921875 72.6669921875 153.333007812 56 214 56 c 128
 274.666992188 56 305 78 305 122 c 0
 305 131.333007812 301.666992188 141.333007812 295 152 c 0
 274.23046875 185.231445312 217.5703125 189.041992188 164 200 c 128
 91.912109375 214.745117188 36 263.004882812 36 334.5 c 128
 36 424.799804688 117.7890625 461 214.5625 461 c 128
 266.1875 461 317 450 367 428 c 1
 353 359 l 1
 307 385 256 398 200 398 c 128
 144 398 116 378.333007812 116 339 c 0
 116 314.256835938 130.333007812 296.922851562 159 287 c 1
 188.333007812 281.666992188 232 271 290 255 c 0
 306 249 323.666992188 238 343 222 c 1
 346 218 l 1
 372 193.333007812 385 163.666992188 385 129 c 0
EndSplineSet
Substitution2: "'smcp' Lowercase to Small Capitals lookup 16 subtable" S.sc
EndChar

StartChar: t
Encoding: 116 116 85
Width: 384
GlyphClass: 2
Flags: HMW
LayerCount: 2
Fore
SplineSet
198 -11 m 0
 138.666992188 -11 109 32.6669921875 109 120 c 2
 109 383 l 1
 20 383 l 1
 20 445 l 1
 112 445 l 1
 112 571 l 1
 189 571 l 1
 189 445 l 1
 337 445 l 1
 337 383 l 1
 189 383 l 1
 189 137 l 2
 189 83.6669921875 206 57 240 57 c 256
 274 57 306 68.6669921875 336 92 c 1
 355 28 l 1
 302.333007812 2 250 -11 198 -11 c 0
EndSplineSet
Substitution2: "'smcp' Lowercase to Small Capitals lookup 16 subtable" T.sc
EndChar

StartChar: u
Encoding: 117 117 86
Width: 549
GlyphClass: 2
Flags: HMW
LayerCount: 2
Fore
SplineSet
254.5 48 m 256
 320.732421875 48 373 89.23046875 373 155 c 2
 373 444 l 1
 460 444 l 1
 460 0 l 1
 376 0 l 1
 376 44 l 1
 329.333007812 7.3330078125 269.666992188 -11 197 -11 c 0
 121 -11 83 29.3330078125 83 110 c 2
 83 444 l 1
 171 444 l 1
 171 114 l 2
 171 55.8095703125 193.502929688 48 254.5 48 c 256
EndSplineSet
Substitution2: "'smcp' Lowercase to Small Capitals lookup 16 subtable" U.sc
EndChar

StartChar: v
Encoding: 118 118 87
Width: 490
GlyphClass: 2
Flags: HMW
LayerCount: 2
Fore
SplineSet
247 65 m 1
 254.333007812 97 274.666992188 154.333007812 308 237 c 2
 392 444 l 1
 476 444 l 1
 293 0 l 1
 197 0 l 1
 15 444 l 1
 102 444 l 1
 205 186 l 2
 226.333007812 132 240.333007812 91.6669921875 247 65 c 1
EndSplineSet
Substitution2: "'smcp' Lowercase to Small Capitals lookup 16 subtable" V.sc
EndChar

StartChar: w
Encoding: 119 119 88
Width: 726
GlyphClass: 2
Flags: HMW
LayerCount: 2
Fore
SplineSet
513 69 m 1
 518.333007812 99 533.666992188 153.666992188 559 233 c 2
 627 444 l 1
 709 444 l 1
 563 0 l 1
 467 0 l 1
 390 247 l 2
 372.666992188 301.666992188 362 342.333007812 358 369 c 1
 352.666992188 336.333007812 337.666992188 281.666992188 313 205 c 2
 247 0 l 1
 161 0 l 1
 15 444 l 1
 100 444 l 1
 156 271 l 2
 184.666992188 181 202.666992188 114.666992188 210 72 c 1
 215.333007812 109.333007812 232 170.666992188 260 256 c 2
 320 444 l 1
 398 444 l 1
 466 232 l 2
 490.666992188 156.666992188 506.333007812 102.333007812 513 69 c 1
EndSplineSet
Substitution2: "'smcp' Lowercase to Small Capitals lookup 16 subtable" W.sc
EndChar

StartChar: x
Encoding: 120 120 89
Width: 490
GlyphClass: 2
Flags: HMW
LayerCount: 2
Fore
SplineSet
401 0 m 1
 244 184 l 1
 93 0 l 1
 0 0 l 1
 206 229 l 1
 7 444 l 1
 101 444 l 1
 244 282 l 1
 384 444 l 1
 477 444 l 1
 282 229 l 1
 495 0 l 1
 401 0 l 1
EndSplineSet
Substitution2: "'smcp' Lowercase to Small Capitals lookup 16 subtable" X.sc
EndChar

StartChar: y
Encoding: 121 121 90
Width: 490
GlyphClass: 2
Flags: HMW
LayerCount: 2
Fore
SplineSet
253 73 m 1
 262.333007812 128.333007812 308.666992188 252 392 444 c 1
 476 444 l 1
 246 -90 l 2
 221.147460938 -147.26953125 192.521484375 -205 128 -205 c 128
 100 -205 73 -202.333007812 47 -197 c 1
 40 -126 l 1
 70 -137.333007812 98.3330078125 -143 125 -143 c 0
 147.444335938 -143 166.444335938 -124.333007812 182 -87 c 2
 220 1 l 1
 15 444 l 1
 103 444 l 1
 189.450195312 262.15625 239.450195312 138.489257812 253 73 c 1
EndSplineSet
Substitution2: "'smcp' Lowercase to Small Capitals lookup 16 subtable" Y.sc
EndChar

StartChar: z
Encoding: 122 122 91
Width: 462
GlyphClass: 2
Flags: HMW
LayerCount: 2
Fore
SplineSet
233 65 m 2
 240.305664062 65 263.5234375 66 271 66 c 2
 428 66 l 1
 428 0 l 1
 30 0 l 1
 30 44 l 1
 307 382 l 1
 231 382 l 2
 224.478515625 382 199.513671875 381 193 381 c 2
 44 381 l 1
 44 444 l 1
 426 444 l 1
 426 402 l 1
 149 65 l 1
 233 65 l 2
EndSplineSet
Substitution2: "'smcp' Lowercase to Small Capitals lookup 16 subtable" Z.sc
EndChar

StartChar: braceleft
Encoding: 123 123 92
Width: 531
GlyphClass: 2
Flags: HMW
LayerCount: 2
Fore
SplineSet
429 -250 m 0
 369 -250 320 -237.333007812 282 -212 c 0
 234.127929688 -179.654296875 226 -157.2734375 226 -81 c 2
 226 116 l 2
 226 161.333007812 210.833007812 192.5 180.5 209.5 c 0
 146.59765625 228.5 115.431640625 238 87 238 c 0
 79 238 75 242.166992188 75 250.5 c 128
 75 258.833007812 80.6669921875 263 92 263 c 0
 135.333007812 265.666992188 171.333007812 280.333007812 200 307 c 0
 214.666992188 321.666992188 223.333007812 343 226 371 c 1
 226 625 l 2
 226 666.333007812 251 698.666992188 301 722 c 0
 340.333007812 740.666992188 383 750 429 750 c 0
 445 750 453 746 453 738 c 128
 453 730 449 725 441 723 c 0
 399 720.333007812 366.666992188 710.666992188 344 694 c 128
 321.333007812 677.333007812 308.666992188 660.833007812 306 644.5 c 128
 303.333007812 628.166992188 302 600.333007812 302 561 c 2
 302 382 l 2
 302 317.333007812 262.666992188 273.333007812 184 250 c 1
 250.666992188 230 289.333007812 196 300 148 c 0
 301.333007812 141.333007812 302 111 302 57 c 2
 302 -92 l 2
 302 -116 303 -131.666992188 305 -139 c 0
 312.333007812 -165.666992188 328.166992188 -186 352.5 -200 c 0
 380.309570312 -216 409.809570312 -224 441 -224 c 0
 449 -224 453 -228.333007812 453 -237 c 256
 453 -245.666992188 445 -250 429 -250 c 0
EndSplineSet
EndChar

StartChar: bar
Encoding: 124 124 93
Width: 295
GlyphClass: 2
Flags: HMW
LayerCount: 2
Fore
SplineSet
148 -250 m 256
 132 -250 124 -238.333007812 124 -215 c 2
 124 715 l 2
 124 738.333007812 132 750 148 750 c 256
 164 750 172 738.333007812 172 715 c 2
 172 -215 l 2
 172 -238.333007812 164 -250 148 -250 c 256
EndSplineSet
EndChar

StartChar: braceright
Encoding: 125 125 94
Width: 531
GlyphClass: 2
Flags: HMW
LayerCount: 2
Fore
SplineSet
436 237 m 0
 392.666992188 234.333007812 356.666992188 219.666992188 328 193 c 0
 313.333007812 178.333007812 304.666992188 157 302 129 c 1
 302 -125 l 2
 302 -166.333007812 277 -198.666992188 227 -222 c 0
 187.666992188 -240.666992188 145 -250 99 -250 c 0
 83 -250 75 -246 75 -238 c 128
 75 -230 79 -225 87 -223 c 0
 129 -220.333007812 159.666992188 -212 179 -198 c 0
 204.333007812 -178.666992188 218.5 -160.833007812 221.5 -144.5 c 128
 224.5 -128.166992188 226 -100.333007812 226 -61 c 2
 226 118 l 2
 226 182.666992188 265.333007812 226.666992188 344 250 c 1
 277.333007812 270 238.666992188 304 228 352 c 0
 226.666992188 358.666992188 226 389 226 443 c 2
 226 592 l 2
 226 616 225 631.666992188 223 639 c 0
 215.666992188 665.666992188 199.833007812 686 175.5 700 c 0
 147.690429688 716 118.190429688 724 87 724 c 0
 79 724 75 728.333007812 75 737 c 256
 75 745.666992188 83 750 99 750 c 0
 158.333007812 750 207.333007812 737.333007812 246 712 c 0
 293.732421875 681.038085938 302 655.865234375 302 581 c 2
 302 384 l 2
 302 338.666992188 317.166992188 307.5 347.5 290.5 c 0
 381.40234375 271.5 412.568359375 262 441 262 c 0
 449 262 453 257.833007812 453 249.5 c 128
 453 241.166992188 447.333007812 237 436 237 c 0
EndSplineSet
EndChar

StartChar: asciitilde
Encoding: 126 126 95
Width: 556
GlyphClass: 2
Flags: HMW
LayerCount: 2
Fore
SplineSet
532 244 m 1
 501.388671875 222.317382812 442.637695312 193 390 193 c 256
 363.333007812 193 328.5 204.333007812 285.5 227 c 256
 242.5 249.666992188 207 261 179 261 c 0
 132.333007812 261 78.6669921875 238 18 192 c 1
 0 212 l 1
 59 256 l 2
 105 290 151 307 197 307 c 0
 226.333007812 307 262.5 295.666992188 305.5 273 c 128
 348.5 250.333007812 383.666992188 239 411 239 c 0
 458.333007812 239 512 262 572 308 c 1
 590 288 l 1
 532 244 l 1
EndSplineSet
EndChar

StartChar: exclamdown
Encoding: 161 161 97
Width: 337
GlyphClass: 3
Flags: HMW
LayerCount: 2
Fore
SplineSet
123 413 m 1
 123 500 l 1
 216 500 l 1
 216 413 l 1
 123 413 l 1
123 -194 m 1
 132 326 l 1
 207 326 l 1
 207 281 l 1
 216 -194 l 1
 123 -194 l 1
EndSplineSet
Ligature2: "'dlig' Discretionary Ligatures lookup 13 subtable" exclam quoteleft
Ligature2: "'dlig' Discretionary Ligatures lookup 13 subtable" exclam grave
EndChar

StartChar: cent
Encoding: 162 162 98
Width: 472
GlyphClass: 2
Flags: HMW
LayerCount: 2
Fore
SplineSet
221 -7 m 1
 119.737304688 13.0029296875 36 105.455078125 36 223.5 c 256
 36 279.833007812 53 330.166992188 87 374.5 c 128
 121 418.833007812 165.666992188 446.333007812 221 457 c 1
 221 508 l 1
 293 508 l 1
 293 461 l 1
 337.666992188 459 384.666992188 444.666992188 434 418 c 1
 421 348 l 1
 377 374.666992188 334.333007812 389.666992188 293 393 c 1
 293 58 l 1
 344.333007812 63.3330078125 391 81.6669921875 433 113 c 1
 439 40 l 1
 393 10.6669921875 344.333007812 -6 293 -10 c 1
 293 -64 l 1
 221 -64 l 1
 221 -7 l 1
221 385 m 1
 188.333007812 375 163.833007812 354.833007812 147.5 324.5 c 256
 131.166992188 294.166992188 123 260.666992188 123 224 c 256
 123 146.465820312 160.896484375 84.0341796875 221 64 c 1
 221 385 l 1
EndSplineSet
Substitution2: "'onum' Oldstyle Figures lookup 4 subtable" cent.oldstyle
Substitution2: "'aalt' Access All Alternates lookup 0 subtable" cent.oldstyle
EndChar

StartChar: sterling
Encoding: 163 163 99
Width: 708
GlyphClass: 2
Flags: HMW
LayerCount: 2
Fore
SplineSet
486.5 60 m 128
 530.9375 60 548 107.53125 548 152 c 1
 636 152 l 1
 636 105.333007812 622.5 64.6669921875 595.5 30 c 128
 568.5 -4.6669921875 532.333007812 -22 487 -22 c 0
 392.668945312 -22 303.927734375 23.736328125 208.5 17 c 128
 180.166992188 15 159.333007812 6.3330078125 146 -9 c 1
 78 44 l 1
 172.981445312 150.309570312 212.6484375 239.975585938 197 313 c 1
 71 313 l 1
 71 381 l 1
 174 381 l 1
 154 435 l 1
 149.333007812 453 147 470.333007812 147 487 c 0
 147 533 162.333007812 575.333007812 193 614 c 0
 235 667.333007812 290.333007812 694 359 694 c 0
 474.694335938 694 565 602.990234375 565 487 c 1
 478 487 l 1
 478 559.30078125 427.659179688 612 354 612 c 128
 316 612 285 595.666992188 261 563 c 0
 243.666992188 539.666992188 235 514 235 486 c 0
 235 475.333007812 236.166992188 464.5 238.5 453.5 c 128
 240.833007812 442.5 250 418.333007812 266 381 c 1
 426 381 l 1
 426 313 l 1
 285 313 l 1
 286.333007812 302.333007812 287 291.666992188 287 281 c 0
 287 221.666992188 267.666992188 161.666992188 229 101 c 1
 269 100.333007812 316.5 93.3330078125 371.5 80 c 128
 426.5 66.6669921875 464.833007812 60 486.5 60 c 128
EndSplineSet
EndChar

StartChar: currency
Encoding: 164 164 100
Width: 826
GlyphClass: 2
Flags: HMW
LayerCount: 2
Fore
SplineSet
617 25 m 2
 540 96 l 1
 502.666992188 68 459.833007812 54 411.5 54 c 128
 363.166992188 54 319.666992188 68 281 96 c 1
 205 25 l 2
 195 15 185.666992188 10 177 10 c 0
 162.333007812 10 155 16.3330078125 155 29 c 0
 155 39.9853515625 166.067382812 49.078125 172 56 c 2
 248 128 l 1
 218 164 203 204.666992188 203 250 c 256
 203 295.333007812 218 336.333007812 248 373 c 1
 172 444 l 2
 160.666992188 454.666992188 155 464 155 472 c 0
 155 484.666992188 162.333007812 491 177 491 c 0
 185.666992188 491 195 486 205 476 c 2
 282 404 l 1
 320 432 363 446 411 446 c 256
 459 446 502 432 540 404 c 1
 616 475 l 2
 626.666992188 485 636.333007812 490 645 490 c 0
 659 490 666 484 666 472 c 0
 666 464 660.666992188 454.666992188 650 444 c 2
 574 373 l 1
 604 337.666992188 619 296.833007812 619 250.5 c 128
 619 204.166992188 604.333007812 163.333007812 575 128 c 1
 651 56 l 2
 661 46 666 37 666 29 c 0
 666 16.3330078125 659.333007812 10 646 10 c 0
 637.333007812 10 627.666992188 15 617 25 c 2
572 250 m 0
 572 336.350585938 497.787109375 402 411.5 402 c 128
 325.236328125 402 250 336.348632812 250 250 c 256
 250 163.39453125 325.336914062 98 412 98 c 128
 456 98 493.666992188 112.666992188 525 142 c 0
 546.333007812 162.666992188 559.5 179.666992188 564.5 193 c 128
 569.5 206.333007812 572 225.333007812 572 250 c 0
EndSplineSet
EndChar

StartChar: yen
Encoding: 165 165 101
Width: 708
GlyphClass: 2
Flags: HMW
LayerCount: 2
Fore
SplineSet
467 364 m 1
 591 364 l 1
 591 296 l 1
 416 296 l 1
 402 277 l 1
 402 216 l 1
 591 216 l 1
 591 148 l 1
 402 148 l 1
 402 0 l 1
 307 0 l 1
 307 148 l 1
 119 148 l 1
 119 216 l 1
 307 216 l 1
 307 278 l 1
 293 296 l 1
 119 296 l 1
 119 364 l 1
 244 364 l 1
 3 694 l 1
 120 694 l 1
 328 405 l 2
 336.666992188 393.666992188 346 380 356 364 c 1
 373 364 l 1
 426 443 l 2
 433.333007812 454.333007812 439.333007812 463 444 469 c 2
 607 694 l 1
 706 694 l 1
 467 364 l 1
EndSplineSet
EndChar

StartChar: brokenbar
Encoding: 166 166 102
Width: 295
GlyphClass: 2
Flags: HMW
LayerCount: 2
Fore
SplineSet
148 308 m 256
 132 308 124 319.666992188 124 343 c 2
 124 715 l 2
 124 738.333007812 132 750 148 750 c 256
 164 750 172 738.333007812 172 715 c 2
 172 343 l 2
 172 319.666992188 164 308 148 308 c 256
148 -250 m 256
 132 -250 124 -238.333007812 124 -215 c 2
 124 157 l 2
 124 180.333007812 132 192 148 192 c 256
 164 192 172 180.333007812 172 157 c 2
 172 -215 l 2
 172 -238.333007812 164 -250 148 -250 c 256
EndSplineSet
EndChar

StartChar: section
Encoding: 167 167 103
Width: 559
GlyphClass: 2
Flags: HMW
LayerCount: 2
Fore
SplineSet
283 637 m 256
 222.830078125 637 168 594.16015625 168 534 c 0
 168 494 201.666992188 459.333007812 269 430 c 2
 375 385 l 2
 417.666992188 366.333007812 453.5 341.166992188 482.5 309.5 c 256
 511.5 277.833007812 526 241.333007812 526 200 c 0
 526 141.333007812 500.666992188 94 450 58 c 1
 472 30 483 -0.6669921875 483 -34 c 0
 483 -86 462.833007812 -128.666992188 422.5 -162 c 256
 382.166992188 -195.333007812 335.333007812 -212 282 -212 c 256
 228.666992188 -212 181.833007812 -195.833007812 141.5 -163.5 c 256
 101.166992188 -131.166992188 81 -89 81 -37 c 1
 168 -37 l 1
 168 -97.228515625 221.813476562 -137 282 -137 c 256
 342.19921875 -137 396 -94.162109375 396 -34 c 0
 396 6 362.666992188 40.6669921875 296 70 c 2
 190 115 l 2
 147.333007812 133.666992188 111.333007812 158.833007812 82 190.5 c 256
 52.6669921875 222.166992188 38 258.666992188 38 300 c 0
 38 358 63.6669921875 405 115 441 c 1
 92.3330078125 469 81 500 81 534 c 0
 81 586 101.333007812 628.666992188 142 662 c 256
 182.666992188 695.333007812 229.5 712 282.5 712 c 256
 335.5 712 382.166992188 695.833007812 422.5 663.5 c 256
 462.833007812 631.166992188 483 589 483 537 c 1
 396 537 l 1
 396 597.23046875 343.215820312 637 283 637 c 256
339 309 m 2
 233 355 l 2
 214.333007812 363 194.333007812 374 173 388 c 1
 141 368.666992188 125 338.166992188 125 296.5 c 256
 125 254.833007812 158.666992188 219.666992188 226 191 c 2
 332 145 l 2
 348 137.666992188 367.666992188 126.333007812 391 111 c 1
 423 131.666992188 439 161.333007812 439 200 c 0
 439 244 405.666992188 280.333007812 339 309 c 2
EndSplineSet
EndChar

StartChar: dieresis
Encoding: 168 168 104
Width: 531
GlyphClass: 2
Flags: HMW
LayerCount: 2
Fore
SplineSet
291 571 m 1
 291 651 l 1
 380 651 l 1
 380 571 l 1
 291 571 l 1
137 571 m 1
 137 651 l 1
 226 651 l 1
 226 571 l 1
 137 571 l 1
EndSplineSet
EndChar

StartChar: copyright
Encoding: 169 169 105
Width: 694
GlyphClass: 2
Flags: HMW
LayerCount: 2
Fore
SplineSet
625.5 99.5 m 128
 553.166992188 33.1669921875 467.166992188 0 367.5 0 c 128
 267.833007812 0 181.666992188 33.1669921875 109 99.5 c 128
 36.3330078125 165.833007812 0 248.333007812 0 347 c 256
 0 445.666992188 36.3330078125 528.166992188 109 594.5 c 128
 181.666992188 660.833007812 268.333007812 694 369 694 c 128
 469.666992188 694 555.666992188 660 627 592 c 0
 676.333007812 546 707.666992188 504.666992188 721 468 c 0
 729.666992188 443.333007812 734 403 734 347 c 0
 734 248.333007812 697.833007812 165.833007812 625.5 99.5 c 128
367 651 m 256
 279.666992188 651 204.333007812 622 141 564 c 128
 77.6669921875 506 46 433.666992188 46 347 c 256
 46 260.333007812 77.6669921875 188 141 130 c 128
 204.333007812 72 280.166992188 43 368.5 43 c 128
 456.833007812 43 532.333007812 72.6669921875 595 132 c 0
 638.333007812 172.666992188 665.666992188 209 677 241 c 0
 685 262.333007812 689 297.666992188 689 347 c 0
 689 433.666992188 657.166992188 506 593.5 564 c 128
 529.833007812 622 454.333007812 651 367 651 c 256
391 114 m 0
 327.666992188 114 275.333007812 136.833007812 234 182.5 c 128
 192.666992188 228.166992188 172 283 172 347 c 256
 172 411 192.5 466 233.5 512 c 128
 274.5 558 326.666992188 581 390 581 c 0
 432 581 473.333007812 573 514 557 c 1
 504 501 l 1
 465.333007812 523.666992188 424.833007812 535 382.5 535 c 128
 340.166992188 535 305.166992188 515.833007812 277.5 477.5 c 128
 249.833007812 439.166992188 236 395.5 236 346.5 c 128
 236 297.5 250 254 278 216 c 128
 306 178 342.5 159 387.5 159 c 128
 432.5 159 475.666992188 172.666992188 517 200 c 1
 521 150 l 1
 481.666992188 126 438.333007812 114 391 114 c 0
EndSplineSet
EndChar

StartChar: ordfeminine
Encoding: 170 170 106
Width: 396
GlyphClass: 2
Flags: W
HStem: 311 49<72.1406 322.859> 385 47<114.93 265.998> 527 40<148.464 283> 671 45<103.229 261.531>
VStem: 38 68<444.774 498.728> 283 73<393 416 448.489 527 567 650.477>
LayerCount: 2
Fore
SplineSet
201.5 716 m 256
 284.005859375 716 356 675.174804688 356 595 c 2
 356 393 l 1
 285 393 l 1
 285 416 l 1
 249 395.333007812 201.333007812 385 142 385 c 0
 87.6767578125 385 38 418.9140625 38 473 c 0
 38 545.45703125 187.225585938 565.817382812 283 567 c 1
 283 594 l 2
 283 638.563476562 253.306640625 671 209 671 c 0
 161 671 115.666992188 658.666992188 73 634 c 1
 67 685 l 1
 112.333007812 705.666992188 157.166992188 716 201.5 716 c 256
287 311 m 2
 108 311 l 2
 84 311 72 319.166992188 72 335.5 c 256
 72 351.833007812 84 360 108 360 c 2
 287 360 l 2
 311 360 323 351.833007812 323 335.5 c 256
 323 319.166992188 311 311 287 311 c 2
193 432 m 256
 233.7265625 432 283 446.313476562 283 486 c 2
 283 527 l 1
 165 520.333007812 106 502.666992188 106 474 c 0
 106 442.963867188 154.885742188 432 193 432 c 256
EndSplineSet
EndChar

StartChar: guillemotleft
Encoding: 171 171 107
Width: 531
GlyphClass: 2
Flags: HMW
LayerCount: 2
Fore
SplineSet
404 0 m 1
 293 219 l 1
 404 439 l 1
 474 439 l 1
 381 219 l 1
 474 0 l 1
 404 0 l 1
229 0 m 1
 118 219 l 1
 229 439 l 1
 299 439 l 1
 205 219 l 1
 299 0 l 1
 229 0 l 1
EndSplineSet
Substitution2: "'cv04' Character Variants 04 in Greek lookup 24-1" guillemotleft.gr
Substitution2: "'cv03' Character Variants 03 in Cyrillic lookup 23-1" guillemotleft.cyr
EndChar

StartChar: logicalnot
Encoding: 172 172 108
Width: 826
GlyphClass: 2
Flags: HMW
LayerCount: 2
Fore
SplineSet
739 130 m 256
 723 130 715 137.333007812 715 152 c 2
 715 326 l 1
 83 326 l 2
 67 326 59 333.333007812 59 348 c 256
 59 362.666992188 67 370 83 370 c 2
 739 370 l 2
 755 370 763 362.666992188 763 348 c 2
 763 152 l 2
 763 137.333007812 755 130 739 130 c 256
EndSplineSet
EndChar

StartChar: uni00AD
Encoding: 173 173 109
Width: 354
GlyphClass: 2
Flags: HMW
LayerCount: 2
Fore
SplineSet
12 193 m 1
 12 251 l 1
 295 251 l 1
 295 193 l 1
 12 193 l 1
EndSplineSet
EndChar

StartChar: registered
Encoding: 174 174 110
Width: 694
GlyphClass: 2
Flags: HMW
LayerCount: 2
Fore
SplineSet
625.5 99.5 m 128
 553.166992188 33.1669921875 467.166992188 0 367.5 0 c 128
 267.833007812 0 181.666992188 33.1669921875 109 99.5 c 128
 36.3330078125 165.833007812 0 248.333007812 0 347 c 256
 0 445.666992188 36.3330078125 528.166992188 109 594.5 c 128
 181.666992188 660.833007812 268.333007812 694 369 694 c 128
 469.666992188 694 555.666992188 660 627 592 c 0
 676.333007812 546 707.666992188 504.666992188 721 468 c 0
 729.666992188 443.333007812 734 403 734 347 c 0
 734 248.333007812 697.833007812 165.833007812 625.5 99.5 c 128
367 651 m 256
 279.666992188 651 204.333007812 622 141 564 c 128
 77.6669921875 506 46 433.666992188 46 347 c 256
 46 260.333007812 77.6669921875 188 141 130 c 128
 204.333007812 72 280.166992188 43 368.5 43 c 128
 456.833007812 43 532.333007812 72.6669921875 595 132 c 0
 638.333007812 172.666992188 665.666992188 209 677 241 c 0
 685 262.333007812 689 297.666992188 689 347 c 0
 689 433.666992188 657.166992188 506 593.5 564 c 128
 529.833007812 622 454.333007812 651 367 651 c 256
540 448 m 0
 540 385.901367188 480.088867188 347.758789062 429 333 c 1
 560 128 l 1
 495 128 l 1
 371 326 l 1
 270 326 l 1
 270 128 l 1
 208 128 l 1
 208 567 l 1
 370 567 l 2
 410.666992188 567 449.166992188 556.5 485.5 535.5 c 128
 521.833007812 514.5 540 485.333007812 540 448 c 0
363 369 m 2
 421.828125 369 481 394.219726562 481 447.5 c 128
 481 474.5 468.666992188 494.333007812 444 507 c 128
 419.333007812 519.666992188 392.333007812 526 363 526 c 2
 270 526 l 1
 270 369 l 1
 363 369 l 2
EndSplineSet
EndChar

StartChar: macron
Encoding: 175 175 111
Width: 531
GlyphClass: 2
Flags: HMW
LayerCount: 2
Fore
SplineSet
75 567 m 1
 75 631 l 1
 458 631 l 1
 458 567 l 1
 75 567 l 1
EndSplineSet
EndChar

StartChar: degree
Encoding: 176 176 112
Width: 398
GlyphClass: 2
Flags: HMW
LayerCount: 2
Fore
SplineSet
348 555.5 m 128
 348 476.419921875 278.991210938 417 200 417 c 256
 121.004882812 417 52 476.419921875 52 555.5 c 128
 52 634.580078125 121.008789062 694 200 694 c 256
 278.995117188 694 348 634.580078125 348 555.5 c 128
301 555.5 m 128
 301 609.1484375 252.963867188 650 199.5 650 c 128
 145.732421875 650 99 610.09765625 99 556 c 256
 99 501.671875 145.830078125 461 200 461 c 256
 253.896484375 461 301 501.596679688 301 555.5 c 128
EndSplineSet
EndChar

StartChar: plusminus
Encoding: 177 177 113
Width: 826
GlyphClass: 2
Flags: HMW
LayerCount: 2
Fore
SplineSet
725 0 m 2
 96 0 l 2
 71.3330078125 0 59 7.5 59 22.5 c 256
 59 37.5 71.3330078125 45 96 45 c 2
 388 45 l 1
 388 311 l 1
 96 311 l 2
 71.3330078125 311 59 318.333007812 59 333 c 256
 59 347.666992188 71.3330078125 355 96 355 c 2
 388 355 l 1
 388 631 l 2
 388 654.333007812 395.833007812 666 411.5 666 c 256
 427.166992188 666 435 654.333007812 435 631 c 2
 435 355 l 1
 725 355 l 2
 750.333007812 355 763 347.666992188 763 333 c 256
 763 318.333007812 750.333007812 311 725 311 c 2
 435 311 l 1
 435 45 l 1
 725 45 l 2
 750.333007812 45 763 37.5 763 22.5 c 256
 763 7.5 750.333007812 0 725 0 c 2
EndSplineSet
EndChar

StartChar: two.superior
Encoding: 178 178 114
Width: 375
GlyphClass: 2
Flags: W
HStem: 310 46<105 346> 674 42<108.256 243.06>
VStem: 279 67<527.602 641.32>
LayerCount: 2
Fore
SplineSet
279 585 m 256
 279 642.044921875 228.890625 674 171.5 674 c 0
 141.833007812 674 119.666992188 666 105 650 c 0
 90.3330078125 634 78 610.333007812 68 579 c 1
 52.6669921875 595.866210938 40.6669921875 608.200195312 32 616 c 1
 56.6669921875 682.666992188 106.666992188 716 182 716 c 0
 225.333007812 716 263.5 704.666992188 296.5 682 c 0
 329.5 659.333007812 346 627.333007812 346 586 c 0
 346 534.479492188 307.173828125 505.739257812 270 476 c 1
 237 454 l 2
 204.704101562 432.469726562 137.338867188 379.41796875 105 356 c 1
 346 356 l 1
 346 310 l 1
 39 310 l 1
 39 351 l 1
 89.6123046875 390.387695312 139.802734375 430.197265625 192 468 c 0
 202.666992188 475.333007812 217.333007812 487.333007812 236 504 c 0
 264.666992188 530 279 557 279 585 c 256
EndSplineSet
EndChar

StartChar: three.superior
Encoding: 179 179 115
Width: 382
GlyphClass: 2
Flags: W
HStem: 296 42<95.6912 250.772> 502 41<126 189> 677 39<114.389 250.349>
VStem: 264 67<574.603 663.957> 279 72<364.585 475.299>
LayerCount: 2
Fore
SplineSet
252 522 m 1xf0
 298.970703125 509.3984375 351 475.192382812 351 419 c 0
 351 381 334 351 300 329 c 0
 266 307 229.333007812 296 190 296 c 0
 126.666992188 296 74 317.333007812 32 360 c 1
 42 402 l 1
 76.9091796875 359.333007812 125.576171875 338 188 338 c 0
 239.111328125 338 279 368.663085938 279 420.5 c 0xe8
 279 473.811523438 236.440429688 502 183 502 c 2
 126 502 l 1
 126 543 l 1
 189 547 l 1
 225.922851562 553.153320312 264 581.97265625 264 624 c 0
 264 659.333007812 238 677 186 677 c 0
 134 677 96.3330078125 655.333007812 73 612 c 1
 42 648 l 1
 77.3330078125 693.333007812 127 716 191 716 c 0
 256.592773438 716 331 683.1953125 331 624 c 0
 331 581.333007812 304.666992188 547.333007812 252 522 c 1xf0
EndSplineSet
EndChar

StartChar: acute
Encoding: 180 180 116
Width: 531
GlyphClass: 2
Flags: HMW
LayerCount: 2
Fore
SplineSet
261 527 m 1
 191 527 l 1
 334 694 l 1
 423 694 l 1
 261 527 l 1
EndSplineSet
EndChar

StartChar: uni00B5
Encoding: 181 181 117
Width: 549
GlyphClass: 2
Flags: HMW
LayerCount: 2
Fore
SplineSet
255 47 m 256
 323.51953125 47 373 87.7861328125 373 156 c 2
 373 444 l 1
 460 444 l 1
 460 -2 l 1
 376 -2 l 1
 376 43 l 1
 330 6.3330078125 270.333007812 -12 197 -12 c 0
 186.333007812 -12 177.666992188 -11.6669921875 171 -11 c 1
 171 -194 l 1
 83 -194 l 1
 83 444 l 1
 171 444 l 1
 171 115 l 2
 171 55.2080078125 192.12109375 47 255 47 c 256
EndSplineSet
EndChar

StartChar: paragraph
Encoding: 182 182 118
Width: 649
GlyphClass: 2
Flags: HMW
LayerCount: 2
Fore
SplineSet
579 649 m 2
 530 649 l 1
 530 -159 l 2
 530 -182.333007812 522 -194 506 -194 c 256
 490 -194 482 -182.333007812 482 -159 c 2
 482 649 l 1
 414 649 l 1
 414 -159 l 2
 414 -182.333007812 406.166992188 -194 390.5 -194 c 256
 374.833007812 -194 367 -182.333007812 367 -159 c 2
 367 228 l 1
 294.333007812 231.333007812 226.666992188 251 164 287 c 0
 94 327.666992188 59 384 59 456 c 256
 59 528 85.8330078125 585.666992188 139.5 629 c 256
 193.166992188 672.333007812 254.666992188 694 324 694 c 2
 579 694 l 2
 604.333007812 694 617 686.5 617 671.5 c 256
 617 656.5 604.333007812 649 579 649 c 2
EndSplineSet
EndChar

StartChar: periodcentered
Encoding: 183 183 119
Width: 826
GlyphClass: 2
Flags: HMW
LayerCount: 2
Fore
SplineSet
368 306 m 1
 368 389 l 1
 460 389 l 1
 460 306 l 1
 368 306 l 1
EndSplineSet
EndChar

StartChar: cedilla
Encoding: 184 184 120
Width: 472
GlyphClass: 2
Flags: HMW
LayerCount: 2
Fore
SplineSet
231 -192 m 1
 153 -192 l 1
 233 -24 l 1
 303 -24 l 1
 231 -192 l 1
EndSplineSet
EndChar

StartChar: one.superior
Encoding: 185 185 121
Width: 393
GlyphClass: 2
Flags: HMW
LayerCount: 2
Fore
SplineSet
70 310 m 1
 70 349 l 1
 164 349 l 1
 164 651 l 1
 140 643.666992188 107.333007812 639.333007812 66 638 c 1
 66 677 l 1
 132.666992188 679 181 692 211 716 c 1
 229 716 l 1
 229 349 l 1
 324 349 l 1
 324 310 l 1
 70 310 l 1
EndSplineSet
EndChar

StartChar: ordmasculine
Encoding: 186 186 122
Width: 445
GlyphClass: 2
Flags: W
HStem: 311 49<58.1406 383.855> 385 49<147.497 293.849> 670 46<146.884 295.666>
VStem: 25 74<481.572 622.972> 343 74<481.72 624.416>
LayerCount: 2
Fore
SplineSet
417 548 m 256
 417 498.666992188 396.833007812 459.166992188 356.5 429.5 c 0
 316.166992188 399.833007812 270.833007812 385 220.5 385 c 0
 170.166992188 385 125 399.833007812 85 429.5 c 0
 45 459.166992188 25 498.666992188 25 548 c 256
 25 597.333007812 45 637.666992188 85 669 c 0
 125 700.333007812 170.5 716 221.5 716 c 0
 272.5 716 317.833007812 700.333007812 357.5 669 c 0
 397.166992188 637.666992188 417 597.333007812 417 548 c 256
347 311 m 2
 94 311 l 2
 70 311 58 319.166992188 58 335.5 c 0
 58 351.833007812 70 360 94 360 c 2
 347 360 l 2
 371.666992188 360 384 351.833007812 384 335.5 c 0
 384 319.166992188 371.666992188 311 347 311 c 2
343 554 m 256
 343 625.28515625 291.791015625 670 221 670 c 0
 150.75 670 99 623.37890625 99 553 c 0
 99 481.893554688 148.956054688 434 220.5 434 c 0
 292.549804688 434 343 482.053710938 343 554 c 256
EndSplineSet
EndChar

StartChar: guillemotright
Encoding: 187 187 123
Width: 531
GlyphClass: 2
Flags: HMW
LayerCount: 2
Fore
SplineSet
304 0 m 1
 234 0 l 1
 328 219 l 1
 234 439 l 1
 304 439 l 1
 415 219 l 1
 304 0 l 1
129 0 m 1
 59 0 l 1
 152 219 l 1
 59 439 l 1
 129 439 l 1
 240 219 l 1
 129 0 l 1
EndSplineSet
Substitution2: "'cv04' Character Variants 04 in Greek lookup 24-1" guillemotright.gr
Substitution2: "'cv03' Character Variants 03 in Cyrillic lookup 23-1" guillemotright.cyr
EndChar

StartChar: onequarter
Encoding: 188 188 124
Width: 834
GlyphClass: 3
Flags: HMW
LayerCount: 2
Fore
SplineSet
272 20 m 1
 217 20 l 1
 640 674 l 1
 696 674 l 1
 272 20 l 1
688 102 m 1
 688 0 l 1
 623 0 l 1
 623 102 l 1
 424 102 l 1
 424 141 l 1
 616 396 l 1
 688 396 l 1
 688 143 l 1
 763 143 l 1
 763 102 l 1
 688 102 l 1
70 308 m 1
 70 347 l 1
 164 347 l 1
 164 650 l 1
 140 642.666992188 107.333007812 638.333007812 66 637 c 1
 66 677 l 1
 132.666992188 679 181 692 211 716 c 1
 229 716 l 1
 229 347 l 1
 324 347 l 1
 324 308 l 1
 70 308 l 1
628 349 m 1
 613.333007812 315 567.333007812 246.333007812 490 143 c 1
 628 143 l 1
 628 349 l 1
EndSplineSet
Ligature2: "'frac' Diagonal Fractions lookup 3 subtable" one fraction four
Ligature2: "'frac' Diagonal Fractions lookup 3 subtable" one slash four
EndChar

StartChar: onehalf
Encoding: 189 189 125
Width: 834
GlyphClass: 3
Flags: HMW
LayerCount: 2
Fore
SplineSet
521 47 m 1
 561.502929688 47 593.568359375 48 623 48 c 2
 763 48 l 1
 763 0 l 1
 456 0 l 1
 456 41 l 1
 551 117 l 1
 619.086914062 162.391601562 662.75390625 200.724609375 682 232 c 0
 691.333007812 246.666992188 696 262 696 278 c 0
 696 333.92578125 644.366210938 365 588 365 c 128
 558.666992188 365 536.666992188 357.166992188 522 341.5 c 128
 507.333007812 325.833007812 495 302 485 270 c 1
 477 280 468.333007812 289.666992188 459 299 c 2
 449 308 l 1
 473.666992188 375.333007812 523.666992188 409 599 409 c 0
 642.333007812 409 680.5 397.666992188 713.5 375 c 128
 746.5 352.333007812 763 320.333007812 763 279 c 0
 763 249.666992188 749.666992188 222.333007812 723 197 c 0
 703.75 179.5 683.4375 163.625 662.0625 149.375 c 128
 640.6875 135.125 593.666992188 101 521 47 c 1
230 20 m 1
 175 20 l 1
 598 674 l 1
 654 674 l 1
 230 20 l 1
70 308 m 1
 70 347 l 1
 164 347 l 1
 164 650 l 1
 140 642.666992188 107.333007812 638.333007812 66 637 c 1
 66 677 l 1
 132.666992188 679 181 692 211 716 c 1
 229 716 l 1
 229 347 l 1
 324 347 l 1
 324 308 l 1
 70 308 l 1
EndSplineSet
Ligature2: "'frac' Diagonal Fractions lookup 3 subtable" one fraction two
Ligature2: "'frac' Diagonal Fractions lookup 3 subtable" one slash two
EndChar

StartChar: threequarters
Encoding: 190 190 126
Width: 834
GlyphClass: 3
Flags: HMW
LayerCount: 2
Fore
SplineSet
274 20 m 1
 219 20 l 1
 642 674 l 1
 698 674 l 1
 274 20 l 1
690 102 m 1
 690 0 l 1
 625 0 l 1
 625 102 l 1
 426 102 l 1
 426 141 l 1
 618 396 l 1
 690 396 l 1
 690 143 l 1
 765 143 l 1
 765 102 l 1
 690 102 l 1
283 521 m 1
 329.893554688 508.418945312 383 474.139648438 383 418 c 0
 383 380 366 349.833007812 332 327.5 c 256
 298 305.166992188 261 294 221 294 c 0
 158.333007812 294 105.666992188 315.333007812 63 358 c 1
 73 400 l 1
 103.64453125 362.545898438 156.993164062 336 219.5 336 c 256
 271.592773438 336 310 366.881835938 310 419 c 256
 310 472.3359375 269.017578125 501 215 501 c 2
 158 501 l 1
 158 542 l 1
 220 546 l 1
 255.869140625 553.173828125 295 581.514648438 295 623 c 0
 295 659 270.333007812 677 221 677 c 0
 166.487304688 677 125.017578125 649.364257812 104 612 c 1
 74 648 l 1
 108.666992188 693.333007812 158 716 222 716 c 0
 255.333007812 716 287.166992188 708.166992188 317.5 692.5 c 256
 347.833007812 676.833007812 363 653.666992188 363 623 c 0
 363 579.666992188 336.333007812 545.666992188 283 521 c 1
630 349 m 1
 615.333007812 315 569.333007812 246.333007812 492 143 c 1
 630 143 l 1
 630 349 l 1
EndSplineSet
Ligature2: "'frac' Diagonal Fractions lookup 3 subtable" three fraction four
Ligature2: "'frac' Diagonal Fractions lookup 3 subtable" three slash four
EndChar

StartChar: questiondown
Encoding: 191 191 127
Width: 502
GlyphClass: 3
Flags: HMW
LayerCount: 2
Fore
SplineSet
189 413 m 1
 189 500 l 1
 282 500 l 1
 282 413 l 1
 189 413 l 1
146 -52 m 256
 146 -114.938476562 174.064453125 -139 238 -139 c 0
 302 -139 361.333007812 -120.333007812 416 -83 c 1
 442 -151 l 1
 376.666992188 -187 308.333007812 -205 237 -205 c 0
 132.502929688 -205 59 -155.743164062 59 -52.5 c 256
 59 -2.1669921875 76.3330078125 39.3330078125 111 72 c 0
 169 127.333007812 198 192.333007812 198 267 c 2
 198 326 l 1
 273 326 l 1
 273 292 l 2
 273 181.333007812 241 92.6669921875 177 26 c 0
 156.333007812 4.6669921875 146 -21.3330078125 146 -52 c 256
EndSplineSet
Ligature2: "'dlig' Discretionary Ligatures lookup 13 subtable" question quoteleft
Ligature2: "'dlig' Discretionary Ligatures lookup 13 subtable" question grave
EndChar

StartChar: Agrave
Encoding: 192 192 128
Width: 708
GlyphClass: 2
Flags: HMW
LayerCount: 2
Fore
SplineSet
359 742 m 1
 144 868 l 1
 270 868 l 1
 462 742 l 1
 359 742 l 1
575 0 m 1
 496 203 l 1
 194 203 l 1
 113 0 l 1
 30 0 l 1
 306 695 l 1
 402 695 l 1
 678 0 l 1
 575 0 l 1
345 611 m 1
 338.333007812 586.333007812 318.333007812 529.333007812 285 440 c 2
 218 263 l 1
 471 263 l 1
 376 516 l 2
 359.333007812 560 349 591.666992188 345 611 c 1
EndSplineSet
Position2: "'cpsp' Capital Spacing lookup 0 subtable" dx=7 dy=0 dh=14 dv=0
EndChar

StartChar: Aacute
Encoding: 193 193 129
Width: 708
GlyphClass: 2
Flags: HMW
LayerCount: 2
Fore
SplineSet
348 742 m 1
 246 742 l 1
 437 868 l 1
 563 868 l 1
 348 742 l 1
575 0 m 1
 496 203 l 1
 194 203 l 1
 113 0 l 1
 30 0 l 1
 306 695 l 1
 402 695 l 1
 678 0 l 1
 575 0 l 1
345 611 m 1
 338.333007812 586.333007812 318.333007812 529.333007812 285 440 c 2
 218 263 l 1
 471 263 l 1
 376 516 l 2
 359.333007812 560 349 591.666992188 345 611 c 1
EndSplineSet
Position2: "'cpsp' Capital Spacing lookup 0 subtable" dx=7 dy=0 dh=14 dv=0
EndChar

StartChar: Acircumflex
Encoding: 194 194 130
Width: 708
GlyphClass: 2
Flags: HMW
LayerCount: 2
Fore
SplineSet
454 732 m 1
 354 827 l 1
 253 732 l 1
 184 732 l 1
 321 870 l 1
 386 870 l 1
 524 732 l 1
 454 732 l 1
575 0 m 1
 496 203 l 1
 194 203 l 1
 113 0 l 1
 30 0 l 1
 306 695 l 1
 402 695 l 1
 678 0 l 1
 575 0 l 1
345 611 m 1
 338.333007812 586.333007812 318.333007812 529.333007812 285 440 c 2
 218 263 l 1
 471 263 l 1
 376 516 l 2
 359.333007812 560 349 591.666992188 345 611 c 1
EndSplineSet
Position2: "'cpsp' Capital Spacing lookup 0 subtable" dx=7 dy=0 dh=14 dv=0
EndChar

StartChar: Atilde
Encoding: 195 195 131
Width: 708
GlyphClass: 2
Flags: HMW
LayerCount: 2
Fore
SplineSet
532 855 m 1
 530.702148438 790.083007812 492.110351562 732 426 732 c 0
 406 732 381.333007812 741.5 352 760.5 c 128
 322.666992188 779.5 300 789 284 789 c 0
 260 789 247.333007812 770 246 732 c 1
 177 732 l 1
 178.287109375 796.3359375 216.78125 855 282 855 c 0
 302 855 326.666992188 845.333007812 356 826 c 128
 385.333007812 806.666992188 408 797 424 797 c 0
 448 797 460.666992188 816.333007812 462 855 c 1
 532 855 l 1
575 0 m 1
 496 203 l 1
 194 203 l 1
 113 0 l 1
 30 0 l 1
 306 695 l 1
 402 695 l 1
 678 0 l 1
 575 0 l 1
345 611 m 1
 338.333007812 585.666992188 318.333007812 528.666992188 285 440 c 2
 218 263 l 1
 471 263 l 1
 376 516 l 2
 359.333007812 560 349 591.666992188 345 611 c 1
EndSplineSet
Position2: "'cpsp' Capital Spacing lookup 0 subtable" dx=7 dy=0 dh=14 dv=0
EndChar

StartChar: Adieresis
Encoding: 196 196 132
Width: 708
GlyphClass: 2
Flags: HMW
LayerCount: 2
Fore
SplineSet
400 732 m 1
 400 816 l 1
 490 816 l 1
 490 732 l 1
 400 732 l 1
218 732 m 1
 218 816 l 1
 307 816 l 1
 307 732 l 1
 218 732 l 1
575 0 m 1
 496 203 l 1
 194 203 l 1
 113 0 l 1
 30 0 l 1
 306 695 l 1
 402 695 l 1
 678 0 l 1
 575 0 l 1
345 611 m 1
 338.333007812 585.666992188 318.333007812 528.666992188 285 440 c 2
 218 263 l 1
 471 263 l 1
 376 515 l 2
 359.333007812 559.666992188 349 591.666992188 345 611 c 1
EndSplineSet
Position2: "'cpsp' Capital Spacing lookup 0 subtable" dx=7 dy=0 dh=14 dv=0
EndChar

StartChar: Aring
Encoding: 197 197 133
Width: 708
GlyphClass: 2
Flags: HMW
LayerCount: 2
Fore
SplineSet
473 776 m 128
 473 722.680664062 409.7421875 690 352.5 690 c 128
 295.228515625 690 234 722.705078125 234 776 c 128
 234 829.319335938 297.2578125 862 354.5 862 c 128
 411.771484375 862 473 829.294921875 473 776 c 128
575 0 m 1
 496 203 l 1
 194 203 l 1
 113 0 l 1
 30 0 l 1
 306 695 l 1
 402 695 l 1
 678 0 l 1
 575 0 l 1
354 742 m 0
 393.299804688 742 404 743.198242188 404 776 c 0
 404 798.666992188 387.333007812 810 354 810 c 256
 320.666992188 810 304 798.666992188 304 776 c 256
 304 753.333007812 320.666992188 742 354 742 c 0
345 611 m 1
 338.333007812 585.666992188 318.333007812 528.666992188 285 440 c 2
 218 263 l 1
 471 263 l 1
 376 516 l 2
 359.333007812 560 349 591.666992188 345 611 c 1
EndSplineSet
Position2: "'cpsp' Capital Spacing lookup 0 subtable" dx=7 dy=0 dh=14 dv=0
EndChar

StartChar: AE
Encoding: 198 198 134
Width: 915
GlyphClass: 2
Flags: HMW
LayerCount: 2
Fore
SplineSet
716 74 m 2
 723.305664062 74 746.5234375 75 754 75 c 2
 867 75 l 1
 867 0 l 1
 442 0 l 1
 442 220 l 1
 210 220 l 1
 115 0 l 1
 30 0 l 1
 331 694 l 1
 852 694 l 1
 852 624 l 1
 689 624 l 2
 681.5 624 658.315429688 625 651 625 c 2
 540 625 l 1
 540 393 l 1
 823 393 l 1
 823 328 l 1
 540 328 l 1
 540 74 l 1
 716 74 l 2
442 625 m 1
 386 625 l 1
 237 281 l 1
 442 281 l 1
 442 625 l 1
EndSplineSet
Position2: "'cpsp' Capital Spacing lookup 0 subtable" dx=7 dy=0 dh=14 dv=0
EndChar

StartChar: Ccedilla
Encoding: 199 199 135
Width: 679
GlyphClass: 2
Flags: HMW
LayerCount: 2
Fore
SplineSet
415 -23 m 0
 315 -23 232.166666667 13.3333333333 166.5 86 c 256
 100.833333333 158.666666667 68 245.5 68 346.5 c 256
 68 447.5 100.5 534.333333333 165.5 607 c 256
 230.5 679.666666667 313.333333333 716 414 716 c 0
 478 716 543 704 609 680 c 1
 592 594 l 1
 533.333333333 629.333333333 473.666666667 647 413 647 c 0
 337.666666667 647 276.666666667 614.666666667 230 550 c 0
 187.333333333 492 166 423.833333333 166 345.5 c 256
 166 267.166666667 188.5 197.666666667 233.5 137 c 256
 278.5 76.3333333333 339.333333333 46 416 46 c 0
 454 46 486.666666667 49.8333333333 514 57.5 c 128
 541.333333333 65.1666666667 574.333333333 82 613 108 c 1
 620 34 l 1
 582 12 549 -3 521 -11 c 128
 493 -19 457.666666667 -23 415 -23 c 0
350 -214 m 1
 272 -214 l 1
 352 -42 l 1
 422 -42 l 1
 350 -214 l 1
EndSplineSet
Position2: "'cpsp' Capital Spacing lookup 0 subtable" dx=7 dy=0 dh=14 dv=0
EndChar

StartChar: Egrave
Encoding: 200 200 136
Width: 637
GlyphClass: 2
Flags: HMW
LayerCount: 2
Fore
SplineSet
320 742 m 1
 105 868 l 1
 232 868 l 1
 423 742 l 1
 320 742 l 1
196 75 m 1
 300.810546875 75 377.43359375 76 450 76 c 2
 585 76 l 1
 585 0 l 1
 97 0 l 1
 97 692 l 1
 571 692 l 1
 571 622 l 1
 376 622 l 2
 369.478515625 622 344.513671875 623 338 623 c 2
 196 623 l 1
 196 393 l 1
 542 393 l 1
 542 327 l 1
 196 327 l 1
 196 75 l 1
EndSplineSet
Position2: "'cpsp' Capital Spacing lookup 0 subtable" dx=7 dy=0 dh=14 dv=0
EndChar

StartChar: Eacute
Encoding: 201 201 137
Width: 637
GlyphClass: 2
Flags: HMW
LayerCount: 2
Fore
SplineSet
309 742 m 1
 207 742 l 1
 398 868 l 1
 525 868 l 1
 309 742 l 1
196 75 m 1
 300.810546875 75 377.43359375 76 450 76 c 2
 585 76 l 1
 585 0 l 1
 97 0 l 1
 97 692 l 1
 571 692 l 1
 571 622 l 1
 376 622 l 2
 369.478515625 622 344.513671875 623 338 623 c 2
 196 623 l 1
 196 393 l 1
 542 393 l 1
 542 327 l 1
 196 327 l 1
 196 75 l 1
EndSplineSet
Position2: "'cpsp' Capital Spacing lookup 0 subtable" dx=7 dy=0 dh=14 dv=0
EndChar

StartChar: Ecircumflex
Encoding: 202 202 138
Width: 637
GlyphClass: 2
Flags: HMW
LayerCount: 2
Fore
SplineSet
416 732 m 1
 315 827 l 1
 214 732 l 1
 145 732 l 1
 282 870 l 1
 348 870 l 1
 485 732 l 1
 416 732 l 1
196 75 m 1
 300.810546875 75 377.43359375 76 450 76 c 2
 585 76 l 1
 585 0 l 1
 97 0 l 1
 97 692 l 1
 571 692 l 1
 571 622 l 1
 376 622 l 2
 369.478515625 622 344.513671875 623 338 623 c 2
 196 623 l 1
 196 393 l 1
 542 393 l 1
 542 327 l 1
 196 327 l 1
 196 75 l 1
EndSplineSet
Position2: "'cpsp' Capital Spacing lookup 0 subtable" dx=7 dy=0 dh=14 dv=0
EndChar

StartChar: Edieresis
Encoding: 203 203 139
Width: 637
GlyphClass: 2
Flags: HMW
LayerCount: 2
Fore
SplineSet
362 732 m 1
 362 816 l 1
 451 816 l 1
 451 732 l 1
 362 732 l 1
179 732 m 1
 179 816 l 1
 268 816 l 1
 268 732 l 1
 179 732 l 1
196 75 m 1
 300.810546875 75 377.43359375 76 450 76 c 2
 585 76 l 1
 585 0 l 1
 97 0 l 1
 97 692 l 1
 571 692 l 1
 571 622 l 1
 376 622 l 2
 369.478515625 622 344.513671875 623 338 623 c 2
 196 623 l 1
 196 393 l 1
 542 393 l 1
 542 327 l 1
 196 327 l 1
 196 75 l 1
EndSplineSet
Position2: "'cpsp' Capital Spacing lookup 0 subtable" dx=7 dy=0 dh=14 dv=0
EndChar

StartChar: Igrave
Encoding: 204 204 140
Width: 295
GlyphClass: 2
Flags: HMW
LayerCount: 2
Fore
SplineSet
127 742 m 1
 -88 868 l 1
 38 868 l 1
 230 742 l 1
 127 742 l 1
125 0 m 1
 125 695 l 1
 224 695 l 1
 224 0 l 1
 125 0 l 1
EndSplineSet
Position2: "'cpsp' Capital Spacing lookup 0 subtable" dx=7 dy=0 dh=14 dv=0
EndChar

StartChar: Iacute
Encoding: 205 205 141
Width: 295
GlyphClass: 2
Flags: HMW
LayerCount: 2
Fore
SplineSet
200 742 m 1
 97 742 l 1
 289 868 l 1
 415 868 l 1
 200 742 l 1
103 0 m 1
 103 695 l 1
 202 695 l 1
 202 0 l 1
 103 0 l 1
EndSplineSet
Position2: "'cpsp' Capital Spacing lookup 0 subtable" dx=7 dy=0 dh=14 dv=0
EndChar

StartChar: Icircumflex
Encoding: 206 206 142
Width: 295
GlyphClass: 2
Flags: HMW
LayerCount: 2
Fore
SplineSet
263 732 m 1
 162 827 l 1
 61 732 l 1
 -8 732 l 1
 129 870 l 1
 195 870 l 1
 332 732 l 1
 263 732 l 1
112 0 m 1
 112 695 l 1
 211 695 l 1
 211 0 l 1
 112 0 l 1
EndSplineSet
Position2: "'cpsp' Capital Spacing lookup 0 subtable" dx=7 dy=0 dh=14 dv=0
EndChar

StartChar: Idieresis
Encoding: 207 207 143
Width: 295
GlyphClass: 2
Flags: HMW
LayerCount: 2
Fore
SplineSet
187 732 m 1
 187 816 l 1
 276 816 l 1
 276 732 l 1
 187 732 l 1
4 732 m 1
 4 816 l 1
 93 816 l 1
 93 732 l 1
 4 732 l 1
90 0 m 1
 90 695 l 1
 189 695 l 1
 189 0 l 1
 90 0 l 1
EndSplineSet
Position2: "'cpsp' Capital Spacing lookup 0 subtable" dx=7 dy=0 dh=14 dv=0
EndChar

StartChar: Eth
Encoding: 208 208 144
Width: 767
GlyphClass: 2
Flags: HMW
CounterMasks: 1 e0
LayerCount: 2
Fore
SplineSet
373 0 m 2
 94 0 l 1
 94 313 l 1
 12 313 l 1
 12 381 l 1
 94 381 l 1
 94 694 l 1
 372 694 l 2
 465.333007812 694 542.833007812 658.833007812 604.5 588.5 c 256
 666.166992188 518.166992188 697 436 697 342 c 256
 697 248 666 167.5 604 100.5 c 256
 542 33.5 465 0 373 0 c 2
348 633 m 2
 190 633 l 1
 190 381 l 1
 296 381 l 1
 296 313 l 1
 190 313 l 1
 190 61 l 1
 348 61 l 2
 425.333007812 61 486.833007812 88 532.5 142 c 256
 578.166992188 196 601 262.833007812 601 342.5 c 256
 601 422.166992188 578.5 490.5 533.5 547.5 c 256
 488.5 604.5 426.666992188 633 348 633 c 2
EndSplineSet
Position2: "'cpsp' Capital Spacing lookup 0 subtable" dx=7 dy=0 dh=14 dv=0
EndChar

StartChar: Ntilde
Encoding: 209 209 145
Width: 750
GlyphClass: 2
Flags: HMW
LayerCount: 2
Fore
SplineSet
552 855 m 1
 550.702148438 790.083007812 512.110351562 732 446 732 c 0
 426 732 401.333007812 741.5 372 760.5 c 256
 342.666992188 779.5 320 789 304 789 c 0
 280 789 267.333007812 770 266 732 c 1
 197 732 l 1
 198.287109375 796.3359375 236.78125 855 302 855 c 0
 322 855 346.666992188 845.333007812 376 826 c 256
 405.333007812 806.666992188 428 797 444 797 c 0
 468 797 480.666992188 816.333007812 482 855 c 1
 552 855 l 1
559 82 m 1
 559 695 l 1
 646 695 l 1
 646 0 l 1
 512 0 l 1
 187 613 l 1
 187 0 l 1
 100 0 l 1
 100 695 l 1
 235 695 l 1
 559 82 l 1
EndSplineSet
Position2: "'cpsp' Capital Spacing lookup 0 subtable" dx=7 dy=0 dh=14 dv=0
EndChar

StartChar: Ograve
Encoding: 210 210 146
Width: 785
GlyphClass: 2
Flags: HMW
LayerCount: 2
Fore
SplineSet
395 742 m 1
 180 868 l 1
 306 868 l 1
 497 742 l 1
 395 742 l 1
719 345 m 0
 719 247.666992188 687.833007812 162.166992188 625.5 88.5 c 128
 563.166992188 14.8330078125 484.166992188 -22 388.5 -22 c 128
 292.833007812 -22 214 15 152 89 c 128
 90 163 59 248.833007812 59 346.5 c 128
 59 444.166992188 90 530.333007812 152 605 c 128
 214 679.666992188 291.333007812 717 384 717 c 128
 476.666992188 717 555.666992188 681 621 609 c 0
 665.666992188 559 694 514.333007812 706 475 c 0
 714.666992188 449 719 405.666992188 719 345 c 0
562 555 m 0
 518 617 460.166992188 648 388.5 648 c 128
 316.833007812 648 259.333007812 617 216 555 c 0
 177.333007812 499.666992188 158 433.833007812 158 357.5 c 128
 158 281.166992188 176.333007812 213 213 153 c 0
 256.333007812 83 315 48 389 48 c 256
 463 48 521.666992188 83 565 153 c 0
 601.666992188 213 620 281.333007812 620 358 c 128
 620 434.666992188 600.666992188 500.333007812 562 555 c 0
EndSplineSet
Position2: "'cpsp' Capital Spacing lookup 0 subtable" dx=7 dy=0 dh=14 dv=0
EndChar

StartChar: Oacute
Encoding: 211 211 147
Width: 785
GlyphClass: 2
Flags: HMW
LayerCount: 2
Fore
SplineSet
384 742 m 1
 281 742 l 1
 473 868 l 1
 599 868 l 1
 384 742 l 1
719 345 m 0
 719 247.666992188 687.833007812 162.166992188 625.5 88.5 c 128
 563.166992188 14.8330078125 484.166992188 -22 388.5 -22 c 128
 292.833007812 -22 214 15 152 89 c 128
 90 163 59 248.833007812 59 346.5 c 128
 59 444.166992188 90 530.333007812 152 605 c 128
 214 679.666992188 291.333007812 717 384 717 c 128
 476.666992188 717 555.666992188 681 621 609 c 0
 665.666992188 559 694 514.333007812 706 475 c 0
 714.666992188 449 719 405.666992188 719 345 c 0
562 555 m 0
 518 617 460.166992188 648 388.5 648 c 128
 316.833007812 648 259.333007812 617 216 555 c 0
 177.333007812 499.666992188 158 433.833007812 158 357.5 c 128
 158 281.166992188 176.333007812 213 213 153 c 0
 256.333007812 83 315 48 389 48 c 256
 463 48 521.666992188 83 565 153 c 0
 601.666992188 213 620 281.333007812 620 358 c 128
 620 434.666992188 600.666992188 500.333007812 562 555 c 0
EndSplineSet
Position2: "'cpsp' Capital Spacing lookup 0 subtable" dx=7 dy=0 dh=14 dv=0
EndChar

StartChar: Ocircumflex
Encoding: 212 212 148
Width: 785
GlyphClass: 2
Flags: HMW
LayerCount: 2
Fore
SplineSet
490 732 m 1
 389 827 l 1
 289 732 l 1
 220 732 l 1
 357 870 l 1
 422 870 l 1
 559 732 l 1
 490 732 l 1
719 345 m 0
 719 247.666992188 687.833007812 162.166992188 625.5 88.5 c 128
 563.166992188 14.8330078125 484.166992188 -22 388.5 -22 c 128
 292.833007812 -22 214 15 152 89 c 128
 90 163 59 248.833007812 59 346.5 c 128
 59 444.166992188 90 530.333007812 152 605 c 128
 214 679.666992188 291.333007812 717 384 717 c 128
 476.666992188 717 555.666992188 681 621 609 c 0
 665.666992188 559 694 514.333007812 706 475 c 0
 714.666992188 449 719 405.666992188 719 345 c 0
562 555 m 0
 518 617 460.166992188 648 388.5 648 c 128
 316.833007812 648 259.333007812 617 216 555 c 0
 177.333007812 499.666992188 158 433.833007812 158 357.5 c 128
 158 281.166992188 176.333007812 213 213 153 c 0
 256.333007812 83 315 48 389 48 c 256
 463 48 521.666992188 83 565 153 c 0
 601.666992188 213 620 281.333007812 620 358 c 128
 620 434.666992188 600.666992188 500.333007812 562 555 c 0
EndSplineSet
Position2: "'cpsp' Capital Spacing lookup 0 subtable" dx=7 dy=0 dh=14 dv=0
EndChar

StartChar: Otilde
Encoding: 213 213 149
Width: 785
GlyphClass: 2
Flags: HMW
LayerCount: 2
Fore
SplineSet
567 855 m 1
 565.712890625 790.6640625 527.21875 732 462 732 c 0
 442 732 417.333007812 741.5 388 760.5 c 128
 358.666992188 779.5 336 789 320 789 c 0
 296 789 283.333007812 770 282 732 c 1
 212 732 l 1
 213.287109375 796.342773438 252.796875 855 318 855 c 0
 338 855 362.666992188 845.333007812 392 826 c 128
 421.333007812 806.666992188 444 797 460 797 c 0
 484 797 496.666992188 816.333007812 498 855 c 1
 567 855 l 1
719 345 m 0
 719 247.666992188 687.833007812 162.166992188 625.5 88.5 c 128
 563.166992188 14.8330078125 484.166992188 -22 388.5 -22 c 128
 292.833007812 -22 214 15 152 89 c 128
 90 163 59 248.833007812 59 346.5 c 128
 59 444.166992188 90 530.333007812 152 605 c 128
 214 679.666992188 291.333007812 717 384 717 c 128
 476.666992188 717 555.666992188 681 621 609 c 0
 665.666992188 559 694 514.333007812 706 475 c 0
 714.666992188 449 719 405.666992188 719 345 c 0
562 555 m 0
 518 617 460.166992188 648 388.5 648 c 128
 316.833007812 648 259.333007812 617 216 555 c 0
 177.333007812 499.666992188 158 433.833007812 158 357.5 c 128
 158 281.166992188 176.333007812 213 213 153 c 0
 256.333007812 83 315 48 389 48 c 256
 463 48 521.666992188 83 565 153 c 0
 601.666992188 213 620 281.333007812 620 358 c 128
 620 434.666992188 600.666992188 500.333007812 562 555 c 0
EndSplineSet
Position2: "'cpsp' Capital Spacing lookup 0 subtable" dx=7 dy=0 dh=14 dv=0
EndChar

StartChar: Odieresis
Encoding: 214 214 150
Width: 785
GlyphClass: 2
Flags: HMW
LayerCount: 2
Fore
SplineSet
436 732 m 1
 436 816 l 1
 525 816 l 1
 525 732 l 1
 436 732 l 1
253 732 m 1
 253 816 l 1
 343 816 l 1
 343 732 l 1
 253 732 l 1
719 345 m 0
 719 247.666992188 687.833007812 162.166992188 625.5 88.5 c 128
 563.166992188 14.8330078125 484.166992188 -22 388.5 -22 c 128
 292.833007812 -22 213.333007812 16 150 92 c 0
 89.3330078125 163.333007812 59 247.833007812 59 345.5 c 128
 59 443.166992188 90 529.5 152 604.5 c 128
 214 679.5 291.333007812 717 384 717 c 128
 476.666992188 717 555.666992188 680.666992188 621 608 c 0
 665.666992188 558.666992188 694 514.333007812 706 475 c 0
 714.666992188 449 719 405.666992188 719 345 c 0
562 555 m 0
 518 617 460.166992188 648 388.5 648 c 128
 316.833007812 648 259.333007812 617 216 555 c 0
 177.333007812 499.666992188 158 433.666992188 158 357 c 128
 158 280.333007812 176.333007812 212.333007812 213 153 c 0
 256.333007812 83 315 48 389 48 c 256
 463 48 521.666992188 83 565 153 c 0
 601.666992188 213 620 281.333007812 620 358 c 128
 620 434.666992188 600.666992188 500.333007812 562 555 c 0
EndSplineSet
Position2: "'cpsp' Capital Spacing lookup 0 subtable" dx=7 dy=0 dh=14 dv=0
EndChar

StartChar: multiply
Encoding: 215 215 151
Width: 826
GlyphClass: 2
Flags: W
LayerCount: 2
Fore
SplineSet
617 25 m 2
 411 219 l 1
 205 25 l 2
 195 15 185.666992188 10 177 10 c 0
 162.333007812 10 155 16.3330078125 155 29 c 0
 155 35.6669921875 160.666992188 44.6669921875 172 56 c 2
 378 250 l 1
 172 444 l 2
 160.666992188 454.666992188 155 464 155 472 c 0
 155 484.666992188 162.333007812 491 177 491 c 0
 185.666992188 491 195 486 205 476 c 2
 411 282 l 1
 616 475 l 2
 626.666992188 485 636.333007812 490 645 490 c 0
 659 490 666 484 666 472 c 0
 666 464 660.666992188 454.666992188 650 444 c 2
 445 250 l 1
 651 56 l 2
 661 46 666 37 666 29 c 0
 666 16.3330078125 659.333007812 10 646 10 c 0
 637.333007812 10 627.666992188 15 617 25 c 2
EndSplineSet
EndChar

StartChar: Oslash
Encoding: 216 216 152
Width: 826
GlyphClass: 2
Flags: HMW
LayerCount: 2
Fore
SplineSet
629 636 m 1
 703.784179688 576.40625 763 471.158203125 763 345 c 0
 763 244.333007812 729.166992188 158 661.5 86 c 256
 593.833007812 14 510 -22 410 -22 c 0
 356 -22 303 -8.6669921875 251 18 c 1
 200 -66 l 1
 138 -32 l 1
 192 58 l 1
 103.333007812 132.666992188 59 228.333007812 59 345 c 0
 59 445.666992188 92.8330078125 532.666992188 160.5 606 c 128
 228.166992188 679.333007812 311.666992188 716 411 716 c 0
 463 716 516.333007812 702.666992188 571 676 c 1
 622 760 l 1
 684 726 l 1
 629 636 l 1
589 570 m 1
 288 77 l 1
 327.333007812 54.3330078125 368.333007812 43 411 43 c 0
 491 43 553.833007812 72.8330078125 599.5 132.5 c 256
 645.166992188 192.166992188 668 265.833007812 668 353.5 c 256
 668 441.166992188 641.666992188 513.333007812 589 570 c 1
410 651 m 0
 330.666992188 651 268.166992188 620.5 222.5 559.5 c 256
 176.833007812 498.5 154 424.833007812 154 338.5 c 256
 154 252.166992188 179.666992188 180.333007812 231 123 c 1
 534 616 l 1
 493.333007812 639.333007812 452 651 410 651 c 0
EndSplineSet
Position2: "'cpsp' Capital Spacing lookup 0 subtable" dx=7 dy=0 dh=14 dv=0
EndChar

StartChar: Ugrave
Encoding: 217 217 153
Width: 729
GlyphClass: 2
Flags: HMW
LayerCount: 2
Fore
SplineSet
368 742 m 1
 152 868 l 1
 279 868 l 1
 470 742 l 1
 368 742 l 1
364 -22 m 256
 290.666992188 -22 227.833007812 2.5 175.5 51.5 c 256
 123.166992188 100.5 97 161.333007812 97 234 c 2
 97 695 l 1
 196 695 l 1
 196 233 l 2
 196 178.333007812 210.833007812 132.333007812 240.5 95 c 256
 270.166992188 57.6669921875 311.833007812 39 365.5 39 c 256
 419.166992188 39 461.5 57.6669921875 492.5 95 c 256
 523.5 132.333007812 539 178.333007812 539 233 c 2
 539 695 l 1
 626 695 l 1
 626 234 l 2
 626 161.333007812 600.666992188 100.5 550 51.5 c 128
 499.333007812 2.5 437.333007812 -22 364 -22 c 256
EndSplineSet
Position2: "'cpsp' Capital Spacing lookup 0 subtable" dx=7 dy=0 dh=14 dv=0
EndChar

StartChar: Uacute
Encoding: 218 218 154
Width: 729
GlyphClass: 2
Flags: HMW
LayerCount: 2
Fore
SplineSet
357 742 m 1
 254 742 l 1
 445 868 l 1
 572 868 l 1
 357 742 l 1
364 -22 m 256
 290.666992188 -22 227.833007812 2.5 175.5 51.5 c 256
 123.166992188 100.5 97 161.333007812 97 234 c 2
 97 695 l 1
 196 695 l 1
 196 233 l 2
 196 178.333007812 210.833007812 132.333007812 240.5 95 c 256
 270.166992188 57.6669921875 311.833007812 39 365.5 39 c 256
 419.166992188 39 461.5 57.6669921875 492.5 95 c 256
 523.5 132.333007812 539 178.333007812 539 233 c 2
 539 695 l 1
 626 695 l 1
 626 234 l 2
 626 161.333007812 600.666992188 100.5 550 51.5 c 128
 499.333007812 2.5 437.333007812 -22 364 -22 c 256
EndSplineSet
Position2: "'cpsp' Capital Spacing lookup 0 subtable" dx=7 dy=0 dh=14 dv=0
EndChar

StartChar: Ucircumflex
Encoding: 219 219 155
Width: 729
GlyphClass: 2
Flags: HMW
LayerCount: 2
Fore
SplineSet
463 732 m 1
 362 827 l 1
 261 732 l 1
 192 732 l 1
 330 870 l 1
 395 870 l 1
 532 732 l 1
 463 732 l 1
364 -22 m 256
 290.666992188 -22 227.833007812 2.5 175.5 51.5 c 256
 123.166992188 100.5 97 161.333007812 97 234 c 2
 97 695 l 1
 196 695 l 1
 196 233 l 2
 196 178.333007812 210.833007812 132.333007812 240.5 95 c 256
 270.166992188 57.6669921875 311.833007812 39 365.5 39 c 256
 419.166992188 39 461.5 57.6669921875 492.5 95 c 256
 523.5 132.333007812 539 178.333007812 539 233 c 2
 539 695 l 1
 626 695 l 1
 626 234 l 2
 626 161.333007812 600.666992188 100.5 550 51.5 c 128
 499.333007812 2.5 437.333007812 -22 364 -22 c 256
EndSplineSet
Position2: "'cpsp' Capital Spacing lookup 0 subtable" dx=7 dy=0 dh=14 dv=0
EndChar

StartChar: Udieresis
Encoding: 220 220 156
Width: 729
GlyphClass: 2
Flags: HMW
LayerCount: 2
Fore
SplineSet
409 732 m 1
 409 816 l 1
 498 816 l 1
 498 732 l 1
 409 732 l 1
226 732 m 1
 226 816 l 1
 315 816 l 1
 315 732 l 1
 226 732 l 1
549.5 51.5 m 128
 498.5 2.5 436.5 -22 363.5 -22 c 128
 290.5 -22 227.833007812 2.5 175.5 51.5 c 128
 123.166992188 100.5 97 161.333007812 97 234 c 2
 97 695 l 1
 196 695 l 1
 196 233 l 2
 196 178.333007812 210.833007812 132.333007812 240.5 95 c 128
 270.166992188 57.6669921875 311.833007812 39 365.5 39 c 128
 419.166992188 39 461.5 57.6669921875 492.5 95 c 128
 523.5 132.333007812 539 178.333007812 539 233 c 2
 539 695 l 1
 626 695 l 1
 626 234 l 2
 626 161.333007812 600.5 100.5 549.5 51.5 c 128
EndSplineSet
Position2: "'cpsp' Capital Spacing lookup 0 subtable" dx=7 dy=0 dh=14 dv=0
EndChar

StartChar: Yacute
Encoding: 221 221 157
Width: 708
GlyphClass: 2
Flags: HMW
LayerCount: 2
Fore
SplineSet
349 742 m 1
 247 742 l 1
 438 868 l 1
 564 868 l 1
 349 742 l 1
402 277 m 1
 402 0 l 1
 307 0 l 1
 307 278 l 1
 3 695 l 1
 120 695 l 1
 328 406 l 2
 336 394.666992188 348 376.666992188 364 352 c 1
 426 443 l 2
 434.666992188 455.666992188 495 539.666992188 607 695 c 1
 706 695 l 1
 402 277 l 1
EndSplineSet
Position2: "'cpsp' Capital Spacing lookup 0 subtable" dx=7 dy=0 dh=14 dv=0
EndChar

StartChar: Thorn
Encoding: 222 222 158
Width: 620
GlyphClass: 2
Flags: HMW
LayerCount: 2
Fore
SplineSet
557 374 m 0
 557 328.666992188 538.166992188 284.833007812 500.5 242.5 c 128
 462.833007812 200.166992188 402.666992188 179 320 179 c 2
 193 179 l 1
 193 0 l 1
 100 0 l 1
 100 694 l 1
 193 694 l 1
 193 568 l 1
 328 568 l 2
 388 568 441.166992188 550.333007812 487.5 515 c 128
 533.833007812 479.666992188 557 432.666992188 557 374 c 0
283 507 m 2
 193 507 l 1
 193 239 l 1
 291 239 l 2
 357 239 402.833007812 254.166992188 428.5 284.5 c 128
 454.166992188 314.833007812 467 344.333007812 467 373 c 0
 467 416.333007812 448 449.5 410 472.5 c 128
 372 495.5 329.666992188 507 283 507 c 2
EndSplineSet
Position2: "'cpsp' Capital Spacing lookup 0 subtable" dx=7 dy=0 dh=14 dv=0
EndChar

StartChar: germandbls
Encoding: 223 223 159
Width: 510
GlyphClass: 2
Flags: HMW
LayerCount: 2
Fore
SplineSet
351 410 m 1
 422.973632812 366.815429688 479 285.513671875 479 176 c 128
 479 126 461 82.3330078125 425 45 c 128
 389 7.6669921875 344.666992188 -11 292 -11 c 0
 263.333007812 -11 240.166992188 -8 222.5 -2 c 128
 204.833007812 4 196 8.6669921875 196 12 c 1
 219 70 l 1
 243.666992188 60 267.666992188 55 291 55 c 0
 356.62890625 55 393 111.612304688 393 180 c 0
 393 234.666992188 378 281.333007812 348 320 c 128
 318 358.666992188 276.333007812 378.666992188 223 380 c 1
 223 446 l 1
 261 446.666992188 294 456.333007812 322 475 c 128
 350 493.666992188 364 521.333007812 364 558 c 0
 364 584 354.5 604 335.5 618 c 128
 316.5 632 295.666992188 639 273 639 c 0
 203.666992188 639 169 609.333007812 169 550 c 2
 169 0 l 1
 85 0 l 1
 85 551 l 2
 85 598.333007812 103.166992188 635.833007812 139.5 663.5 c 128
 175.833007812 691.166992188 217.833007812 705 265.5 705 c 128
 313.166992188 705 355.833007812 691.5 393.5 664.5 c 128
 431.166992188 637.5 450 601.666992188 450 557 c 0
 450 496.333007812 417 447.333007812 351 410 c 1
EndSplineSet
Substitution2: "'smcp' Lowercase to Small Capitals lookup 16 subtable" Germandbls.sc
EndChar

StartChar: agrave
Encoding: 224 224 160
Width: 510
GlyphClass: 2
Flags: HMW
LayerCount: 2
Fore
SplineSet
261 523 m 1
 99 694 l 1
 188 694 l 1
 332 523 l 1
 261 523 l 1
251.5 463 m 256
 356.750976562 463 433 392.607421875 433 289 c 2
 433 0 l 1
 349 0 l 1
 349 33 l 1
 306.333007812 3.6669921875 249 -11 177 -11 c 0
 106.231445312 -11 55 44.009765625 55 115 c 0
 55 165 93.6669921875 201.333007812 171 224 c 0
 220.333007812 238.666992188 278.666992188 246.666992188 346 248 c 1
 346 288 l 2
 346 346.26953125 315.176757812 399 257 399 c 0
 201 399 147.333007812 381.666992188 96 347 c 1
 90 419 l 1
 143.333007812 448.333007812 197.166992188 463 251.5 463 c 256
346 192 m 1
 206 185.333007812 136 160.333007812 136 117 c 0
 136 95.6669921875 146 80 166 70 c 256
 186 60 207.666992188 55 231 55 c 0
 307.666992188 55 346 81 346 133 c 2
 346 192 l 1
EndSplineSet
Substitution2: "'smcp' Lowercase to Small Capitals lookup 16 subtable" Agrave.sc
EndChar

StartChar: aacute
Encoding: 225 225 161
Width: 510
GlyphClass: 2
Flags: HMW
LayerCount: 2
Fore
SplineSet
245 523 m 1
 174 523 l 1
 318 694 l 1
 407 694 l 1
 245 523 l 1
251.5 463 m 256
 356.750976562 463 433 392.607421875 433 289 c 2
 433 0 l 1
 349 0 l 1
 349 33 l 1
 306.333007812 3.6669921875 249 -11 177 -11 c 0
 106.231445312 -11 55 44.009765625 55 115 c 0
 55 165 93.6669921875 201.333007812 171 224 c 0
 220.333007812 238.666992188 278.666992188 246.666992188 346 248 c 1
 346 288 l 2
 346 346.26953125 315.176757812 399 257 399 c 0
 201 399 147.333007812 381.666992188 96 347 c 1
 90 419 l 1
 143.333007812 448.333007812 197.166992188 463 251.5 463 c 256
346 192 m 1
 206 185.333007812 136 160.333007812 136 117 c 0
 136 95.6669921875 146 80 166 70 c 256
 186 60 207.666992188 55 231 55 c 0
 307.666992188 55 346 81 346 133 c 2
 346 192 l 1
EndSplineSet
Substitution2: "'smcp' Lowercase to Small Capitals lookup 16 subtable" Aacute.sc
EndChar

StartChar: acircumflex
Encoding: 226 226 162
Width: 510
GlyphClass: 2
Flags: HMW
LayerCount: 2
Fore
SplineSet
353 521 m 1
 253 642 l 1
 153 521 l 1
 85 521 l 1
 220 697 l 1
 286 697 l 1
 421 521 l 1
 353 521 l 1
251.5 463 m 256
 356.750976562 463 433 392.607421875 433 289 c 2
 433 0 l 1
 349 0 l 1
 349 33 l 1
 306.333007812 3.6669921875 249 -11 177 -11 c 0
 106.231445312 -11 55 44.009765625 55 115 c 0
 55 165 93.6669921875 201.333007812 171 224 c 0
 220.333007812 238.666992188 278.666992188 246.666992188 346 248 c 1
 346 288 l 2
 346 346.26953125 315.176757812 399 257 399 c 0
 201 399 147.333007812 381.666992188 96 347 c 1
 90 419 l 1
 143.333007812 448.333007812 197.166992188 463 251.5 463 c 256
346 192 m 1
 206 185.333007812 136 160.333007812 136 117 c 0
 136 95.6669921875 146 80 166 70 c 256
 186 60 207.666992188 55 231 55 c 0
 307.666992188 55 346 81 346 133 c 2
 346 192 l 1
EndSplineSet
Substitution2: "'smcp' Lowercase to Small Capitals lookup 16 subtable" Acircumflex.sc
EndChar

StartChar: atilde
Encoding: 227 227 163
Width: 510
GlyphClass: 2
Flags: HMW
LayerCount: 2
Fore
SplineSet
431 670 m 1
 429.702148438 605.083007812 391.110351562 547 325 547 c 0
 305 547 280.333007812 556.5 251 575.5 c 256
 221.666992188 594.5 199.333007812 604 184 604 c 0
 159.333007812 604 146.333007812 585 145 547 c 1
 76 547 l 1
 77.2978515625 611.916992188 115.889648438 670 182 670 c 0
 202 670 226.666992188 660.333007812 256 641 c 256
 285.333007812 621.666992188 307.666992188 612 323 612 c 0
 347.666992188 612 360.666992188 631.333007812 362 670 c 1
 431 670 l 1
251.5 463 m 256
 356.750976562 463 433 392.607421875 433 289 c 2
 433 0 l 1
 349 0 l 1
 349 33 l 1
 306.333007812 3.6669921875 249 -11 177 -11 c 0
 106.231445312 -11 55 44.009765625 55 115 c 0
 55 214.416992188 222.2265625 245.548828125 346 248 c 1
 346 288 l 2
 346 346.26953125 315.176757812 399 257 399 c 0
 201 399 147.333007812 381.666992188 96 347 c 1
 90 419 l 1
 143.333007812 448.333007812 197.166992188 463 251.5 463 c 256
346 192 m 1
 206 185.333007812 136 160.333007812 136 117 c 0
 136 95.6669921875 146 80 166 70 c 256
 186 60 207.666992188 55 231 55 c 0
 307.666992188 55 346 81 346 133 c 2
 346 192 l 1
EndSplineSet
Substitution2: "'smcp' Lowercase to Small Capitals lookup 16 subtable" Atilde.sc
EndChar

StartChar: adieresis
Encoding: 228 228 164
Width: 510
GlyphClass: 2
Flags: HMW
LayerCount: 2
Fore
SplineSet
285 567 m 1
 285 651 l 1
 374 651 l 1
 374 567 l 1
 285 567 l 1
132 567 m 1
 132 651 l 1
 221 651 l 1
 221 567 l 1
 132 567 l 1
251.5 462 m 256
 356.743164062 462 433 392.622070312 433 289 c 2
 433 0 l 1
 349 0 l 1
 349 33 l 1
 306.333007812 3.6669921875 249 -11 177 -11 c 0
 106.231445312 -11 55 44.009765625 55 115 c 0
 55 214.416992188 222.2265625 245.548828125 346 248 c 1
 346 288 l 2
 346 346.26953125 315.176757812 399 257 399 c 0
 201 399 147.333007812 381.666992188 96 347 c 1
 90 419 l 1
 143.333007812 447.666992188 197.166992188 462 251.5 462 c 256
346 192 m 1
 206 185.333007812 136 160.333007812 136 117 c 0
 136 95.6669921875 146 80 166 70 c 256
 186 60 207.666992188 55 231 55 c 0
 307.666992188 55 346 81 346 133 c 2
 346 192 l 1
EndSplineSet
Substitution2: "'smcp' Lowercase to Small Capitals lookup 16 subtable" Adieresis.sc
EndChar

StartChar: aring
Encoding: 229 229 165
Width: 510
GlyphClass: 2
Flags: HMW
LayerCount: 2
Fore
SplineSet
252 513 m 256
 223.333007812 513 196.5 520.666992188 171.5 536 c 256
 146.5 551.333007812 134 572.5 134 599.5 c 256
 134 626.5 146.666992188 647.5 172 662.5 c 256
 197.333007812 677.5 224.5 685 253.5 685 c 256
 282.5 685 309.5 677.5 334.5 662.5 c 256
 359.5 647.5 372 626.333007812 372 599 c 256
 372 571.666992188 359.166992188 550.5 333.5 535.5 c 256
 307.833007812 520.5 280.666992188 513 252 513 c 256
251.5 463 m 256
 356.750976562 463 433 392.607421875 433 289 c 2
 433 0 l 1
 349 0 l 1
 349 33 l 1
 306.333007812 3.6669921875 249 -11 177 -11 c 0
 106.231445312 -11 55 44.009765625 55 115 c 0
 55 165 93.6669921875 201.333007812 171 224 c 0
 220.333007812 238.666992188 278.666992188 246.666992188 346 248 c 1
 346 288 l 2
 346 346.26953125 315.176757812 399 257 399 c 0
 201 399 147.333007812 381.666992188 96 347 c 1
 90 419 l 1
 143.333007812 448.333007812 197.166992188 463 251.5 463 c 256
253 565 m 0
 292.299804688 565 303 566.198242188 303 599 c 0
 303 621.666992188 286.333007812 633 253 633 c 256
 219.666992188 633 203 621.666992188 203 599 c 256
 203 576.333007812 219.666992188 565 253 565 c 0
346 192 m 1
 206 185.333007812 136 160.333007812 136 117 c 0
 136 95.6669921875 146 80 166 70 c 256
 186 60 207.666992188 55 231 55 c 0
 307.666992188 55 346 81 346 133 c 2
 346 192 l 1
EndSplineSet
Substitution2: "'smcp' Lowercase to Small Capitals lookup 16 subtable" Aring.sc
EndChar

StartChar: ae
Encoding: 230 230 166
Width: 767
GlyphClass: 2
Flags: HMW
LayerCount: 2
Fore
SplineSet
337 287 m 2
 337 345.263671875 307.194335938 398 249 398 c 0
 193 398 139 380.666992188 87 346 c 1
 80 417 l 1
 134 446.333007812 191.666992188 461 253 461 c 256
 314.333007812 461 362 436.333007812 396 387 c 1
 440 436.333007812 492 461 552 461 c 256
 612 461 654.833007812 442.166992188 680.5 404.5 c 128
 719.78125 346.854492188 732 293.958984375 732 217 c 1
 425 217 l 1
 427.666992188 172.333007812 442.333007812 134 469 102 c 256
 495.666992188 70 533 54 581 54 c 256
 629 54 675.333007812 73.3330078125 720 112 c 1
 727 42 l 1
 681 6.6669921875 627 -11 565 -11 c 256
 503 -11 448.333007812 14 401 64 c 1
 378.333007812 30.6669921875 337 9 277 -1 c 0
 234.333007812 -7.6669921875 199 -11 171 -11 c 0
 123 -11 89.6669921875 6.3330078125 71 41 c 0
 56.3330078125 67 49 91.6669921875 49 115 c 0
 49 195 145 239.666992188 337 249 c 1
 337 287 l 2
616 375 m 0
 596.666992188 389 576.666992188 396 556 396 c 0
 489.138671875 396 444.983398438 331.935546875 431 276 c 1
 665 276 l 1
 657.666992188 325.333007812 641.333007812 358.333007812 616 375 c 0
339 189 m 1
 303.666992188 189 264 185 220 177 c 0
 160 166.333007812 130 146 130 116 c 0
 130 95.3330078125 139.833007812 79.8330078125 159.5 69.5 c 256
 179.166992188 59.1669921875 199.333007812 54 220 54 c 256
 240.666992188 54 263.333007812 57 288 63 c 0
 324.666992188 71.6669921875 343 93.3330078125 343 128 c 0
 343 150.666992188 341.666992188 171 339 189 c 1
EndSplineSet
Substitution2: "'smcp' Lowercase to Small Capitals lookup 16 subtable" AE.sc
EndChar

StartChar: ccedilla
Encoding: 231 231 167
Width: 472
GlyphClass: 2
Flags: HMW
LayerCount: 2
Fore
SplineSet
123 222 m 0
 123 130.6171875 178.103515625 56 267 56 c 0
 327 56 382.333007812 74.6669921875 433 112 c 1
 439 39 l 1
 386.333007812 5 328.166992188 -12 264.5 -12 c 128
 200.833007812 -12 146.833007812 10.6669921875 102.5 56 c 128
 58.1669921875 101.333007812 36 157 36 223 c 128
 36 289 58.1669921875 345.166992188 102.5 391.5 c 128
 146.833007812 437.833007812 202.666992188 461 270 461 c 0
 325.333007812 461 380 446.333007812 434 417 c 1
 421 347 l 1
 371.666992188 377.666992188 321.666992188 393 271 393 c 0
 240.333007812 393 212.833007812 384.833007812 188.5 368.5 c 0
 144.833007812 339.189453125 123 290.356445312 123 222 c 0
239 -214 m 1
 161 -214 l 1
 241 -42 l 1
 310 -42 l 1
 239 -214 l 1
EndSplineSet
Substitution2: "'smcp' Lowercase to Small Capitals lookup 16 subtable" Ccedilla.sc
EndChar

StartChar: egrave
Encoding: 232 232 168
Width: 472
GlyphClass: 2
Flags: HMW
LayerCount: 2
Fore
SplineSet
242 523 m 1
 80 694 l 1
 169 694 l 1
 313 523 l 1
 242 523 l 1
114 217 m 1
 117.887695312 131.461914062 176.938476562 55 266 55 c 0
 324 55 377.666992188 74.3330078125 427 113 c 1
 434 42 l 1
 382.666992188 6.6669921875 325.333007812 -11 262 -11 c 128
 198.666992188 -11 145 12.1669921875 101 58.5 c 128
 57 104.833007812 35 160.166992188 35 224.5 c 128
 35 288.833007812 55.1669921875 344.666992188 95.5 392 c 128
 135.833007812 439.333007812 188.166992188 463 252.5 463 c 128
 381.422851562 463 438 356.265625 438 217 c 1
 114 217 l 1
373 277 m 1
 362.122070312 341.05859375 322.827148438 397 251 397 c 128
 179.899414062 397 134.469726562 336.084960938 120 277 c 1
 373 277 l 1
EndSplineSet
Substitution2: "'smcp' Lowercase to Small Capitals lookup 16 subtable" Egrave.sc
EndChar

StartChar: eacute
Encoding: 233 233 169
Width: 472
GlyphClass: 2
Flags: HMW
LayerCount: 2
Fore
SplineSet
226 523 m 1
 155 523 l 1
 299 694 l 1
 388 694 l 1
 226 523 l 1
114 217 m 1
 117.887695312 131.461914062 176.938476562 55 266 55 c 0
 324 55 377.666992188 74.3330078125 427 113 c 1
 434 42 l 1
 382.666992188 6.6669921875 325.333007812 -11 262 -11 c 128
 198.666992188 -11 145 12.1669921875 101 58.5 c 128
 57 104.833007812 35 160.166992188 35 224.5 c 128
 35 288.833007812 55.1669921875 344.666992188 95.5 392 c 128
 135.833007812 439.333007812 188.166992188 463 252.5 463 c 128
 381.422851562 463 438 356.265625 438 217 c 1
 114 217 l 1
373 277 m 1
 362.122070312 341.05859375 322.827148438 397 251 397 c 128
 179.899414062 397 134.469726562 336.084960938 120 277 c 1
 373 277 l 1
EndSplineSet
Substitution2: "'smcp' Lowercase to Small Capitals lookup 16 subtable" Eacute.sc
EndChar

StartChar: ecircumflex
Encoding: 234 234 170
Width: 472
GlyphClass: 2
Flags: HMW
LayerCount: 2
Fore
SplineSet
334 521 m 1
 234 642 l 1
 135 521 l 1
 66 521 l 1
 201 697 l 1
 267 697 l 1
 402 521 l 1
 334 521 l 1
114 217 m 1
 117.887695312 131.461914062 176.938476562 55 266 55 c 0
 324 55 377.666992188 74.3330078125 427 113 c 1
 434 42 l 1
 382.666992188 6.6669921875 325.333007812 -11 262 -11 c 128
 198.666992188 -11 145 12.1669921875 101 58.5 c 128
 57 104.833007812 35 160.166992188 35 224.5 c 128
 35 288.833007812 55.1669921875 344.666992188 95.5 392 c 128
 135.833007812 439.333007812 188.166992188 463 252.5 463 c 128
 381.422851562 463 438 356.265625 438 217 c 1
 114 217 l 1
373 277 m 1
 362.122070312 341.05859375 322.827148438 397 251 397 c 128
 179.899414062 397 134.469726562 336.084960938 120 277 c 1
 373 277 l 1
EndSplineSet
Substitution2: "'smcp' Lowercase to Small Capitals lookup 16 subtable" Ecircumflex.sc
EndChar

StartChar: edieresis
Encoding: 235 235 171
Width: 472
GlyphClass: 2
Flags: HMW
LayerCount: 2
Fore
SplineSet
266 567 m 1
 266 651 l 1
 355 651 l 1
 355 567 l 1
 266 567 l 1
113 567 m 1
 113 651 l 1
 202 651 l 1
 202 567 l 1
 113 567 l 1
114 217 m 1
 117.887695312 131.461914062 176.938476562 55 266 55 c 0
 324 55 377.666992188 74 427 112 c 1
 434 42 l 1
 382.666992188 6.6669921875 325.333007812 -11 262 -11 c 128
 198.666992188 -11 145 12.1669921875 101 58.5 c 128
 57 104.833007812 35 160.166992188 35 224.5 c 128
 35 288.833007812 55.1669921875 344.5 95.5 391.5 c 128
 135.833007812 438.5 188.166992188 462 252.5 462 c 128
 381.84375 462 438 356.334960938 438 217 c 1
 114 217 l 1
373 277 m 1
 362.122070312 341.05859375 322.827148438 397 251 397 c 128
 179.899414062 397 134.469726562 336.084960938 120 277 c 1
 373 277 l 1
EndSplineSet
Substitution2: "'smcp' Lowercase to Small Capitals lookup 16 subtable" Edieresis.sc
EndChar

StartChar: igrave
Encoding: 236 236 172
Width: 253
GlyphClass: 2
Flags: HMW
LayerCount: 2
Fore
SplineSet
107 523 m 1
 -56 694 l 1
 33 694 l 1
 177 523 l 1
 107 523 l 1
90 0 m 1
 90 446 l 1
 174 446 l 1
 174 0 l 1
 90 0 l 1
EndSplineSet
Substitution2: "'smcp' Lowercase to Small Capitals lookup 16 subtable" Igrave.sc
EndChar

StartChar: iacute
Encoding: 237 237 173
Width: 253
GlyphClass: 2
Flags: HMW
LayerCount: 2
Fore
SplineSet
154 523 m 1
 84 523 l 1
 227 694 l 1
 316 694 l 1
 154 523 l 1
86 0 m 1
 86 446 l 1
 170 446 l 1
 170 0 l 1
 86 0 l 1
EndSplineSet
Substitution2: "'smcp' Lowercase to Small Capitals lookup 16 subtable" Iacute.sc
EndChar

StartChar: icircumflex
Encoding: 238 238 174
Width: 253
GlyphClass: 2
Flags: HMW
LayerCount: 2
Fore
SplineSet
239 521 m 1
 140 642 l 1
 40 521 l 1
 -28 521 l 1
 107 697 l 1
 173 697 l 1
 308 521 l 1
 239 521 l 1
97 0 m 1
 97 446 l 1
 181 446 l 1
 181 0 l 1
 97 0 l 1
EndSplineSet
Substitution2: "'smcp' Lowercase to Small Capitals lookup 16 subtable" Icircumflex.sc
EndChar

StartChar: idieresis
Encoding: 239 239 175
Width: 253
GlyphClass: 2
Flags: HMW
LayerCount: 2
Fore
SplineSet
151 567 m 1
 151 651 l 1
 240 651 l 1
 240 567 l 1
 151 567 l 1
-2 567 m 1
 -2 651 l 1
 87 651 l 1
 87 567 l 1
 -2 567 l 1
76 0 m 1
 76 446 l 1
 160 446 l 1
 160 0 l 1
 76 0 l 1
EndSplineSet
Substitution2: "'smcp' Lowercase to Small Capitals lookup 16 subtable" Idieresis.sc
EndChar

StartChar: eth
Encoding: 240 240 176
Width: 531
GlyphClass: 2
Flags: HMW
LayerCount: 2
Fore
SplineSet
496 243 m 0
 496 166.421875 473.666992188 104.944335938 429 58.56640625 c 128
 384.333007812 12.1884765625 329.333007812 -11 264 -11 c 128
 198.666992188 -11 143.333007812 11.5 98 56.5 c 128
 52.6669921875 101.5 30 156.666992188 30 222 c 128
 30 287.333007812 52.5 343.833007812 97.5 391.5 c 128
 142.5 439.166992188 197.666992188 463 263 463 c 0
 298.333007812 463 331.666992188 455 363 439 c 1
 337 493 299 540.333007812 249 581 c 1
 167 520 l 1
 128 570 l 1
 195 620 l 1
 163 638 129.333007812 653.666992188 94 667 c 1
 128 722 l 1
 171.333007812 710 214 691.333007812 256 666 c 1
 335 724 l 1
 375 674 l 1
 311 627 l 1
 434.333007812 525.666992188 496 397.666992188 496 243 c 0
262 397 m 256
 170.120117188 397 117 322.30859375 117 230 c 128
 117 182.666992188 129.666992188 142.166992188 155 108.5 c 128
 180.333007812 74.8330078125 215.166992188 58 259.5 58 c 128
 303.833007812 58 340 73.6669921875 368 105 c 0
 402.482421875 145.639648438 409 159.594726562 409 226 c 0
 409 272.666992188 395.833007812 312.833007812 369.5 346.5 c 128
 343.166992188 380.166992188 307.333007812 397 262 397 c 256
EndSplineSet
Substitution2: "'ss05' Style Set 5 lookup 23 IPA alts-1" eth.ipa
Substitution2: "'smcp' Lowercase to Small Capitals lookup 16 subtable" Eth.sc
EndChar

StartChar: ntilde
Encoding: 241 241 177
Width: 549
GlyphClass: 2
Flags: HMW
LayerCount: 2
Fore
SplineSet
450 670 m 1
 448.702148438 605.083007812 410.110351562 547 344 547 c 0
 324 547 299.333007812 556.5 270 575.5 c 128
 240.666992188 594.5 218.333007812 604 203 604 c 0
 178.333007812 604 165.333007812 585 164 547 c 1
 95 547 l 1
 96.287109375 611.3359375 134.78125 670 200 670 c 0
 220 670 244.833007812 660.333007812 274.5 641 c 128
 304.166992188 621.666992188 326.666992188 612 342 612 c 0
 366.666992188 612 379.666992188 631.333007812 381 670 c 1
 450 670 l 1
274 391 m 0
 202.764648438 391 171 322.859375 171 246 c 2
 171 0 l 1
 83 0 l 1
 83 452 l 1
 164 452 l 1
 164 386 l 1
 204 433.333007812 254 457 314 457 c 0
 411.333007812 457 460 404 460 298 c 2
 460 0 l 1
 373 0 l 1
 373 291 l 2
 373 360.443359375 344.35546875 391 274 391 c 0
EndSplineSet
Substitution2: "'smcp' Lowercase to Small Capitals lookup 16 subtable" Ntilde.sc
EndChar

StartChar: ograve
Encoding: 242 242 178
Width: 531
GlyphClass: 2
Flags: HMW
LayerCount: 2
Fore
SplineSet
272 523 m 1
 110 694 l 1
 199 694 l 1
 342 523 l 1
 272 523 l 1
428 56 m 128
 382.666992188 11.3330078125 327.5 -11 262.5 -11 c 128
 197.5 -11 142.5 11.5 97.5 56.5 c 128
 52.5 101.5 30 156.666992188 30 222 c 128
 30 287.333007812 52.5 343.833007812 97.5 391.5 c 128
 142.5 439.166992188 197.833007812 463 263.5 463 c 128
 329.166992188 463 384.333007812 439.166992188 429 391.5 c 128
 473.666992188 343.833007812 496 287.166992188 496 221.5 c 128
 496 155.833007812 473.333007812 100.666992188 428 56 c 128
409 230.5 m 128
 409 323.81640625 356.005859375 397 263 397 c 128
 170.241210938 397 117 322.879882812 117 230 c 128
 117 182.666992188 129.666992188 142.166992188 155 108.5 c 128
 180.333007812 74.8330078125 216.166992188 58 262.5 58 c 128
 308.833007812 58 344.833007812 74.8330078125 370.5 108.5 c 128
 396.166992188 142.166992188 409 182.833007812 409 230.5 c 128
EndSplineSet
Substitution2: "'smcp' Lowercase to Small Capitals lookup 16 subtable" Ograve.sc
EndChar

StartChar: oacute
Encoding: 243 243 179
Width: 531
GlyphClass: 2
Flags: HMW
LayerCount: 2
Fore
SplineSet
255 523 m 1
 185 523 l 1
 328 694 l 1
 417 694 l 1
 255 523 l 1
428 56 m 128
 382.666992188 11.3330078125 327.5 -11 262.5 -11 c 128
 197.5 -11 142.5 11.5 97.5 56.5 c 128
 52.5 101.5 30 156.666992188 30 222 c 128
 30 287.333007812 52.5 343.833007812 97.5 391.5 c 128
 142.5 439.166992188 197.833007812 463 263.5 463 c 128
 329.166992188 463 384.333007812 439.166992188 429 391.5 c 128
 473.666992188 343.833007812 496 287.166992188 496 221.5 c 128
 496 155.833007812 473.333007812 100.666992188 428 56 c 128
409 230.5 m 128
 409 323.81640625 356.005859375 397 263 397 c 128
 170.241210938 397 117 322.879882812 117 230 c 128
 117 182.666992188 129.666992188 142.166992188 155 108.5 c 128
 180.333007812 74.8330078125 216.166992188 58 262.5 58 c 128
 308.833007812 58 344.833007812 74.8330078125 370.5 108.5 c 128
 396.166992188 142.166992188 409 182.833007812 409 230.5 c 128
EndSplineSet
Substitution2: "'smcp' Lowercase to Small Capitals lookup 16 subtable" Oacute.sc
EndChar

StartChar: ocircumflex
Encoding: 244 244 180
Width: 531
GlyphClass: 2
Flags: HMW
LayerCount: 2
Fore
SplineSet
363 521 m 1
 263 642 l 1
 164 521 l 1
 96 521 l 1
 231 697 l 1
 296 697 l 1
 431 521 l 1
 363 521 l 1
428 56 m 128
 382.666992188 11.3330078125 327.5 -11 262.5 -11 c 128
 197.5 -11 142.5 11.5 97.5 56.5 c 128
 52.5 101.5 30 156.666992188 30 222 c 128
 30 287.333007812 52.5 343.833007812 97.5 391.5 c 128
 142.5 439.166992188 197.833007812 463 263.5 463 c 128
 329.166992188 463 384.333007812 439.166992188 429 391.5 c 128
 473.666992188 343.833007812 496 287.166992188 496 221.5 c 128
 496 155.833007812 473.333007812 100.666992188 428 56 c 128
409 230.5 m 128
 409 323.81640625 356.005859375 397 263 397 c 128
 170.241210938 397 117 322.879882812 117 230 c 128
 117 182.666992188 129.666992188 142.166992188 155 108.5 c 128
 180.333007812 74.8330078125 216.166992188 58 262.5 58 c 128
 308.833007812 58 344.833007812 74.8330078125 370.5 108.5 c 128
 396.166992188 142.166992188 409 182.833007812 409 230.5 c 128
EndSplineSet
Substitution2: "'smcp' Lowercase to Small Capitals lookup 16 subtable" Ocircumflex.sc
EndChar

StartChar: otilde
Encoding: 245 245 181
Width: 531
GlyphClass: 2
Flags: HMW
LayerCount: 2
Fore
SplineSet
442 670 m 1
 440.712890625 605.657226562 401.203125 547 336 547 c 0
 316 547 291.333007812 556.5 262 575.5 c 128
 232.666992188 594.5 210 604 194 604 c 0
 170 604 157.333007812 585 156 547 c 1
 87 547 l 1
 87 611.91796875 127.270507812 670 192 670 c 0
 212 670 236.666992188 660.333007812 266 641 c 128
 295.333007812 621.666992188 318 612 334 612 c 0
 358 612 370.666992188 631.333007812 372 670 c 1
 442 670 l 1
428 56 m 128
 382.666992188 11.3330078125 327.5 -11 262.5 -11 c 128
 197.5 -11 142.5 11.5 97.5 56.5 c 128
 52.5 101.5 30 156.666992188 30 222 c 128
 30 287.333007812 52.5 343.833007812 97.5 391.5 c 128
 142.5 439.166992188 197.833007812 463 263.5 463 c 128
 329.166992188 463 384.333007812 439.166992188 429 391.5 c 128
 473.666992188 343.833007812 496 287.166992188 496 221.5 c 128
 496 155.833007812 473.333007812 100.666992188 428 56 c 128
409 230.5 m 128
 409 323.81640625 356.005859375 397 263 397 c 128
 170.241210938 397 117 322.879882812 117 230 c 128
 117 182.666992188 129.666992188 142 155 108 c 128
 180.333007812 74 216.166992188 57 262.5 57 c 128
 308.833007812 57 344.833007812 74 370.5 108 c 128
 396.166992188 142 409 182.833007812 409 230.5 c 128
EndSplineSet
Substitution2: "'smcp' Lowercase to Small Capitals lookup 16 subtable" Otilde.sc
EndChar

StartChar: odieresis
Encoding: 246 246 182
Width: 531
GlyphClass: 2
Flags: HMW
LayerCount: 2
Fore
SplineSet
296 567 m 1
 296 651 l 1
 385 651 l 1
 385 567 l 1
 296 567 l 1
142 567 m 1
 142 651 l 1
 231 651 l 1
 231 567 l 1
 142 567 l 1
428 56 m 128
 382.666992188 11.3330078125 327.5 -11 262.5 -11 c 128
 197.5 -11 142.5 11.5 97.5 56.5 c 128
 52.5 101.5 30 156.666992188 30 222 c 128
 30 287.333007812 52.5 343.666992188 97.5 391 c 128
 142.5 438.333007812 197.833007812 462 263.5 462 c 128
 329.166992188 462 384.333007812 438.333007812 429 391 c 128
 473.666992188 343.666992188 496 287.166992188 496 221.5 c 128
 496 155.833007812 473.333007812 100.666992188 428 56 c 128
409 230.5 m 128
 409 323.81640625 356.005859375 397 263 397 c 128
 170.241210938 397 117 322.879882812 117 230 c 128
 117 182.666992188 129.666992188 142 155 108 c 128
 180.333007812 74 216.166992188 57 262.5 57 c 128
 308.833007812 57 344.833007812 74 370.5 108 c 128
 396.166992188 142 409 182.833007812 409 230.5 c 128
EndSplineSet
Substitution2: "'smcp' Lowercase to Small Capitals lookup 16 subtable" Odieresis.sc
EndChar

StartChar: divide
Encoding: 247 247 183
Width: 826
GlyphClass: 2
Flags: HMW
LayerCount: 2
Fore
SplineSet
365 327 m 1
 365 414 l 1
 457 414 l 1
 457 327 l 1
 365 327 l 1
724 228 m 2
 97 228 l 2
 71.6669921875 228 59 235.333007812 59 250 c 256
 59 264.666992188 71.3330078125 272 96 272 c 2
 725 272 l 2
 750.333007812 272 763 264.666992188 763 250 c 256
 763 235.333007812 750 228 724 228 c 2
365 85 m 1
 365 172 l 1
 457 172 l 1
 457 85 l 1
 365 85 l 1
EndSplineSet
EndChar

StartChar: oslash
Encoding: 248 248 184
Width: 531
GlyphClass: 2
Flags: HMW
LayerCount: 2
Fore
SplineSet
263 -12 m 0
 233 -12 203.333007812 -6 174 6 c 1
 104 -113 l 1
 44 -81 l 1
 116 42 l 1
 60.6669921875 93.3330078125 33 152.166992188 33 218.5 c 256
 33 284.833007812 55.3330078125 342 100 390 c 128
 144.666992188 438 199.333007812 462 264 462 c 0
 294.666992188 462 325.333007812 455.666992188 356 443 c 1
 424 558 l 1
 484 526 l 1
 413 405 l 1
 467.666992188 357 495 295.333007812 495 220 c 0
 495 155.333007812 472.5 100.5 427.5 55.5 c 128
 382.5 10.5 327.666992188 -12 263 -12 c 0
263 54 m 0
 357.33984375 54 411 126.826171875 411 221.5 c 256
 411 269.833007812 399 310 375 342 c 1
 209 63 l 1
 224.333007812 57 242.333007812 54 263 54 c 0
264 396 m 0
 217.333007812 396 181.166992188 378.833007812 155.5 344.5 c 256
 129.833007812 310.166992188 117 269.166992188 117 221.5 c 256
 117 173.833007812 129 134.666992188 153 104 c 1
 321 385 l 1
 303.666992188 392.333007812 284.666992188 396 264 396 c 0
EndSplineSet
Substitution2: "'smcp' Lowercase to Small Capitals lookup 16 subtable" Oslash.sc
EndChar

StartChar: ugrave
Encoding: 249 249 185
Width: 549
GlyphClass: 2
Flags: HMW
LayerCount: 2
Fore
SplineSet
280 523 m 1
 118 694 l 1
 207 694 l 1
 351 523 l 1
 280 523 l 1
254.5 49 m 256
 320.013671875 49 373 88.3251953125 373 155 c 2
 373 446 l 1
 460 446 l 1
 460 0 l 1
 376 0 l 1
 376 45 l 1
 329.333007812 7.6669921875 269.666992188 -11 197 -11 c 0
 121 -11 83 29.6669921875 83 111 c 2
 83 446 l 1
 171 446 l 1
 171 115 l 2
 171 56.8095703125 193.502929688 49 254.5 49 c 256
EndSplineSet
Substitution2: "'smcp' Lowercase to Small Capitals lookup 16 subtable" Ugrave.sc
EndChar

StartChar: uacute
Encoding: 250 250 186
Width: 549
GlyphClass: 2
Flags: HMW
LayerCount: 2
Fore
SplineSet
264 523 m 1
 193 523 l 1
 337 694 l 1
 426 694 l 1
 264 523 l 1
254.5 49 m 256
 320.013671875 49 373 88.3251953125 373 155 c 2
 373 446 l 1
 460 446 l 1
 460 0 l 1
 376 0 l 1
 376 45 l 1
 329.333007812 7.6669921875 269.666992188 -11 197 -11 c 0
 121 -11 83 29.6669921875 83 111 c 2
 83 446 l 1
 171 446 l 1
 171 115 l 2
 171 56.8095703125 193.502929688 49 254.5 49 c 256
EndSplineSet
Substitution2: "'smcp' Lowercase to Small Capitals lookup 16 subtable" Uacute.sc
EndChar

StartChar: ucircumflex
Encoding: 251 251 187
Width: 549
GlyphClass: 2
Flags: HMW
LayerCount: 2
Fore
SplineSet
371 521 m 1
 272 642 l 1
 172 521 l 1
 104 521 l 1
 239 697 l 1
 305 697 l 1
 440 521 l 1
 371 521 l 1
254.5 49 m 256
 320.013671875 49 373 88.3251953125 373 155 c 2
 373 446 l 1
 460 446 l 1
 460 0 l 1
 376 0 l 1
 376 45 l 1
 329.333007812 7.6669921875 269.666992188 -11 197 -11 c 0
 121 -11 83 29.6669921875 83 111 c 2
 83 446 l 1
 171 446 l 1
 171 115 l 2
 171 56.8095703125 193.502929688 49 254.5 49 c 256
EndSplineSet
Substitution2: "'smcp' Lowercase to Small Capitals lookup 16 subtable" Ucircumflex.sc
EndChar

StartChar: udieresis
Encoding: 252 252 188
Width: 549
GlyphClass: 2
Flags: HMW
LayerCount: 2
Fore
SplineSet
304 567 m 1
 304 651 l 1
 393 651 l 1
 393 567 l 1
 304 567 l 1
151 567 m 1
 151 651 l 1
 240 651 l 1
 240 567 l 1
 151 567 l 1
254.5 49 m 256
 320.013671875 49 373 88.3251953125 373 155 c 2
 373 446 l 1
 460 446 l 1
 460 0 l 1
 376 0 l 1
 376 45 l 1
 329.333007812 7.6669921875 269.666992188 -11 197 -11 c 0
 121 -11 83 29.6669921875 83 111 c 2
 83 446 l 1
 171 446 l 1
 171 115 l 2
 171 56.8095703125 193.502929688 49 254.5 49 c 256
EndSplineSet
Substitution2: "'smcp' Lowercase to Small Capitals lookup 16 subtable" Udieresis.sc
EndChar

StartChar: yacute
Encoding: 253 253 189
Width: 490
GlyphClass: 2
Flags: HMW
LayerCount: 2
Fore
SplineSet
238 523 m 1
 168 523 l 1
 311 694 l 1
 400 694 l 1
 238 523 l 1
253 73 m 1
 262.333007812 129 308.666992188 253 392 445 c 1
 476 445 l 1
 246 -90 l 2
 221.147460938 -147.26953125 192.521484375 -205 128 -205 c 128
 100 -205 73 -202.333007812 47 -197 c 1
 40 -126 l 1
 70 -137.333007812 98.3330078125 -143 125 -143 c 0
 147.444335938 -143 166.444335938 -124.333007812 182 -87 c 2
 220 1 l 1
 15 445 l 1
 103 445 l 1
 190 262 240 138 253 73 c 1
EndSplineSet
Substitution2: "'smcp' Lowercase to Small Capitals lookup 16 subtable" Yacute.sc
EndChar

StartChar: thorn
Encoding: 254 254 190
Width: 549
GlyphClass: 2
Flags: HMW
LayerCount: 2
Fore
SplineSet
468 377 m 0
 495.333007812 332.333007812 509 280.333007812 509 221 c 128
 509 161.666992188 490.833007812 108 454.5 60 c 128
 418.166992188 12 372.666992188 -12 318 -12 c 128
 263.333007812 -12 215 5.6669921875 173 41 c 1
 173 -194 l 1
 85 -194 l 1
 85 694 l 1
 169 694 l 1
 169 399 l 1
 218.333007812 437 275 456 339 456 c 0
 393 456 436 429.666992188 468 377 c 0
277.5 54 m 128
 359.142578125 54 421 138.602539062 421 221.5 c 128
 421 265.166992188 408.166992188 303.833007812 382.5 337.5 c 128
 356.833007812 371.166992188 322.333007812 388 279 388 c 128
 235.666992188 388 200.333007812 369.333007812 173 332 c 1
 173 133 l 2
 173 119 176.333007812 107.666992188 183 99 c 0
 206.333007812 69 237.833007812 54 277.5 54 c 128
EndSplineSet
Substitution2: "'smcp' Lowercase to Small Capitals lookup 16 subtable" Thorn.sc
EndChar

StartChar: ydieresis
Encoding: 255 255 191
Width: 490
GlyphClass: 2
Flags: HMW
LayerCount: 2
Fore
SplineSet
279 566 m 1
 279 651 l 1
 368 651 l 1
 368 566 l 1
 279 566 l 1
125 566 m 1
 125 651 l 1
 215 651 l 1
 215 566 l 1
 125 566 l 1
253 73 m 1
 262.333007812 129 308.666992188 253 392 445 c 1
 476 445 l 1
 246 -90 l 2
 221.147460938 -147.26953125 192.521484375 -205 128 -205 c 128
 100 -205 73 -202.333007812 47 -197 c 1
 40 -126 l 1
 70 -137.333007812 98.3330078125 -143 125 -143 c 0
 147.444335938 -143 166.444335938 -124.333007812 182 -87 c 2
 220 1 l 1
 15 445 l 1
 103 445 l 1
 190 262 240 138 253 73 c 1
EndSplineSet
Substitution2: "'smcp' Lowercase to Small Capitals lookup 16 subtable" Ydieresis.sc
EndChar

StartChar: Amacron
Encoding: 256 256 192
Width: 708
GlyphClass: 2
Flags: HMW
LayerCount: 2
Fore
SplineSet
162 751 m 1
 162 820 l 1
 546 820 l 1
 546 751 l 1
 162 751 l 1
575 0 m 1
 496 203 l 1
 194 203 l 1
 113 0 l 1
 30 0 l 1
 306 695 l 1
 402 695 l 1
 678 0 l 1
 575 0 l 1
345 611 m 1
 338.333007812 585.666992188 318.333007812 528.666992188 285 440 c 2
 218 263 l 1
 471 263 l 1
 376 516 l 2
 359.333007812 560 349 591.666992188 345 611 c 1
EndSplineSet
Position2: "'cpsp' Capital Spacing lookup 0 subtable" dx=7 dy=0 dh=14 dv=0
EndChar

StartChar: amacron
Encoding: 257 257 193
Width: 510
GlyphClass: 2
Flags: HMW
LayerCount: 2
Fore
SplineSet
61 575 m 1
 61 643 l 1
 446 643 l 1
 446 575 l 1
 61 575 l 1
251.5 462 m 256
 356.743164062 462 433 392.622070312 433 289 c 2
 433 0 l 1
 349 0 l 1
 349 33 l 1
 306.333007812 3.6669921875 249 -11 177 -11 c 0
 106.231445312 -11 55 44.009765625 55 115 c 0
 55 214.416992188 222.2265625 245.548828125 346 248 c 1
 346 288 l 2
 346 346.26953125 315.176757812 399 257 399 c 0
 201 399 147.333007812 381.666992188 96 347 c 1
 90 419 l 1
 143.333007812 447.666992188 197.166992188 462 251.5 462 c 256
346 192 m 1
 206 185.333007812 136 160.333007812 136 117 c 0
 136 95.6669921875 146 79.8330078125 166 69.5 c 256
 186 59.1669921875 207.666992188 54 231 54 c 0
 307.666992188 54 346 80.3330078125 346 133 c 2
 346 192 l 1
EndSplineSet
EndChar

StartChar: Abreve
Encoding: 258 258 194
Width: 708
GlyphClass: 2
Flags: HMW
LayerCount: 2
Fore
SplineSet
534 924 m 1
 532.686523438 822.875 455.608398438 742 353.5 742 c 128
 251.346679688 742 176.313476562 822.884765625 175 924 c 1
 244 924 l 1
 245.30859375 861.165039062 290.747070312 814 354.5 814 c 128
 417.71875 814 464 860.630859375 464 924 c 1
 534 924 l 1
575 0 m 1
 496 203 l 1
 194 203 l 1
 113 0 l 1
 30 0 l 1
 306 695 l 1
 402 695 l 1
 678 0 l 1
 575 0 l 1
345 611 m 1
 338.333007812 586.333007812 318.333007812 529.333007812 285 440 c 2
 218 264 l 1
 471 264 l 1
 376 516 l 2
 359.333007812 560.666992188 349 592.333007812 345 611 c 1
EndSplineSet
Position2: "'cpsp' Capital Spacing lookup 0 subtable" dx=7 dy=0 dh=14 dv=0
EndChar

StartChar: abreve
Encoding: 259 259 195
Width: 510
GlyphClass: 2
Flags: HMW
LayerCount: 2
Fore
SplineSet
433 700 m 1
 431.686523438 598.876953125 355.631835938 518 253.5 518 c 128
 151.369140625 518 75.3134765625 598.883789062 74 700 c 1
 143 700 l 1
 144.3125 638.291015625 191.2109375 590 254 590 c 256
 316.811523438 590 362.6875 638.296875 364 700 c 1
 433 700 l 1
251.5 463 m 128
 356.750976562 463 433 392.607421875 433 289 c 2
 433 0 l 1
 349 0 l 1
 349 33 l 1
 306.333007812 3.6669921875 249 -11 177 -11 c 0
 106.231445312 -11 55 44.009765625 55 115 c 0
 55 165 93.6669921875 201.333007812 171 224 c 0
 220.333007812 238.666992188 278.666992188 246.666992188 346 248 c 1
 346 288 l 2
 346 346.26953125 315.176757812 399 257 399 c 0
 201 399 147.333007812 381.666992188 96 347 c 1
 90 419 l 1
 143.333007812 448.333007812 197.166992188 463 251.5 463 c 128
346 192 m 1
 206 185.333007812 136 160.333007812 136 117 c 0
 136 95.6669921875 146 80 166 70 c 128
 186 60 207.666992188 55 231 55 c 0
 307.666992188 55 346 81 346 133 c 2
 346 192 l 1
EndSplineSet
Substitution2: "'smcp' Lowercase to Small Capitals lookup 16 subtable" Abreve.sc
EndChar

StartChar: Aogonek
Encoding: 260 260 196
Width: 708
GlyphClass: 2
Flags: HMW
LayerCount: 2
Fore
SplineSet
696 -186 m 1
 657.333007812 -203.333007812 622.666992188 -212 592 -212 c 128
 532.134765625 -212 485.705078125 -181.81640625 483 -125 c 0
 481 -73.6669921875 511.333007812 -31.3330078125 574 2 c 1
 496 202 l 1
 194 202 l 1
 113 -1 l 1
 30 -1 l 1
 306 694 l 1
 402 694 l 1
 678 -1 l 1
 644 -1 l 1
 583.333007812 -33.6669921875 553.666992188 -67.3330078125 555 -102 c 0
 555 -123.333007812 572.666992188 -135 608 -137 c 0
 626.666992188 -138.333007812 650.666992188 -133.666992188 680 -123 c 1
 696 -186 l 1
345 610 m 1
 338.333007812 584.666992188 318.333007812 527.666992188 285 439 c 2
 218 262 l 1
 471 262 l 1
 376 515 l 2
 359.333007812 559 349 590.666992188 345 610 c 1
EndSplineSet
Position2: "'cpsp' Capital Spacing lookup 0 subtable" dx=7 dy=0 dh=14 dv=0
EndChar

StartChar: aogonek
Encoding: 261 261 197
Width: 510
GlyphClass: 2
Flags: HMW
LayerCount: 2
Fore
SplineSet
251.5 461 m 128
 356.208984375 461 433 390.762695312 433 288 c 2
 433 -2 l 1
 420 -2 l 1
 358.666992188 -34 328.333007812 -67.3330078125 329 -102 c 0
 329.666992188 -124 347.333007812 -136 382 -138 c 0
 400.666992188 -138.666992188 424.666992188 -133.666992188 454 -123 c 1
 470 -186 l 1
 431.333007812 -203.333007812 396.833007812 -212 366.5 -212 c 128
 307.032226562 -212 260.694335938 -181.5859375 258 -125 c 0
 255.333007812 -73.6669921875 285.666992188 -31.3330078125 349 2 c 1
 349 32 l 1
 306.333007812 2.6669921875 249 -12 177 -12 c 0
 106.229492188 -12 55 41.98046875 55 113 c 0
 55 163 93.6669921875 199.666992188 171 223 c 0
 220.333007812 237.666992188 278.666992188 245.666992188 346 247 c 1
 346 287 l 2
 346 345.302734375 315.181640625 397 257 397 c 0
 201 397 147.333007812 380 96 346 c 1
 90 417 l 1
 143.333007812 446.333007812 197.166992188 461 251.5 461 c 128
136 115 m 0
 136 72.0458984375 187.62109375 53 231 53 c 0
 307.666992188 53 346 79.3330078125 346 132 c 2
 346 191 l 1
 206 184.333007812 136 159 136 115 c 0
EndSplineSet
Substitution2: "'smcp' Lowercase to Small Capitals lookup 16 subtable" Aogonek.sc
EndChar

StartChar: Cacute
Encoding: 262 262 198
Width: 679
GlyphClass: 2
Flags: HMW
LayerCount: 2
Fore
SplineSet
363 742 m 1
 260 742 l 1
 452 868 l 1
 578 868 l 1
 363 742 l 1
407 -11 m 0
 310.333333333 -11 229.5 24.3333333333 164.5 95 c 128
 99.5 165.666666667 67 249.833333333 67 347.5 c 256
 67 445.166666667 99.5 529.5 164.5 600.5 c 128
 229.5 671.5 310.333333333 707 407 707 c 0
 476.333333333 707 543.333333333 694.666666667 608 670 c 1
 592 583 l 1
 536 619.666666667 473 638 403 638 c 256
 333 638 275 607 229 545 c 0
 186.333333333 488.333333333 165 422.5 165 347.5 c 256
 165 272.5 186.333333333 207 229 151 c 0
 275.666666667 89 335 58 407 58 c 0
 451.666666667 58 487.166666667 62 513.5 70 c 128
 539.833333333 78 572.666666667 94.6666666667 612 120 c 1
 619 46 l 1
 578.333333333 22.6666666667 544.166666667 7.33333333333 516.5 0 c 128
 488.833333333 -7.33333333333 452.333333333 -11 407 -11 c 0
EndSplineSet
Position2: "'cpsp' Capital Spacing lookup 0 subtable" dx=7 dy=0 dh=14 dv=0
EndChar

StartChar: cacute
Encoding: 263 263 199
Width: 472
GlyphClass: 2
Flags: HMW
LayerCount: 2
Fore
SplineSet
249 523 m 1
 178 523 l 1
 322 694 l 1
 411 694 l 1
 249 523 l 1
439 41 m 1
 386.333007812 6.3330078125 328.166992188 -11 264.5 -11 c 128
 200.833007812 -11 146.833007812 11.8330078125 102.5 57.5 c 128
 58.1669921875 103.166992188 36 159 36 225 c 128
 36 291 58.1669921875 347.166992188 102.5 393.5 c 128
 146.833007812 439.833007812 202.666992188 463 270 463 c 0
 325.333007812 463 380 448.333007812 434 419 c 1
 421 349 l 1
 371.666992188 379 321.666992188 394 271 394 c 0
 240.333007812 394 212.833007812 385.833007812 188.5 369.5 c 0
 144.833007812 340.189453125 123 291.689453125 123 224 c 0
 123 178 135.666992188 138.833007812 161 106.5 c 128
 186.333007812 74.1669921875 221.666992188 58 267 58 c 0
 327 58 382.333007812 76.3330078125 433 113 c 1
 439 41 l 1
EndSplineSet
Substitution2: "'smcp' Lowercase to Small Capitals lookup 16 subtable" Cacute.sc
EndChar

StartChar: Ccircumflex
Encoding: 264 264 200
Width: 679
GlyphClass: 2
Flags: HMW
LayerCount: 2
Fore
SplineSet
469 732 m 1
 369 827 l 1
 268 732 l 1
 199 732 l 1
 336 870 l 1
 401 870 l 1
 538 732 l 1
 469 732 l 1
407 -11 m 0
 310.333333333 -11 229.5 24.3333333333 164.5 95 c 128
 99.5 165.666666667 67 249.833333333 67 347.5 c 256
 67 445.166666667 99.5 529.5 164.5 600.5 c 128
 229.5 671.5 310.333333333 707 407 707 c 0
 476.333333333 707 543.333333333 694.666666667 608 670 c 1
 592 583 l 1
 536 619.666666667 473 638 403 638 c 256
 333 638 275 607 229 545 c 0
 186.333333333 488.333333333 165 422.5 165 347.5 c 256
 165 272.5 186.333333333 207 229 151 c 0
 275.666666667 89 335 58 407 58 c 0
 451.666666667 58 487.166666667 62 513.5 70 c 128
 539.833333333 78 572.666666667 94.6666666667 612 120 c 1
 619 46 l 1
 578.333333333 22.6666666667 544.166666667 7.33333333333 516.5 0 c 128
 488.833333333 -7.33333333333 452.333333333 -11 407 -11 c 0
EndSplineSet
Position2: "'cpsp' Capital Spacing lookup 0 subtable" dx=7 dy=0 dh=14 dv=0
EndChar

StartChar: ccircumflex
Encoding: 265 265 201
Width: 472
GlyphClass: 2
Flags: HMW
LayerCount: 2
Fore
SplineSet
357 521 m 1
 257 642 l 1
 158 521 l 1
 89 521 l 1
 224 697 l 1
 290 697 l 1
 425 521 l 1
 357 521 l 1
439 41 m 1
 386.333007812 6.3330078125 328.166992188 -11 264.5 -11 c 128
 200.833007812 -11 146.833007812 11.8330078125 102.5 57.5 c 128
 58.1669921875 103.166992188 36 159 36 225 c 128
 36 291 58.1669921875 347.166992188 102.5 393.5 c 128
 146.833007812 439.833007812 202.666992188 463 270 463 c 0
 325.333007812 463 380 448.333007812 434 419 c 1
 421 349 l 1
 371.666992188 379 321.666992188 394 271 394 c 0
 240.333007812 394 212.833007812 385.833007812 188.5 369.5 c 0
 144.833007812 340.189453125 123 291.689453125 123 224 c 0
 123 178 135.666992188 138.833007812 161 106.5 c 128
 186.333007812 74.1669921875 221.666992188 58 267 58 c 0
 327 58 382.333007812 76.3330078125 433 113 c 1
 439 41 l 1
EndSplineSet
EndChar

StartChar: Cdotaccent
Encoding: 266 266 202
Width: 679
GlyphClass: 2
Flags: HMW
LayerCount: 2
Fore
SplineSet
319 732 m 1
 319 825 l 1
 417 825 l 1
 417 732 l 1
 319 732 l 1
407 -11 m 0
 310.333333333 -11 229.5 24.3333333333 164.5 95 c 128
 99.5 165.666666667 67 249.833333333 67 347.5 c 256
 67 445.166666667 99.5 529.5 164.5 600.5 c 128
 229.5 671.5 310.333333333 707 407 707 c 0
 476.333333333 707 543.333333333 694.666666667 608 670 c 1
 592 583 l 1
 536 619.666666667 473 638 403 638 c 256
 333 638 275 607 229 545 c 0
 186.333333333 488.333333333 165 422.5 165 347.5 c 256
 165 272.5 187.333333333 205.5 232 146.5 c 256
 276.666666667 87.5 335 58 407 58 c 0
 451.666666667 58 487.166666667 62 513.5 70 c 128
 539.833333333 78 572.666666667 94.6666666667 612 120 c 1
 619 46 l 1
 578.333333333 22.6666666667 544.166666667 7.33333333333 516.5 0 c 128
 488.833333333 -7.33333333333 452.333333333 -11 407 -11 c 0
EndSplineSet
Position2: "'cpsp' Capital Spacing lookup 0 subtable" dx=7 dy=0 dh=14 dv=0
EndChar

StartChar: cdotaccent
Encoding: 267 267 203
Width: 472
GlyphClass: 2
Flags: HMW
LayerCount: 2
Fore
SplineSet
207 562 m 1
 207 655 l 1
 306 655 l 1
 306 562 l 1
 207 562 l 1
439 41 m 1
 386.333007812 6.3330078125 328.166992188 -11 264.5 -11 c 128
 200.833007812 -11 146.833007812 11.6669921875 102.5 57 c 128
 58.1669921875 102.333007812 36 158.166992188 36 224.5 c 128
 36 290.833007812 58.1669921875 347 102.5 393 c 128
 146.833007812 439 202.666992188 462 270 462 c 0
 325.333007812 462 380 447.666992188 434 419 c 1
 421 349 l 1
 371.666992188 379 321.666992188 394 271 394 c 0
 240.333007812 394 212.833007812 385.833007812 188.5 369.5 c 0
 144.833007812 340.189453125 123 291.689453125 123 224 c 0
 123 178 135.666992188 138.666992188 161 106 c 128
 186.333007812 73.3330078125 221.666992188 57 267 57 c 0
 327 57 382.333007812 75.6669921875 433 113 c 1
 439 41 l 1
EndSplineSet
EndChar

StartChar: Ccaron
Encoding: 268 268 204
Width: 679
GlyphClass: 2
Flags: HMW
LayerCount: 2
Fore
SplineSet
401 732 m 1
 336 732 l 1
 199 870 l 1
 268 870 l 1
 369 775 l 1
 469 870 l 1
 538 870 l 1
 401 732 l 1
407 -11 m 0
 310.333333333 -11 229.5 24.3333333333 164.5 95 c 128
 99.5 165.666666667 67 249.833333333 67 347.5 c 256
 67 445.166666667 99.5 529.5 164.5 600.5 c 128
 229.5 671.5 310.333333333 707 407 707 c 0
 476.333333333 707 543.333333333 694.666666667 608 670 c 1
 592 583 l 1
 536 619.666666667 473 638 403 638 c 256
 333 638 275 607 229 545 c 0
 186.333333333 488.333333333 165 422.5 165 347.5 c 256
 165 272.5 186.333333333 207 229 151 c 0
 275.666666667 89 335 58 407 58 c 0
 451.666666667 58 487.166666667 62 513.5 70 c 128
 539.833333333 78 572.666666667 94.6666666667 612 120 c 1
 619 46 l 1
 578.333333333 22.6666666667 544.166666667 7.33333333333 516.5 0 c 128
 488.833333333 -7.33333333333 452.333333333 -11 407 -11 c 0
EndSplineSet
Position2: "'cpsp' Capital Spacing lookup 0 subtable" dx=7 dy=0 dh=14 dv=0
EndChar

StartChar: ccaron
Encoding: 269 269 205
Width: 472
GlyphClass: 2
Flags: HMW
LayerCount: 2
Fore
SplineSet
290 521 m 1
 224 521 l 1
 89 697 l 1
 158 697 l 1
 257 576 l 1
 357 697 l 1
 425 697 l 1
 290 521 l 1
439 41 m 1
 386.333007812 6.3330078125 328.166992188 -11 264.5 -11 c 128
 200.833007812 -11 146.833007812 11.8330078125 102.5 57.5 c 128
 58.1669921875 103.166992188 36 159 36 225 c 128
 36 291 58.1669921875 347.166992188 102.5 393.5 c 128
 146.833007812 439.833007812 202.666992188 463 270 463 c 0
 325.333007812 463 380 448.333007812 434 419 c 1
 421 349 l 1
 371.666992188 379 321.666992188 394 271 394 c 0
 240.333007812 394 212.833007812 385.833007812 188.5 369.5 c 0
 144.833007812 340.189453125 123 291.689453125 123 224 c 0
 123 178 135.666992188 138.833007812 161 106.5 c 128
 186.333007812 74.1669921875 221.666992188 58 267 58 c 0
 327 58 382.333007812 76.3330078125 433 113 c 1
 439 41 l 1
EndSplineSet
Substitution2: "'smcp' Lowercase to Small Capitals lookup 16 subtable" Ccaron.sc
EndChar

StartChar: Dcaron
Encoding: 270 270 206
Width: 767
GlyphClass: 2
Flags: HMW
LayerCount: 2
Fore
SplineSet
305 732 m 1
 239 732 l 1
 102 870 l 1
 171 870 l 1
 272 775 l 1
 373 870 l 1
 442 870 l 1
 305 732 l 1
377 0 m 2
 98 0 l 1
 98 695 l 1
 376 695 l 2
 469.333333333 695 546.833333333 659.833333333 608.5 589.5 c 256
 670.166666667 519.166666667 701 437 701 343 c 256
 701 249 670 168.333333333 608 101 c 128
 546 33.6666666667 469 0 377 0 c 2
352 634 m 2
 194 634 l 1
 194 61 l 1
 352 61 l 2
 429.333333333 61 490.833333333 88 536.5 142 c 256
 582.166666667 196 605 263 605 343 c 256
 605 423 582.5 491.5 537.5 548.5 c 256
 492.5 605.5 430.666666667 634 352 634 c 2
EndSplineSet
Position2: "'cpsp' Capital Spacing lookup 0 subtable" dx=7 dy=0 dh=14 dv=0
EndChar

StartChar: dcaron
Encoding: 271 271 207
Width: 549
GlyphClass: 2
Flags: HMW
LayerCount: 2
Fore
SplineSet
536 503 m 1
 492 503 l 1
 515 615 l 1
 493 615 l 1
 493 694 l 1
 576 694 l 1
 576 618 l 1
 536 503 l 1
372 0 m 1
 372 48 l 1
 327.333007812 8.6669921875 276.666992188 -11 220 -11 c 256
 163.333007812 -11 118.5 13.1669921875 85.5 61.5 c 256
 52.5 109.833007812 36 163.666992188 36 223 c 256
 36 282.333007812 52.3330078125 334.666992188 85 380 c 0
 121 431.333007812 167 457 223 457 c 256
 279 457 329.666992188 439.666992188 375 405 c 1
 375 694 l 1
 459 694 l 1
 459 0 l 1
 372 0 l 1
262 55 m 0
 309.930664062 55 372 92.3251953125 372 140 c 2
 372 338 l 1
 346 373.333007812 311.166992188 391 267.5 391 c 256
 177.618164062 391 123 313.739257812 123 222.5 c 256
 123 130.400390625 170.681640625 55 262 55 c 0
EndSplineSet
Substitution2: "'smcp' Lowercase to Small Capitals lookup 16 subtable" Dcaron.sc
EndChar

StartChar: Dcroat
Encoding: 272 272 208
Width: 767
GlyphClass: 2
Flags: HMW
CounterMasks: 1 e0
LayerCount: 2
Fore
SplineSet
373 0 m 2
 94 0 l 1
 94 313 l 1
 12 313 l 1
 12 381 l 1
 94 381 l 1
 94 694 l 1
 372 694 l 2
 465.333007812 694 542.833007812 658.833007812 604.5 588.5 c 256
 666.166992188 518.166992188 697 436 697 342 c 256
 697 248 666 167.5 604 100.5 c 256
 542 33.5 465 0 373 0 c 2
348 633 m 2
 190 633 l 1
 190 381 l 1
 296 381 l 1
 296 313 l 1
 190 313 l 1
 190 61 l 1
 348 61 l 2
 425.333007812 61 486.833007812 88 532.5 142 c 256
 578.166992188 196 601 262.833007812 601 342.5 c 256
 601 422.166992188 578.5 490.5 533.5 547.5 c 256
 488.5 604.5 426.666992188 633 348 633 c 2
EndSplineSet
Position2: "'cpsp' Capital Spacing lookup 0 subtable" dx=7 dy=0 dh=14 dv=0
EndChar

StartChar: dcroat
Encoding: 273 273 209
Width: 549
GlyphClass: 2
Flags: HMW
LayerCount: 2
Fore
SplineSet
459 533 m 1
 459 0 l 1
 372 0 l 1
 372 48 l 1
 327.333007812 8.6669921875 276.666992188 -11 220 -11 c 256
 163.333007812 -11 118.5 13.1669921875 85.5 61.5 c 256
 52.5 109.833007812 36 163.666992188 36 223 c 256
 36 282.333007812 52.3330078125 334.666992188 85 380 c 0
 121 431.333007812 167 457 223 457 c 256
 279 457 329.666992188 439.666992188 375 405 c 1
 375 533 l 1
 216 533 l 1
 216 602 l 1
 375 602 l 1
 375 694 l 1
 459 694 l 1
 459 602 l 1
 541 602 l 1
 541 533 l 1
 459 533 l 1
262 55 m 0
 309.930664062 55 372 92.3251953125 372 140 c 2
 372 338 l 1
 346 373.333007812 311.166992188 391 267.5 391 c 256
 177.618164062 391 123 313.739257812 123 222.5 c 256
 123 130.400390625 170.681640625 55 262 55 c 0
EndSplineSet
Substitution2: "'smcp' Lowercase to Small Capitals lookup 16 subtable" Dcroat.sc
EndChar

StartChar: Emacron
Encoding: 274 274 210
Width: 637
GlyphClass: 2
Flags: HMW
LayerCount: 2
Fore
SplineSet
123 751 m 1
 123 820 l 1
 508 820 l 1
 508 751 l 1
 123 751 l 1
196 75 m 1
 300.810546875 75 377.43359375 76 450 76 c 2
 585 76 l 1
 585 0 l 1
 97 0 l 1
 97 692 l 1
 571 692 l 1
 571 622 l 1
 376 622 l 2
 369.478515625 622 344.513671875 623 338 623 c 2
 196 623 l 1
 196 393 l 1
 542 393 l 1
 542 327 l 1
 196 327 l 1
 196 75 l 1
EndSplineSet
Position2: "'cpsp' Capital Spacing lookup 0 subtable" dx=7 dy=0 dh=14 dv=0
EndChar

StartChar: emacron
Encoding: 275 275 211
Width: 472
GlyphClass: 2
Flags: HMW
LayerCount: 2
Fore
SplineSet
42 575 m 1
 42 643 l 1
 427 643 l 1
 427 575 l 1
 42 575 l 1
114 217 m 1
 116 173 130.833007812 134.833007812 158.5 102.5 c 128
 186.166992188 70.1669921875 222 54 266 54 c 0
 324 54 377.666992188 73.3330078125 427 112 c 1
 434 42 l 1
 382.666992188 6.6669921875 325.333007812 -11 262 -11 c 128
 198.666992188 -11 145 12.1669921875 101 58.5 c 128
 57 104.833007812 35 160.166992188 35 224.5 c 128
 35 288.833007812 55.1669921875 344.5 95.5 391.5 c 128
 135.833007812 438.5 188.166992188 462 252.5 462 c 128
 381.84375 462 438 356.334960938 438 217 c 1
 114 217 l 1
373 277 m 1
 362.122070312 341.05859375 322.827148438 397 251 397 c 128
 179.899414062 397 134.469726562 336.084960938 120 277 c 1
 373 277 l 1
EndSplineSet
EndChar

StartChar: Ebreve
Encoding: 276 276 212
Width: 637
GlyphClass: 2
Flags: HMW
LayerCount: 2
Fore
SplineSet
495 924 m 1
 493.68359375 822.609375 417.551757812 742 315 742 c 256
 212.423828125 742 137.31640625 822.615234375 136 924 c 1
 205 924 l 1
 206.303710938 861.426757812 252.6875 814 316 814 c 256
 379.329101562 814 424.696289062 861.436523438 426 924 c 1
 495 924 l 1
196 75 m 1
 300.810546875 75 377.43359375 76 450 76 c 2
 585 76 l 1
 585 0 l 1
 97 0 l 1
 97 692 l 1
 571 692 l 1
 571 623 l 1
 475.328125 623 404.595703125 624 338 624 c 2
 196 624 l 1
 196 393 l 1
 542 393 l 1
 542 327 l 1
 196 327 l 1
 196 75 l 1
EndSplineSet
Position2: "'cpsp' Capital Spacing lookup 0 subtable" dx=7 dy=0 dh=14 dv=0
EndChar

StartChar: ebreve
Encoding: 277 277 213
Width: 472
GlyphClass: 2
Flags: HMW
LayerCount: 2
Fore
SplineSet
414 700 m 1
 412.686523438 598.876953125 336.631835938 518 234.5 518 c 128
 132.369140625 518 56.3134765625 598.883789062 55 700 c 1
 124 700 l 1
 125.3125 638.291015625 172.2109375 590 235 590 c 256
 297.811523438 590 343.6875 638.296875 345 700 c 1
 414 700 l 1
114 217 m 1
 117.887695312 131.461914062 176.938476562 55 266 55 c 0
 324 55 377.666992188 74.3330078125 427 113 c 1
 434 42 l 1
 382.666992188 6.6669921875 325.333007812 -11 262 -11 c 128
 198.666992188 -11 145 12.1669921875 101 58.5 c 128
 57 104.833007812 35 160.166992188 35 224.5 c 128
 35 288.833007812 55.1669921875 344.666992188 95.5 392 c 128
 135.833007812 439.333007812 188.166992188 463 252.5 463 c 128
 381.422851562 463 438 356.265625 438 217 c 1
 114 217 l 1
373 277 m 1
 362.122070312 341.05859375 322.827148438 397 251 397 c 128
 179.899414062 397 134.469726562 336.084960938 120 277 c 1
 373 277 l 1
EndSplineSet
EndChar

StartChar: Edotaccent
Encoding: 278 278 214
Width: 637
GlyphClass: 2
Flags: HMW
LayerCount: 2
Fore
SplineSet
265 732 m 1
 265 825 l 1
 364 825 l 1
 364 732 l 1
 265 732 l 1
196 75 m 1
 300.810546875 75 377.43359375 76 450 76 c 2
 585 76 l 1
 585 0 l 1
 97 0 l 1
 97 692 l 1
 571 692 l 1
 571 622 l 1
 376 622 l 2
 369.478515625 622 344.513671875 623 338 623 c 2
 196 623 l 1
 196 393 l 1
 542 393 l 1
 542 327 l 1
 196 327 l 1
 196 75 l 1
EndSplineSet
Position2: "'cpsp' Capital Spacing lookup 0 subtable" dx=7 dy=0 dh=14 dv=0
EndChar

StartChar: edotaccent
Encoding: 279 279 215
Width: 472
GlyphClass: 2
Flags: HMW
LayerCount: 2
Fore
SplineSet
184 562 m 1
 184 655 l 1
 283 655 l 1
 283 562 l 1
 184 562 l 1
114 217 m 1
 117.887695312 131.461914062 176.938476562 55 266 55 c 0
 324 55 377.666992188 74.3330078125 427 113 c 1
 434 42 l 1
 382.666992188 6.6669921875 325.333007812 -11 262 -11 c 128
 198.666992188 -11 145 12.1669921875 101 58.5 c 128
 57 104.833007812 35 160.166992188 35 224.5 c 128
 35 288.833007812 55.1669921875 344.5 95.5 391.5 c 128
 135.833007812 438.5 188.166992188 462 252.5 462 c 128
 381.84375 462 438 356.334960938 438 217 c 1
 114 217 l 1
373 277 m 1
 362.122070312 341.05859375 322.827148438 397 251 397 c 128
 179.899414062 397 134.469726562 336.084960938 120 277 c 1
 373 277 l 1
EndSplineSet
EndChar

StartChar: Eogonek
Encoding: 280 280 216
Width: 637
GlyphClass: 2
Flags: HMW
LayerCount: 2
Fore
SplineSet
413 73 m 2
 419.626953125 73 443.379882812 74 450 74 c 2
 585 74 l 1
 585 -1 l 1
 536 -1 l 1
 474 -34.3330078125 443.666992188 -68 445 -102 c 0
 445 -123.333007812 462.666992188 -135 498 -137 c 0
 516.666992188 -138.333007812 540.666992188 -133.666992188 570 -123 c 1
 586 -186 l 1
 547.333007812 -203.333007812 512.666992188 -212 482 -212 c 128
 422.134765625 -212 375.705078125 -181.81640625 373 -125 c 0
 371 -81.6669921875 399.666992188 -40.3330078125 459 -1 c 1
 97 -1 l 1
 97 691 l 1
 571 691 l 1
 571 621 l 1
 376 621 l 2
 369.478515625 621 344.513671875 622 338 622 c 2
 196 622 l 1
 196 392 l 1
 542 392 l 1
 542 326 l 1
 196 326 l 1
 196 73 l 1
 413 73 l 2
EndSplineSet
Position2: "'cpsp' Capital Spacing lookup 0 subtable" dx=7 dy=0 dh=14 dv=0
EndChar

StartChar: eogonek
Encoding: 281 281 217
Width: 472
GlyphClass: 2
Flags: HMW
LayerCount: 2
Fore
SplineSet
114 216 m 1
 117.866210938 129.654296875 176.45703125 53 266 53 c 0
 324 53 377.666992188 72.3330078125 427 111 c 1
 434 40 l 1
 410 24.6669921875 383.333007812 12 354 2 c 1
 292 -31.3330078125 261.333007812 -66 262 -102 c 0
 262.666992188 -123.333007812 280.333007812 -135.333007812 315 -138 c 0
 333.666992188 -138.666992188 357.666992188 -133.666992188 387 -123 c 1
 403 -186 l 1
 364.333007812 -203.333007812 329.666992188 -212 299 -212 c 128
 238.541015625 -212 193.685546875 -182.743164062 191 -125 c 0
 188.333007812 -83 210.333007812 -45.3330078125 257 -12 c 1
 193.666992188 -10 140.833007812 14 98.5 60 c 128
 56.1669921875 106 35 160.666992188 35 224 c 128
 35 287.333007812 55.1669921875 342.666992188 95.5 390 c 128
 135.833007812 437.333007812 188.166992188 461 252.5 461 c 128
 381.84375 461 438 354.631835938 438 216 c 1
 114 216 l 1
373 275 m 1
 362.173828125 339.956054688 323.34765625 395 251 395 c 128
 179.899414062 395 134.469726562 334.084960938 120 275 c 1
 373 275 l 1
EndSplineSet
Substitution2: "'smcp' Lowercase to Small Capitals lookup 16 subtable" Eogonek.sc
EndChar

StartChar: Ecaron
Encoding: 282 282 218
Width: 637
GlyphClass: 2
Flags: HMW
LayerCount: 2
Fore
SplineSet
348 732 m 1
 282 732 l 1
 145 870 l 1
 214 870 l 1
 315 775 l 1
 416 870 l 1
 485 870 l 1
 348 732 l 1
196 75 m 1
 300.810546875 75 377.43359375 76 450 76 c 2
 585 76 l 1
 585 0 l 1
 97 0 l 1
 97 692 l 1
 571 692 l 1
 571 622 l 1
 376 622 l 2
 369.478515625 622 344.513671875 623 338 623 c 2
 196 623 l 1
 196 393 l 1
 542 393 l 1
 542 327 l 1
 196 327 l 1
 196 75 l 1
EndSplineSet
Position2: "'cpsp' Capital Spacing lookup 0 subtable" dx=7 dy=0 dh=14 dv=0
EndChar

StartChar: ecaron
Encoding: 283 283 219
Width: 472
GlyphClass: 2
Flags: HMW
LayerCount: 2
Fore
SplineSet
267 521 m 1
 201 521 l 1
 66 697 l 1
 135 697 l 1
 234 576 l 1
 334 697 l 1
 402 697 l 1
 267 521 l 1
114 217 m 1
 117.887695312 131.461914062 176.938476562 55 266 55 c 0
 324 55 377.666992188 74.3330078125 427 113 c 1
 434 42 l 1
 382.666992188 6.6669921875 325.333007812 -11 262 -11 c 128
 198.666992188 -11 145 12.1669921875 101 58.5 c 128
 57 104.833007812 35 160.166992188 35 224.5 c 128
 35 288.833007812 55.1669921875 344.666992188 95.5 392 c 128
 135.833007812 439.333007812 188.166992188 463 252.5 463 c 128
 381.422851562 463 438 356.265625 438 217 c 1
 114 217 l 1
373 277 m 1
 362.122070312 341.05859375 322.827148438 397 251 397 c 128
 179.899414062 397 134.469726562 336.084960938 120 277 c 1
 373 277 l 1
EndSplineSet
Substitution2: "'smcp' Lowercase to Small Capitals lookup 16 subtable" Ecaron.sc
EndChar

StartChar: Gcircumflex
Encoding: 284 284 220
Width: 708
GlyphClass: 2
Flags: HMW
LayerCount: 2
Fore
SplineSet
450 732 m 1
 350 827 l 1
 249 732 l 1
 180 732 l 1
 317 870 l 1
 382 870 l 1
 520 732 l 1
 450 732 l 1
407 -11 m 0
 310.333333333 -11 229.5 24.3333333333 164.5 95 c 128
 99.5 165.666666667 67 249.833333333 67 347.5 c 256
 67 445.166666667 99.5 529.5 164.5 600.5 c 128
 229.5 671.5 310.333333333 707 407 707 c 0
 485 707 556.666666667 690 622 656 c 1
 606 569 l 1
 547.333333333 615 481.333333333 638 408 638 c 256
 334.666666667 638 275 607 229 545 c 0
 186.333333333 488.333333333 165 422.5 165 347.5 c 256
 165 272.5 186.333333333 207 229 151 c 0
 275.666666667 89 335 58 407 58 c 0
 454.333333333 58 499.666666667 64.6666666667 543 78 c 1
 543 238 l 1
 405 238 l 1
 405 303 l 1
 631 303 l 1
 631 39 l 1
 559.666666667 5.66666666667 485 -11 407 -11 c 0
EndSplineSet
Position2: "'cpsp' Capital Spacing lookup 0 subtable" dx=7 dy=0 dh=14 dv=0
EndChar

StartChar: gcircumflex
Encoding: 285 285 221
Width: 531
GlyphClass: 2
Flags: HMW
LayerCount: 2
Fore
SplineSet
328 521 m 1
 229 642 l 1
 129 521 l 1
 61 521 l 1
 196 697 l 1
 262 697 l 1
 397 521 l 1
 328 521 l 1
65 298.5 m 128
 65 381.774414062 145.43359375 456 229 456 c 128
 271.666992188 456 307 445.666992188 335 425 c 1
 387 445.666992188 443 456 503 456 c 1
 515 388 l 1
 484.333007812 390.666992188 463.666992188 392 453 392 c 128
 436.282226562 392 389.841796875 388 374 388 c 1
 395.333007812 358.666992188 406 326.666992188 406 292 c 0
 406 199.318359375 327.522460938 127 235 127 c 0
 200.333007812 127 168.666992188 136.333007812 140 155 c 1
 134 146.333007812 131 135.666992188 131 123 c 0
 131 89 150.333007812 72 189 72 c 2
 281 72 l 2
 297.666992188 72 321.666992188 70.5 353 67.5 c 128
 384.333007812 64.5 416.666992188 52.6669921875 450 32 c 128
 483.333007812 11.3330078125 500 -22.1669921875 500 -68.5 c 128
 500 -114.833007812 470.666992188 -150.666992188 412 -176 c 0
 366.666992188 -196 317.666992188 -206 265 -206 c 128
 212.333007812 -206 163.333007812 -196 118 -176 c 0
 59.3330078125 -150.666992188 30 -115.666992188 30 -71 c 128
 30 -26.3330078125 52 8.6669921875 96 34 c 1
 78.6669921875 55.3330078125 70 80.5 70 109.5 c 128
 70 138.5 80 166.333007812 100 193 c 1
 76.6669921875 221.666992188 65 256.833007812 65 298.5 c 128
327 299 m 128
 327 352.724609375 291.504882812 395 235.5 395 c 128
 175.989257812 395 144 351.379882812 144 292 c 256
 144 234.603515625 175.564453125 189 232 189 c 128
 259.333007812 189 280.666992188 196 296 210 c 128
 326.505859375 237.852539062 327 243.90625 327 299 c 128
265 -144 m 256
 328.280273438 -144 421 -122.095703125 421 -70 c 0
 421 -26 374.666992188 -4 282 -4 c 2
 188 -4 l 2
 141.369140625 -4 109 -29.2080078125 109 -68.5 c 128
 109 -95.5 129.666992188 -116 171 -130 c 0
 201 -139.333007812 232.333007812 -144 265 -144 c 256
EndSplineSet
EndChar

StartChar: Gbreve
Encoding: 286 286 222
Width: 708
GlyphClass: 2
Flags: HMW
LayerCount: 2
Fore
SplineSet
530 924 m 1
 528.686694515 822.87547765 451.608823504 742 349.5 742 c 128
 247.346326719 742 172.313180146 822.885128751 171 924 c 1
 240 924 l 1
 241.309053282 861.165442485 286.746633396 814 350.5 814 c 128
 413.718456283 814 460 860.630837468 460 924 c 1
 530 924 l 1
407 -11 m 0
 310.333333333 -11 229.5 24.3333333333 164.5 95 c 128
 99.5 165.666666667 67 250 67 348 c 256
 67 446 99.5 530.333333333 164.5 601 c 128
 229.5 671.666666667 310.333333333 707 407 707 c 0
 485 707 556.666666667 690 622 656 c 1
 606 569 l 1
 547.333333333 615.666666667 481.333333333 639 408 639 c 128
 334.666666667 639 275 607.666666667 229 545 c 0
 186.333333333 488.333333333 165 422.5 165 347.5 c 128
 165 272.5 186.333333333 207 229 151 c 0
 275.666666667 89 335 58 407 58 c 0
 454.333333333 58 499.666666667 64.6666666667 543 78 c 1
 543 238 l 1
 405 238 l 1
 405 303 l 1
 631 303 l 1
 631 39 l 1
 559.666666667 5.66666666667 485 -11 407 -11 c 0
EndSplineSet
Position2: "'cpsp' Capital Spacing lookup 0 subtable" dx=7 dy=0 dh=14 dv=0
EndChar

StartChar: gbreve
Encoding: 287 287 223
Width: 531
GlyphClass: 2
Flags: HMW
LayerCount: 2
Fore
SplineSet
409 700 m 1
 407.686523438 598.875 330.608398438 518 228.5 518 c 128
 126.346679688 518 51.3134765625 598.884765625 50 700 c 1
 119 700 l 1
 120.318359375 638.02734375 166.267578125 590 229.5 590 c 128
 293.250976562 590 338.69140625 637.170898438 340 700 c 1
 409 700 l 1
65 298.5 m 128
 65 381.774414062 145.43359375 456 229 456 c 128
 271.666992188 456 307 445.666992188 335 425 c 1
 387 445.666992188 443 456 503 456 c 1
 515 388 l 1
 484.333007812 390.666992188 463.666992188 392 453 392 c 128
 436.282226562 392 389.841796875 388 374 388 c 1
 395.333007812 358.666992188 406 326.666992188 406 292 c 0
 406 199.318359375 327.522460938 127 235 127 c 0
 200.333007812 127 168.666992188 136.333007812 140 155 c 1
 134 146.333007812 131 135.666992188 131 123 c 0
 131 89 150.333007812 72 189 72 c 2
 281 72 l 2
 297.666992188 72 321.666992188 70.5 353 67.5 c 128
 384.333007812 64.5 416.666992188 52.6669921875 450 32 c 128
 483.333007812 11.3330078125 500 -22.1669921875 500 -68.5 c 128
 500 -114.833007812 470.666992188 -150.666992188 412 -176 c 0
 366.666992188 -196 317.666992188 -206 265 -206 c 128
 212.333007812 -206 163.333007812 -196 118 -176 c 0
 59.3330078125 -150.666992188 30 -115.666992188 30 -71 c 128
 30 -26.3330078125 52 8.6669921875 96 34 c 1
 78.6669921875 55.3330078125 70 80.5 70 109.5 c 128
 70 138.5 80 166.333007812 100 193 c 1
 76.6669921875 221.666992188 65 256.833007812 65 298.5 c 128
327 299 m 128
 327 352.724609375 291.504882812 395 235.5 395 c 128
 175.989257812 395 144 351.379882812 144 292 c 256
 144 234.603515625 175.564453125 189 232 189 c 128
 259.333007812 189 280.666992188 196 296 210 c 128
 326.505859375 237.852539062 327 243.90625 327 299 c 128
265 -144 m 256
 328.280273438 -144 421 -122.095703125 421 -70 c 0
 421 -26 374.666992188 -4 282 -4 c 2
 188 -4 l 2
 141.369140625 -4 109 -29.2080078125 109 -68.5 c 128
 109 -95.5 129.666992188 -116 171 -130 c 0
 201 -139.333007812 232.333007812 -144 265 -144 c 256
EndSplineSet
Substitution2: "'smcp' Lowercase to Small Capitals lookup 16 subtable" Gbreve.sc
EndChar

StartChar: Gdotaccent
Encoding: 288 288 224
Width: 708
GlyphClass: 2
Flags: HMW
LayerCount: 2
Fore
SplineSet
300 732 m 1
 300 825 l 1
 398 825 l 1
 398 732 l 1
 300 732 l 1
407 -11 m 0
 310.333333333 -11 229.5 24.3333333333 164.5 95 c 128
 99.5 165.666666667 67 249.833333333 67 347.5 c 256
 67 445.166666667 99.5 529.5 164.5 600.5 c 128
 229.5 671.5 310.333333333 707 407 707 c 0
 485 707 556.666666667 690 622 656 c 1
 606 568 l 1
 547.333333333 614.666666667 481.333333333 638 408 638 c 256
 334.666666667 638 275 607 229 545 c 0
 186.333333333 488.333333333 165 422.5 165 347.5 c 256
 165 272.5 187.333333333 205.5 232 146.5 c 256
 276.666666667 87.5 335 58 407 58 c 0
 454.333333333 58 499.666666667 64.6666666667 543 78 c 1
 543 238 l 1
 405 238 l 1
 405 303 l 1
 631 303 l 1
 631 39 l 1
 559.666666667 5.66666666667 485 -11 407 -11 c 0
EndSplineSet
Position2: "'cpsp' Capital Spacing lookup 0 subtable" dx=7 dy=0 dh=14 dv=0
EndChar

StartChar: gdotaccent
Encoding: 289 289 225
Width: 531
GlyphClass: 2
Flags: HMW
LayerCount: 2
Fore
SplineSet
179 562 m 1
 179 655 l 1
 278 655 l 1
 278 562 l 1
 179 562 l 1
65 298.5 m 128
 65 381.774414062 145.43359375 456 229 456 c 128
 271.666992188 456 307 445.666992188 335 425 c 1
 387 445.666992188 443 456 503 456 c 1
 515 388 l 1
 484.333007812 390.666992188 463.666992188 392 453 392 c 128
 436.282226562 392 389.841796875 388 374 388 c 1
 395.333007812 358.666992188 406 326.666992188 406 292 c 0
 406 199.318359375 327.522460938 127 235 127 c 0
 200.333007812 127 168.666992188 136.333007812 140 155 c 1
 134 146.333007812 131 135.666992188 131 123 c 0
 131 89 150.333007812 72 189 72 c 2
 281 72 l 2
 297.666992188 72 321.666992188 70.5 353 67.5 c 128
 384.333007812 64.5 416.666992188 52.6669921875 450 32 c 128
 483.333007812 11.3330078125 500 -22.1669921875 500 -68.5 c 128
 500 -114.833007812 470.666992188 -150.666992188 412 -176 c 0
 366.666992188 -196 317.666992188 -206 265 -206 c 128
 212.333007812 -206 163.333007812 -196 118 -176 c 0
 59.3330078125 -150.666992188 30 -115.833007812 30 -71.5 c 128
 30 -27.1669921875 52 8 96 34 c 1
 78.6669921875 55.3330078125 70 80.3330078125 70 109 c 256
 70 137.666992188 80 165.666992188 100 193 c 1
 76.6669921875 221.666992188 65 256.833007812 65 298.5 c 128
327 299 m 128
 327 352.724609375 291.504882812 395 235.5 395 c 128
 177.74609375 395 144 351.51171875 144 292 c 256
 144 234.603515625 175.564453125 189 232 189 c 128
 259.333007812 189 280.666992188 196 296 210 c 128
 326.505859375 237.852539062 327 243.90625 327 299 c 128
265 -144 m 256
 328.280273438 -144 421 -122.095703125 421 -70 c 0
 421 -26 374.666992188 -4 282 -4 c 2
 188 -4 l 2
 141.369140625 -4 109 -29.2080078125 109 -68.5 c 128
 109 -95.5 129.666992188 -116 171 -130 c 0
 201 -139.333007812 232.333007812 -144 265 -144 c 256
EndSplineSet
EndChar

StartChar: Gcommaaccent
Encoding: 290 290 226
Width: 708
GlyphClass: 2
Flags: HMW
LayerCount: 2
Fore
SplineSet
407 -12 m 0
 310.333333333 -12 229.5 23.3333333333 164.5 94 c 128
 99.5 164.666666667 67 248.833333333 67 346.5 c 256
 67 444.166666667 99.5 528.5 164.5 599.5 c 128
 229.5 670.5 310.333333333 706 407 706 c 0
 485 706 556.666666667 689 622 655 c 1
 606 568 l 1
 547.333333333 614 481.333333333 637 408 637 c 256
 334.666666667 637 275 606 229 544 c 0
 186.333333333 487.333333333 165 421.5 165 346.5 c 256
 165 271.5 187.333333333 204.333333333 232 145 c 256
 276.666666667 85.6666666667 335 56 407 56 c 0
 454.333333333 56 499.666666667 63 543 77 c 1
 543 236 l 1
 405 236 l 1
 405 302 l 1
 631 302 l 1
 631 37 l 1
 559.666666667 4.33333333333 485 -12 407 -12 c 0
352 -266 m 1
 308 -266 l 1
 331 -155 l 1
 308 -155 l 1
 308 -75 l 1
 391 -75 l 1
 391 -151 l 1
 352 -266 l 1
EndSplineSet
Position2: "'cpsp' Capital Spacing lookup 0 subtable" dx=7 dy=0 dh=14 dv=0
EndChar

StartChar: gcommaaccent
Encoding: 291 291 227
Width: 531
GlyphClass: 2
Flags: HMW
LayerCount: 2
Fore
SplineSet
187 536 m 1
 187 613 l 1
 227 727 l 1
 271 727 l 1
 248 616 l 1
 270 616 l 1
 270 536 l 1
 187 536 l 1
65 298.5 m 128
 65 381.774414062 145.43359375 456 229 456 c 128
 271.666992188 456 307 445.666992188 335 425 c 1
 387 445.666992188 443 456 503 456 c 1
 515 389 l 1
 484.333007812 391 463.666992188 392 453 392 c 128
 436.282226562 392 389.841796875 388 374 388 c 1
 395.333007812 358.666992188 406 326.666992188 406 292 c 0
 406 199.318359375 327.522460938 127 235 127 c 0
 200.333007812 127 168.666992188 136.333007812 140 155 c 1
 134 146.333007812 131 135.666992188 131 123 c 0
 131 89.6669921875 150.333007812 73 189 73 c 2
 281 73 l 2
 297.666992188 73 321.666992188 71.3330078125 353 68 c 128
 384.333007812 64.6669921875 416.666992188 52.6669921875 450 32 c 128
 483.333007812 11.3330078125 500 -22.1669921875 500 -68.5 c 128
 500 -114.833007812 470.666992188 -150.666992188 412 -176 c 0
 366.666992188 -196 317.666992188 -206 265 -206 c 128
 212.333007812 -206 163.333007812 -196 118 -176 c 0
 59.3330078125 -150.666992188 30 -115.666992188 30 -71 c 128
 30 -26.3330078125 52 8.6669921875 96 34 c 1
 78.6669921875 55.3330078125 70 80.5 70 109.5 c 128
 70 138.5 80 166.333007812 100 193 c 1
 76.6669921875 221.666992188 65 256.833007812 65 298.5 c 128
327 299 m 128
 327 352.724609375 291.504882812 395 235.5 395 c 128
 175.989257812 395 144 351.379882812 144 292 c 256
 144 234.603515625 175.564453125 189 232 189 c 128
 259.333007812 189 280.666992188 196 296 210 c 128
 326.505859375 237.852539062 327 243.90625 327 299 c 128
265 -144 m 256
 328.280273438 -144 421 -122.095703125 421 -70 c 0
 421 -26 374.666992188 -4 282 -4 c 2
 188 -4 l 2
 141.369140625 -4 109 -29.2080078125 109 -68.5 c 128
 109 -95.5 129.666992188 -116 171 -130 c 0
 201 -139.333007812 232.333007812 -144 265 -144 c 256
EndSplineSet
EndChar

StartChar: Hcircumflex
Encoding: 292 292 228
Width: 750
GlyphClass: 2
Flags: HMW
LayerCount: 2
Fore
SplineSet
473 732 m 1
 373 827 l 1
 272 732 l 1
 203 732 l 1
 340 870 l 1
 405 870 l 1
 543 732 l 1
 473 732 l 1
549 0 m 1
 549 328 l 1
 196 328 l 1
 196 0 l 1
 97 0 l 1
 97 695 l 1
 196 695 l 1
 196 394 l 1
 549 394 l 1
 549 695 l 1
 647 695 l 1
 647 0 l 1
 549 0 l 1
EndSplineSet
Position2: "'cpsp' Capital Spacing lookup 0 subtable" dx=7 dy=0 dh=14 dv=0
EndChar

StartChar: hcircumflex
Encoding: 293 293 229
Width: 549
GlyphClass: 2
Flags: HMW
LayerCount: 2
Fore
SplineSet
373 732 m 1
 272 827 l 1
 171 732 l 1
 102 732 l 1
 239 870 l 1
 305 870 l 1
 442 732 l 1
 373 732 l 1
373 292 m 2
 373 360.780273438 343.802734375 392 274 392 c 0
 238 392 211.833007812 377.333007812 195.5 348 c 128
 179.166992188 318.666992188 171 284.666992188 171 246 c 2
 171 0 l 1
 83 0 l 1
 83 695 l 1
 167 695 l 1
 167 390 l 1
 206.333007812 434.666992188 255.333007812 457 314 457 c 0
 411.333007812 457 460 404.333007812 460 299 c 2
 460 0 l 1
 373 0 l 1
 373 292 l 2
EndSplineSet
EndChar

StartChar: Hbar
Encoding: 294 294 230
Width: 750
GlyphClass: 2
Flags: HMW
LayerCount: 2
Fore
SplineSet
645 486 m 1
 645 0 l 1
 547 0 l 1
 547 328 l 1
 194 328 l 1
 194 0 l 1
 95 0 l 1
 95 486 l 1
 40 486 l 1
 40 554 l 1
 95 554 l 1
 95 694 l 1
 194 694 l 1
 194 554 l 1
 547 554 l 1
 547 694 l 1
 645 694 l 1
 645 554 l 1
 700 554 l 1
 700 486 l 1
 645 486 l 1
547 486 m 1
 194 486 l 1
 194 393 l 1
 547 393 l 1
 547 486 l 1
EndSplineSet
Position2: "'cpsp' Capital Spacing lookup 0 subtable" dx=7 dy=0 dh=14 dv=0
EndChar

StartChar: hbar
Encoding: 295 295 231
Width: 549
GlyphClass: 2
Flags: HMW
LayerCount: 2
Fore
SplineSet
269 391 m 0
 197.764648438 391 166 322.859375 166 246 c 2
 166 0 l 1
 78 0 l 1
 78 533 l 1
 -3 533 l 1
 -3 602 l 1
 78 602 l 1
 78 694 l 1
 162 694 l 1
 162 602 l 1
 270 602 l 1
 270 533 l 1
 162 533 l 1
 162 390 l 1
 201.333007812 434.666992188 250.333007812 457 309 457 c 0
 406.333007812 457 455 404 455 298 c 2
 455 0 l 1
 368 0 l 1
 368 291 l 2
 368 360.443359375 339.35546875 391 269 391 c 0
EndSplineSet
EndChar

StartChar: Itilde
Encoding: 296 296 232
Width: 295
GlyphClass: 2
Flags: HMW
LayerCount: 2
Fore
SplineSet
327 855 m 1
 325.702148438 790.083007812 287.110351562 732 221 732 c 0
 201 732 176.333007812 741.5 147 760.5 c 256
 117.666992188 779.5 95.3330078125 789 80 789 c 0
 55.3330078125 789 42.3330078125 770 41 732 c 1
 -28 732 l 1
 -26.7021484375 796.916992188 11.8896484375 855 78 855 c 0
 98 855 122.666992188 845.333007812 152 826 c 256
 181.333007812 806.666992188 203.666992188 797 219 797 c 0
 243.666992188 797 256.666992188 816.333007812 258 855 c 1
 327 855 l 1
99 0 m 1
 99 695 l 1
 198 695 l 1
 198 0 l 1
 99 0 l 1
EndSplineSet
Position2: "'cpsp' Capital Spacing lookup 0 subtable" dx=7 dy=0 dh=14 dv=0
EndChar

StartChar: itilde
Encoding: 297 297 233
Width: 253
GlyphClass: 2
Flags: HMW
LayerCount: 2
Fore
SplineSet
306 670 m 1
 304.702148438 605.083007812 266.110351562 547 200 547 c 0
 180 547 155.333007812 556.5 126 575.5 c 256
 96.6669921875 594.5 74.3330078125 604 59 604 c 0
 34.3330078125 604 21.3330078125 585 20 547 c 1
 -49 547 l 1
 -47.7021484375 611.916992188 -9.1103515625 670 57 670 c 0
 77 670 101.666992188 660.333007812 131 641 c 256
 160.333007812 621.666992188 182.666992188 612 198 612 c 0
 222.666992188 612 235.666992188 631.333007812 237 670 c 1
 306 670 l 1
85 0 m 1
 85 446 l 1
 169 446 l 1
 169 0 l 1
 85 0 l 1
EndSplineSet
EndChar

StartChar: Imacron
Encoding: 298 298 234
Width: 295
GlyphClass: 2
Flags: HMW
LayerCount: 2
Fore
SplineSet
-43 751 m 1
 -43 820 l 1
 342 820 l 1
 342 751 l 1
 -43 751 l 1
99 0 m 1
 99 695 l 1
 198 695 l 1
 198 0 l 1
 99 0 l 1
EndSplineSet
Position2: "'cpsp' Capital Spacing lookup 0 subtable" dx=7 dy=0 dh=14 dv=0
EndChar

StartChar: imacron
Encoding: 299 299 235
Width: 253
GlyphClass: 2
Flags: HMW
LayerCount: 2
Fore
SplineSet
-64 575 m 1
 -64 643 l 1
 321 643 l 1
 321 575 l 1
 -64 575 l 1
85 0 m 1
 85 446 l 1
 169 446 l 1
 169 0 l 1
 85 0 l 1
EndSplineSet
EndChar

StartChar: Ibreve
Encoding: 300 300 236
Width: 295
GlyphClass: 2
Flags: HMW
LayerCount: 2
Fore
SplineSet
327 924 m 1
 325.68359375 822.609375 249.551757812 742 147 742 c 256
 44.423828125 742 -30.68359375 822.615234375 -32 924 c 1
 37 924 l 1
 38.3037109375 861.426757812 84.6875 814 148 814 c 256
 211.329101562 814 256.696289062 861.436523438 258 924 c 1
 327 924 l 1
97 0 m 1
 97 695 l 1
 196 695 l 1
 196 0 l 1
 97 0 l 1
EndSplineSet
Position2: "'cpsp' Capital Spacing lookup 0 subtable" dx=7 dy=0 dh=14 dv=0
EndChar

StartChar: ibreve
Encoding: 301 301 237
Width: 253
GlyphClass: 2
Flags: HMW
LayerCount: 2
Fore
SplineSet
306 700 m 1
 304.686523438 598.875 227.608398438 518 125.5 518 c 128
 23.3466796875 518 -51.6865234375 598.884765625 -53 700 c 1
 16 700 l 1
 17.3125 638.291015625 64.2109375 590 127 590 c 256
 189.811523438 590 235.6875 638.296875 237 700 c 1
 306 700 l 1
83 0 m 1
 83 446 l 1
 167 446 l 1
 167 0 l 1
 83 0 l 1
EndSplineSet
EndChar

StartChar: Iogonek
Encoding: 302 302 238
Width: 295
GlyphClass: 2
Flags: HMW
LayerCount: 2
Fore
SplineSet
256.099609375 -186 m 1
 217.43359375 -203.333007812 182.93359375 -212 152.599609375 -212 c 128
 93.1318359375 -212 46.794921875 -181.5859375 44.099609375 -125 c 0
 42.099609375 -75.6669921875 70.099609375 -34.3330078125 128.099609375 -1 c 1
 109.099609375 -1 l 1
 109.099609375 694 l 1
 208.099609375 694 l 1
 208.099609375 0 l 1
 145.43359375 -33.3330078125 114.43359375 -67.3330078125 115.099609375 -102 c 0
 115.766601562 -123.333007812 133.766601562 -135 169.099609375 -137 c 0
 187.766601562 -138.333007812 211.766601562 -133.666992188 241.099609375 -123 c 1
 256.099609375 -186 l 1
EndSplineSet
Position2: "'cpsp' Capital Spacing lookup 0 subtable" dx=7 dy=0 dh=14 dv=0
EndChar

StartChar: iogonek
Encoding: 303 303 239
Width: 253
GlyphClass: 2
Flags: HMW
LayerCount: 2
Fore
SplineSet
86.173828125 587 m 1
 86.173828125 680 l 1
 185.173828125 680 l 1
 185.173828125 587 l 1
 86.173828125 587 l 1
226.173828125 -186 m 1
 187.506835938 -203.333007812 152.840820312 -212 122.173828125 -212 c 128
 62.921875 -212 15.5380859375 -182.296875 14.173828125 -125 c 0
 11.5068359375 -75.6669921875 39.5068359375 -34.3330078125 98.173828125 -1 c 1
 93.173828125 -1 l 1
 93.173828125 445 l 1
 177.173828125 445 l 1
 177.173828125 0 l 1
 115.173828125 -33.3330078125 84.5068359375 -67.3330078125 85.173828125 -102 c 0
 85.8408203125 -123.333007812 103.506835938 -135 138.173828125 -137 c 0
 156.840820312 -138.333007812 180.840820312 -133.666992188 210.173828125 -123 c 1
 226.173828125 -186 l 1
EndSplineSet
EndChar

StartChar: Idotaccent
Encoding: 304 304 240
Width: 295
GlyphClass: 2
Flags: HMW
LayerCount: 2
Fore
SplineSet
97 732 m 1
 97 825 l 1
 196 825 l 1
 196 732 l 1
 97 732 l 1
97 0 m 1
 97 695 l 1
 196 695 l 1
 196 0 l 1
 97 0 l 1
EndSplineSet
EndChar

StartChar: dotlessi
Encoding: 305 305 241
Width: 253
GlyphClass: 2
Flags: HMW
LayerCount: 2
Fore
SplineSet
84 0 m 1
 84 444 l 1
 168 444 l 1
 168 0 l 1
 84 0 l 1
EndSplineSet
Substitution2: "'smcp' Lowercase to Small Capitals lookup 16 subtable" I.sc
EndChar

StartChar: I_J
Encoding: 306 306 242
Width: 767
GlyphClass: 3
Flags: HMW
LayerCount: 2
Fore
SplineSet
674 150 m 2
 674 35.9052734375 598.682617188 -22 483.5 -22 c 128
 424.5 -22 365 -7.6669921875 305 21 c 1
 321 102 l 1
 357.666992188 63.3330078125 403 44 457 44 c 0
 532.889648438 44 578 82.0517578125 578 153 c 2
 578 694 l 1
 674 694 l 1
 674 150 l 2
97 0 m 1
 97 694 l 1
 196 694 l 1
 196 0 l 1
 97 0 l 1
EndSplineSet
Ligature2: "'liga' Standard Ligatures lookup 9 subtable" I J
Position2: "'cpsp' Capital Spacing lookup 0 subtable" dx=7 dy=0 dh=14 dv=0
EndChar

StartChar: i_j
Encoding: 307 307 243
Width: 511
GlyphClass: 3
Flags: HMW
LayerCount: 2
Fore
SplineSet
323 562 m 1
 323 655 l 1
 422 655 l 1
 422 562 l 1
 323 562 l 1
75 562 m 1
 75 655 l 1
 174 655 l 1
 174 562 l 1
 75 562 l 1
422 -57 m 2
 422 -138.761632893 367.707835144 -205 285 -205 c 128
 243 -205 201 -193.333333333 159 -170 c 1
 176 -103 l 1
 201.333333333 -125 228.666666667 -136 258 -136 c 0
 311.333333333 -136 338 -112.666666667 338 -66 c 2
 338 445 l 1
 422 445 l 1
 422 -57 l 2
82 -1 m 1
 82 445 l 1
 166 445 l 1
 166 -1 l 1
 82 -1 l 1
EndSplineSet
Ligature2: "'liga' Standard Ligatures lookup 9 subtable" i j
Substitution2: "'smcp' Lowercase to Small Capitals lookup 16 subtable" IJ.sc
EndChar

StartChar: Jcircumflex
Encoding: 308 308 244
Width: 502
GlyphClass: 2
Flags: HMW
LayerCount: 2
Fore
SplineSet
466 732 m 1
 365 827 l 1
 264 732 l 1
 195 732 l 1
 333 870 l 1
 398 870 l 1
 535 732 l 1
 466 732 l 1
413 151 m 2
 413 36.916015625 338.724609375 -22 223.5 -22 c 128
 164.5 -22 104.666992188 -7.6669921875 44 21 c 1
 60 102 l 1
 96.6669921875 63.3330078125 142 44 196 44 c 0
 273.036132812 44 317 78.7783203125 317 154 c 2
 317 695 l 1
 413 695 l 1
 413 151 l 2
EndSplineSet
Position2: "'cpsp' Capital Spacing lookup 0 subtable" dx=7 dy=0 dh=14 dv=0
EndChar

StartChar: jcircumflex
Encoding: 309 309 245
Width: 283
GlyphClass: 2
Flags: HMW
LayerCount: 2
Fore
SplineSet
249 521 m 1
 149 642 l 1
 49 521 l 1
 -19 521 l 1
 116 697 l 1
 182 697 l 1
 317 521 l 1
 249 521 l 1
198 -57 m 2
 198 -138.76171875 143.708007812 -205 61 -205 c 128
 19 -205 -23 -193.333007812 -65 -170 c 1
 -41 -104 l 1
 -17 -125.333007812 9.3330078125 -136 38 -136 c 0
 52.6669921875 -136 67.6669921875 -132.666992188 83 -126 c 0
 103.666992188 -117.333007812 114 -97.6669921875 114 -67 c 2
 114 445 l 1
 198 445 l 1
 198 -57 l 2
EndSplineSet
EndChar

StartChar: Kcommaaccent
Encoding: 310 310 246
Width: 738
GlyphClass: 2
Flags: HMW
LayerCount: 2
Fore
SplineSet
588 -1 m 1
 331 359 l 1
 195 226 l 1
 195 -1 l 1
 100 -1 l 1
 100 694 l 1
 195 694 l 1
 195 329 l 1
 572 694 l 1
 677 694 l 1
 393 419 l 1
 690 -1 l 1
 588 -1 l 1
368 -266 m 1
 324 -266 l 1
 347 -155 l 1
 325 -155 l 1
 325 -75 l 1
 408 -75 l 1
 408 -151 l 1
 368 -266 l 1
EndSplineSet
Position2: "'cpsp' Capital Spacing lookup 0 subtable" dx=7 dy=0 dh=14 dv=0
EndChar

StartChar: kcommaaccent
Encoding: 311 311 247
Width: 519
GlyphClass: 2
Flags: HMW
LayerCount: 2
Fore
SplineSet
409 -1 m 1
 246 220 l 1
 165 140 l 1
 165 -1 l 1
 88 -1 l 1
 88 694 l 1
 168 694 l 1
 168 242 l 1
 378 445 l 1
 480 445 l 1
 300 271 l 1
 502 -1 l 1
 409 -1 l 1
260 -266 m 1
 216 -266 l 1
 239 -155 l 1
 217 -155 l 1
 217 -75 l 1
 300 -75 l 1
 300 -151 l 1
 260 -266 l 1
EndSplineSet
EndChar

StartChar: Lacute
Encoding: 313 313 248
Width: 578
GlyphClass: 2
Flags: HMW
LayerCount: 2
Fore
SplineSet
200 742 m 1
 97 742 l 1
 289 868 l 1
 415 868 l 1
 200 742 l 1
103 0 m 1
 103 695 l 1
 202 695 l 1
 202 69 l 1
 251 69 l 1
 534 71 l 1
 534 0 l 1
 103 0 l 1
EndSplineSet
Position2: "'cpsp' Capital Spacing lookup 0 subtable" dx=7 dy=0 dh=14 dv=0
EndChar

StartChar: lacute
Encoding: 314 314 249
Width: 253
GlyphClass: 2
Flags: HMW
LayerCount: 2
Fore
SplineSet
186 742 m 1
 84 742 l 1
 275 868 l 1
 402 868 l 1
 186 742 l 1
89 0 m 1
 89 695 l 1
 173 695 l 1
 173 0 l 1
 89 0 l 1
EndSplineSet
Substitution2: "'smcp' Lowercase to Small Capitals lookup 16 subtable" Lacute.sc
EndChar

StartChar: Lcommaaccent
Encoding: 315 315 250
Width: 578
GlyphClass: 2
Flags: HMW
LayerCount: 2
Fore
SplineSet
97 -1 m 1
 97 694 l 1
 196 694 l 1
 196 67 l 1
 245 67 l 1
 528 69 l 1
 528 -1 l 1
 97 -1 l 1
287 -266 m 1
 244 -266 l 1
 267 -155 l 1
 244 -155 l 1
 244 -75 l 1
 327 -75 l 1
 327 -151 l 1
 287 -266 l 1
EndSplineSet
Position2: "'cpsp' Capital Spacing lookup 0 subtable" dx=7 dy=0 dh=14 dv=0
EndChar

StartChar: lcommaaccent
Encoding: 316 316 251
Width: 253
GlyphClass: 2
Flags: HMW
LayerCount: 2
Fore
SplineSet
84 -1 m 1
 84 694 l 1
 168 694 l 1
 168 -1 l 1
 84 -1 l 1
129 -266 m 1
 85 -266 l 1
 108 -155 l 1
 85 -155 l 1
 85 -75 l 1
 168 -75 l 1
 168 -151 l 1
 129 -266 l 1
EndSplineSet
EndChar

StartChar: Lcaron
Encoding: 317 317 252
Width: 578
GlyphClass: 2
Flags: HMW
LayerCount: 2
Fore
SplineSet
293 503 m 1
 249 503 l 1
 272 615 l 1
 249 615 l 1
 249 694 l 1
 332 694 l 1
 332 618 l 1
 293 503 l 1
97 0 m 1
 97 694 l 1
 196 694 l 1
 196 69 l 1
 245 69 l 1
 528 71 l 1
 528 0 l 1
 97 0 l 1
EndSplineSet
Position2: "'cpsp' Capital Spacing lookup 0 subtable" dx=7 dy=0 dh=14 dv=0
EndChar

StartChar: lcaron
Encoding: 318 318 253
Width: 253
GlyphClass: 2
Flags: HMW
LayerCount: 2
Fore
SplineSet
245 503 m 1
 201 503 l 1
 225 615 l 1
 202 615 l 1
 202 694 l 1
 285 694 l 1
 285 618 l 1
 245 503 l 1
84 0 m 1
 84 694 l 1
 168 694 l 1
 168 0 l 1
 84 0 l 1
EndSplineSet
Substitution2: "'smcp' Lowercase to Small Capitals lookup 16 subtable" Lcaron.sc
EndChar

StartChar: Ldot
Encoding: 319 319 254
Width: 578
GlyphClass: 2
Flags: HMW
LayerCount: 2
Fore
SplineSet
381 322 m 1
 381 415 l 1
 479 415 l 1
 479 322 l 1
 381 322 l 1
97 0 m 1
 97 694 l 1
 196 694 l 1
 196 69 l 1
 245 69 l 1
 528 71 l 1
 528 0 l 1
 97 0 l 1
EndSplineSet
Position2: "'cpsp' Capital Spacing lookup 0 subtable" dx=7 dy=0 dh=14 dv=0
EndChar

StartChar: ldot
Encoding: 320 320 255
Width: 316
GlyphClass: 2
Flags: HMW
LayerCount: 2
Fore
SplineSet
227 322 m 1
 227 415 l 1
 326 415 l 1
 326 322 l 1
 227 322 l 1
84 0 m 1
 84 694 l 1
 168 694 l 1
 168 0 l 1
 84 0 l 1
EndSplineSet
EndChar

StartChar: Lslash
Encoding: 321 321 256
Width: 667
GlyphClass: 2
Flags: HMW
LayerCount: 2
Fore
SplineSet
202 0 m 1
 202 284 l 1
 138 232 l 1
 95 279 l 1
 202 364 l 1
 202 694 l 1
 301 694 l 1
 301 443 l 1
 435 550 l 1
 479 502 l 1
 301 362 l 1
 301 69 l 1
 350 69 l 1
 633 71 l 1
 633 0 l 1
 202 0 l 1
EndSplineSet
Position2: "'cpsp' Capital Spacing lookup 0 subtable" dx=7 dy=0 dh=14 dv=0
EndChar

StartChar: lslash
Encoding: 322 322 257
Width: 344
GlyphClass: 2
Flags: HMW
LayerCount: 2
Fore
SplineSet
229 354 m 1
 229 0 l 1
 145 0 l 1
 145 284 l 1
 85 234 l 1
 41 283 l 1
 145 369 l 1
 145 694 l 1
 229 694 l 1
 229 437 l 1
 298 494 l 1
 344 447 l 1
 229 354 l 1
EndSplineSet
Substitution2: "'smcp' Lowercase to Small Capitals lookup 16 subtable" Lslash.sc
EndChar

StartChar: Nacute
Encoding: 323 323 258
Width: 750
GlyphClass: 2
Flags: HMW
LayerCount: 2
Fore
SplineSet
368 742 m 1
 266 742 l 1
 457 868 l 1
 583 868 l 1
 368 742 l 1
559 82 m 1
 559 695 l 1
 646 695 l 1
 646 0 l 1
 512 0 l 1
 187 613 l 1
 187 0 l 1
 100 0 l 1
 100 695 l 1
 235 695 l 1
 559 82 l 1
EndSplineSet
Position2: "'cpsp' Capital Spacing lookup 0 subtable" dx=7 dy=0 dh=14 dv=0
EndChar

StartChar: nacute
Encoding: 324 324 259
Width: 549
GlyphClass: 2
Flags: HMW
LayerCount: 2
Fore
SplineSet
264 523 m 1
 193 523 l 1
 337 694 l 1
 426 694 l 1
 264 523 l 1
274 391 m 0
 202.764648438 391 171 322.859375 171 246 c 2
 171 0 l 1
 83 0 l 1
 83 452 l 1
 164 452 l 1
 164 386 l 1
 204 433.333007812 254 457 314 457 c 0
 411.333007812 457 460 404 460 298 c 2
 460 0 l 1
 373 0 l 1
 373 291 l 2
 373 360.443359375 344.35546875 391 274 391 c 0
EndSplineSet
Substitution2: "'smcp' Lowercase to Small Capitals lookup 16 subtable" Nacute.sc
EndChar

StartChar: Ncommaaccent
Encoding: 325 325 260
Width: 750
GlyphClass: 2
Flags: HMW
LayerCount: 2
Fore
SplineSet
559 80 m 1
 559 694 l 1
 646 694 l 1
 646 -1 l 1
 512 -1 l 1
 187 612 l 1
 187 -1 l 1
 100 -1 l 1
 100 694 l 1
 235 694 l 1
 559 80 l 1
376 -266 m 1
 332 -266 l 1
 355 -155 l 1
 332 -155 l 1
 332 -75 l 1
 415 -75 l 1
 415 -151 l 1
 376 -266 l 1
EndSplineSet
Position2: "'cpsp' Capital Spacing lookup 0 subtable" dx=7 dy=0 dh=14 dv=0
EndChar

StartChar: ncommaaccent
Encoding: 326 326 261
Width: 549
GlyphClass: 2
Flags: HMW
LayerCount: 2
Fore
SplineSet
274 389 m 0
 202.764648438 389 171 320.859375 171 244 c 2
 171 -2 l 1
 83 -2 l 1
 83 450 l 1
 164 450 l 1
 164 384 l 1
 204 431.333007812 254 455 314 455 c 0
 411.333007812 455 460 402.333007812 460 297 c 2
 460 -2 l 1
 373 -2 l 1
 373 290 l 2
 373 358.553710938 344.388671875 389 274 389 c 0
274 -266 m 1
 230 -266 l 1
 253 -155 l 1
 230 -155 l 1
 230 -75 l 1
 313 -75 l 1
 313 -152 l 1
 274 -266 l 1
EndSplineSet
EndChar

StartChar: Ncaron
Encoding: 327 327 262
Width: 750
GlyphClass: 2
Flags: HMW
LayerCount: 2
Fore
SplineSet
406 732 m 1
 341 732 l 1
 204 870 l 1
 273 870 l 1
 374 775 l 1
 474 870 l 1
 544 870 l 1
 406 732 l 1
559 82 m 1
 559 695 l 1
 646 695 l 1
 646 0 l 1
 512 0 l 1
 187 613 l 1
 187 0 l 1
 100 0 l 1
 100 695 l 1
 235 695 l 1
 559 82 l 1
EndSplineSet
Position2: "'cpsp' Capital Spacing lookup 0 subtable" dx=7 dy=0 dh=14 dv=0
EndChar

StartChar: ncaron
Encoding: 328 328 263
Width: 549
GlyphClass: 2
Flags: HMW
LayerCount: 2
Fore
SplineSet
305 521 m 1
 239 521 l 1
 104 697 l 1
 172 697 l 1
 272 576 l 1
 371 697 l 1
 440 697 l 1
 305 521 l 1
274 391 m 0
 202.764648438 391 171 322.859375 171 246 c 2
 171 0 l 1
 83 0 l 1
 83 452 l 1
 164 452 l 1
 164 386 l 1
 204 433.333007812 254 457 314 457 c 0
 411.333007812 457 460 404 460 298 c 2
 460 0 l 1
 373 0 l 1
 373 291 l 2
 373 360.443359375 344.35546875 391 274 391 c 0
EndSplineSet
Substitution2: "'smcp' Lowercase to Small Capitals lookup 16 subtable" Ncaron.sc
EndChar

StartChar: Eng
Encoding: 330 330 264
Width: 750
GlyphClass: 2
Flags: HMW
LayerCount: 2
Fore
SplineSet
410 634 m 0
 301.692382812 634 217.991210938 556.41015625 196 466 c 1
 196 0 l 1
 97 0 l 1
 97 694 l 1
 196 694 l 1
 196 631 l 1
 254.666992188 687.666992188 326 716 410 716 c 0
 463.333007812 716 508.333007812 697.666992188 545 661 c 0
 613 593 647 488.5 647 347.5 c 128
 647 206.5 613.333007812 102 546 34 c 0
 508.666992188 -3.3330078125 462.666992188 -22 408 -22 c 1
 408 60 l 1
 467.333007812 60 506.666992188 91 526 153 c 0
 542 206.333007812 550 271 550 347 c 256
 550 423 542 487.333007812 526 540 c 0
 506.666992188 602.666992188 468 634 410 634 c 0
EndSplineSet
Position2: "'cpsp' Capital Spacing lookup 0 subtable" dx=7 dy=0 dh=14 dv=0
EndChar

StartChar: eng
Encoding: 331 331 265
Width: 549
GlyphClass: 2
Flags: HMW
LayerCount: 2
Fore
SplineSet
274 389 m 0
 202.764648438 389 171 320.859375 171 244 c 2
 171 -2 l 1
 83 -2 l 1
 83 450 l 1
 164 450 l 1
 164 384 l 1
 204 431.333007812 254 455 314 455 c 0
 411.333007812 455 460 402.333007812 460 297 c 2
 460 1 l 2
 460 -55 445.5 -104 416.5 -146 c 128
 387.5 -188 347.666992188 -209 297 -209 c 1
 297 -141 l 1
 347.666992188 -141 373 -93.6669921875 373 1 c 2
 373 290 l 2
 373 358.553710938 344.388671875 389 274 389 c 0
EndSplineSet
Substitution2: "'ss05' Style Set 5 lookup 23 IPA alts-1" eng.ipa
Substitution2: "'smcp' Lowercase to Small Capitals lookup 16 subtable" Eng.sc
EndChar

